# Blender v2.79 (sub 0) OBJ File: 'Fallen_log_02.blend'
# www.blender.org
mtllib Fallen_log_02.mtl
o Cube
v 0.005136 0.127643 -1.760000
v -0.103923 0.189771 -1.760000
v -0.103923 0.189771 -0.880000
v -0.103923 0.189771 0.000000
v 0.005136 0.127643 -0.880000
v 0.005136 0.127643 0.000000
v 0.005136 0.003386 -0.880000
v 0.005136 0.003386 0.000000
v -0.103923 -0.058742 0.000000
v -0.212983 0.003386 -0.880000
v -0.212983 0.003386 0.000000
v -0.212983 0.127643 0.000000
v 0.005136 0.003386 -1.760000
v -0.103923 -0.058742 -1.760000
v -0.103923 -0.058742 -0.880000
v -0.212983 0.003386 -1.760000
v -0.212983 0.127643 -1.760000
v -0.212983 0.127643 -0.880000
vt 0.124902 0.265527
vt 0.000098 0.265527
vt 0.000098 0.250098
vt 0.124902 0.250098
vt 0.124902 0.265527
vt 0.000098 0.265527
vt 0.000098 0.250098
vt 0.124902 0.250098
vt 0.124902 0.265527
vt 0.000098 0.265527
vt 0.000098 0.250098
vt 0.124902 0.250098
vt 0.124902 0.265527
vt 0.000098 0.265527
vt 0.000098 0.250098
vt 0.124902 0.250098
vt 0.124902 0.265527
vt 0.000098 0.265527
vt 0.000098 0.250098
vt 0.124902 0.250098
vt 0.029172 0.304593
vt 0.015625 0.312310
vt 0.002078 0.304593
vt 0.002078 0.289157
vt 0.015625 0.281440
vt 0.029172 0.289157
vt 0.124902 0.265527
vt 0.000098 0.265527
vt 0.000098 0.250098
vt 0.124902 0.250098
vt 0.124902 0.265527
vt 0.000098 0.265527
vt 0.000098 0.250098
vt 0.124902 0.250098
vt 0.124902 0.265527
vt 0.000098 0.265527
vt 0.000098 0.250098
vt 0.124902 0.250098
vt 0.124902 0.265527
vt 0.000098 0.265527
vt 0.000098 0.250098
vt 0.124902 0.250098
vt 0.124902 0.265527
vt 0.000098 0.265527
vt 0.000098 0.250098
vt 0.124902 0.250098
vt 0.124902 0.265527
vt 0.000098 0.265527
vt 0.000098 0.250098
vt 0.124902 0.250098
vt 0.124902 0.265527
vt 0.000098 0.265527
vt 0.000098 0.250098
vt 0.124902 0.250098
vt 0.015625 0.312310
vt 0.002078 0.304592
vt 0.002078 0.289157
vt 0.015625 0.281440
vt 0.029172 0.289157
vt 0.029172 0.304592
vn 0.4950 0.8689 0.0000
vn 1.0000 0.0000 0.0000
vn 0.4950 -0.8689 -0.0000
vn -0.4950 -0.8689 -0.0000
vn 0.0000 0.0000 1.0000
vn -1.0000 0.0000 0.0000
vn -0.4950 0.8689 0.0000
vn -0.0000 0.0000 -1.0000
usemtl Grassland_Tileatlas_01
s off
f 2/1/1 3/2/1 5/3/1 1/4/1
f 3/5/1 4/6/1 6/7/1 5/8/1
f 5/9/2 6/10/2 8/11/2 7/12/2
f 7/13/3 8/14/3 9/15/3 15/16/3
f 15/17/4 9/18/4 11/19/4 10/20/4
f 6/21/5 4/22/5 12/23/5 11/24/5 9/25/5 8/26/5
f 10/27/6 11/28/6 12/29/6 18/30/6
f 18/31/7 12/32/7 4/33/7 3/34/7
f 1/35/2 5/36/2 7/37/2 13/38/2
f 13/39/3 7/40/3 15/41/3 14/42/3
f 14/43/4 15/44/4 10/45/4 16/46/4
f 16/47/6 10/48/6 18/49/6 17/50/6
f 17/51/7 18/52/7 3/53/7 2/54/7
f 2/55/8 1/56/8 13/57/8 14/58/8 16/59/8 17/60/8
