# Blender v2.79 (sub 0) OBJ File: 'Sign_Post_03.blend'
# www.blender.org
mtllib Sign_Post_03.mtl
o Cube
v -0.125000 0.937500 -0.125000
v 0.000000 0.000000 0.000000
v -0.125000 0.000000 -0.125000
v -0.125000 0.000000 0.000000
v 0.000000 0.937500 0.000000
v -0.079775 0.744887 -0.593724
v 0.000000 0.000000 -0.125000
v 0.000000 0.937500 -0.125000
v -0.125000 0.937500 0.000000
v -0.079776 0.776132 -0.624979
v -0.048526 0.901137 -0.593750
v -0.079776 0.901215 -0.125000
v -0.079776 0.838627 -0.656240
v -0.079776 0.901137 -0.593750
v -0.079776 0.869887 -0.593745
v -0.048526 0.869887 -0.593745
v -0.048525 0.744887 -0.593724
v -0.048526 0.838627 -0.656240
v -0.079775 0.776137 -0.593729
v -0.048526 0.744965 -0.124974
v -0.048525 0.776137 -0.593729
v -0.048526 0.744877 -0.656224
v -0.048526 0.901127 -0.656250
v -0.048526 0.901215 -0.125000
v -0.079776 0.838632 -0.624990
v -0.079776 0.869882 -0.624995
v -0.048526 0.869882 -0.624995
v -0.048526 0.776132 -0.624979
v -0.048526 0.838632 -0.624990
v -0.079776 0.744965 -0.124974
v -0.048526 0.807382 -0.624984
v -0.079776 0.807377 -0.656234
v -0.048526 0.807377 -0.656234
v -0.079776 0.807382 -0.624984
v -0.079776 0.901130 -0.656250
v -0.079776 0.744880 -0.656225
vt 0.000098 0.484473
vt 0.015527 0.484473
vt 0.015527 0.499902
vt 0.000098 0.499902
vt 0.000098 0.496191
vt 0.015527 0.496191
vt 0.015527 0.613184
vt 0.000098 0.613184
vt 0.000098 0.496191
vt 0.015527 0.496191
vt 0.015527 0.613184
vt 0.000098 0.613184
vt 0.000098 0.496191
vt 0.015527 0.496191
vt 0.015527 0.613184
vt 0.000098 0.613184
vt 0.000098 0.496191
vt 0.015527 0.496191
vt 0.015527 0.613184
vt 0.000098 0.613184
vt 0.062598 0.539160
vt 0.120996 0.539160
vt 0.120996 0.542871
vt 0.062598 0.542871
vt 0.121191 0.539160
vt 0.124902 0.539160
vt 0.124902 0.542871
vt 0.121191 0.542871
vt 0.121191 0.539160
vt 0.124902 0.539160
vt 0.124902 0.542871
vt 0.121191 0.542871
vt 0.121191 0.539160
vt 0.124902 0.539160
vt 0.124902 0.542871
vt 0.121191 0.542871
vt 0.105566 0.539160
vt 0.109277 0.539160
vt 0.109277 0.542871
vt 0.105566 0.542871
vt 0.105566 0.539160
vt 0.109277 0.539160
vt 0.105566 0.542871
vt 0.062598 0.543066
vt 0.128809 0.543066
vt 0.128809 0.562402
vt 0.062598 0.562402
vt 0.121191 0.539160
vt 0.124902 0.539160
vt 0.124902 0.542871
vt 0.121191 0.542871
vt 0.121191 0.539160
vt 0.124902 0.539160
vt 0.124902 0.542871
vt 0.121191 0.542871
vt 0.121191 0.539160
vt 0.124902 0.539160
vt 0.124902 0.542871
vt 0.121191 0.542871
vt 0.121191 0.539160
vt 0.124902 0.539160
vt 0.124902 0.542871
vt 0.121191 0.542871
vt 0.089941 0.539160
vt 0.109277 0.539160
vt 0.109277 0.542871
vt 0.089941 0.542871
vt 0.062598 0.543066
vt 0.128809 0.543066
vt 0.128809 0.562402
vt 0.062598 0.562402
vn 0.0000 1.0000 0.0000
vn 0.0000 0.0000 1.0000
vn -1.0000 0.0000 0.0000
vn 0.0000 0.0000 -1.0000
vn 1.0000 0.0000 0.0000
vn 0.0000 1.0000 -0.0002
vn 0.0000 -0.0002 -1.0000
vn 0.0000 -1.0000 0.0002
vn 0.0000 0.0002 1.0000
usemtl Grassland_Tileatlas_01
s off
f 9/1/1 5/2/1 8/3/1 1/4/1
f 4/5/2 2/6/2 5/7/2 9/8/2
f 3/9/3 4/10/3 9/11/3 1/12/3
f 7/13/4 3/14/4 1/15/4 8/16/4
f 2/17/5 7/18/5 8/19/5 5/20/5
f 24/21/6 11/22/6 14/23/6 12/24/6
f 16/25/7 15/26/7 14/27/7 11/28/7
f 27/29/6 26/30/6 15/31/6 16/32/6
f 29/33/7 25/34/7 26/35/7 27/36/7
f 28/37/8 21/38/8 19/39/8 10/40/8
f 17/41/7 6/42/7 19/39/7 21/43/7
f 20/44/5 22/45/5 23/46/5 24/47/5
f 18/48/6 13/49/6 25/50/6 29/51/6
f 33/52/7 32/53/7 13/54/7 18/55/7
f 31/56/8 34/57/8 32/58/8 33/59/8
f 28/60/7 10/61/7 34/62/7 31/63/7
f 12/64/9 30/65/9 20/66/9 24/67/9
f 12/68/3 35/69/3 36/70/3 30/71/3
