# Blender v2.79 (sub 0) OBJ File: 'Sign_Post_01.blend'
# www.blender.org
mtllib Sign_Post_01.mtl
o Cube
v -0.125000 0.937500 -0.125000
v 0.000000 0.000000 0.000000
v -0.125000 0.000000 -0.125000
v -0.125000 0.000000 0.000000
v 0.000000 0.937500 0.000000
v 0.000000 0.681255 -0.267682
v 0.000000 0.000000 -0.125000
v 0.000000 0.937500 -0.125000
v -0.125000 0.937500 0.000000
v 0.000000 0.708379 -0.302574
v 0.031250 0.836294 -0.287101
v 0.000000 0.894548 0.178015
v 0.000000 0.766511 -0.341349
v 0.000000 0.836294 -0.287101
v 0.000000 0.805286 -0.283217
v 0.031250 0.805286 -0.283217
v 0.031250 0.681255 -0.267682
v 0.031250 0.766511 -0.341349
v 0.000000 0.712263 -0.271566
v 0.031249 0.739510 0.197434
v 0.031250 0.712263 -0.271566
v 0.031250 0.673488 -0.329698
v 0.031250 0.828526 -0.349116
v 0.031250 0.894548 0.178015
v 0.000000 0.770394 -0.310341
v 0.000000 0.801402 -0.314225
v 0.031250 0.801402 -0.314225
v 0.031250 0.708379 -0.302574
v 0.031250 0.770394 -0.310341
v 0.031250 0.739387 -0.306457
v 0.000000 0.735503 -0.337465
v 0.031250 0.735503 -0.337465
v 0.000000 0.739387 -0.306457
v 0.000000 0.828530 -0.349117
v 0.000000 0.673491 -0.329699
v 0.000000 0.739510 0.197432
vt 0.000098 0.484473
vt 0.015527 0.484473
vt 0.015527 0.499902
vt 0.000098 0.499902
vt 0.000098 0.496191
vt 0.015527 0.496191
vt 0.015527 0.613184
vt 0.000098 0.613184
vt 0.000098 0.496191
vt 0.015527 0.496191
vt 0.015527 0.613184
vt 0.000098 0.613184
vt 0.000098 0.496191
vt 0.015527 0.496191
vt 0.015527 0.613184
vt 0.000098 0.613184
vt 0.000098 0.496191
vt 0.015527 0.496191
vt 0.015527 0.613184
vt 0.000098 0.613184
vt 0.062598 0.539160
vt 0.120996 0.539160
vt 0.120996 0.542871
vt 0.062598 0.542871
vt 0.121191 0.539160
vt 0.124902 0.539160
vt 0.124902 0.542871
vt 0.121191 0.542871
vt 0.121191 0.539160
vt 0.124902 0.539160
vt 0.124902 0.542871
vt 0.121191 0.542871
vt 0.121191 0.539160
vt 0.124902 0.539160
vt 0.124902 0.542871
vt 0.121191 0.542871
vt 0.105566 0.539160
vt 0.109277 0.539160
vt 0.109277 0.542871
vt 0.105566 0.542871
vt 0.105566 0.539160
vt 0.109277 0.539160
vt 0.105566 0.542871
vt 0.062598 0.543066
vt 0.128809 0.543066
vt 0.128809 0.562402
vt 0.062598 0.562402
vt 0.121191 0.539160
vt 0.124902 0.539160
vt 0.124902 0.542871
vt 0.121191 0.542871
vt 0.121191 0.539160
vt 0.124902 0.539160
vt 0.124902 0.542871
vt 0.121191 0.542871
vt 0.121191 0.539160
vt 0.124902 0.539160
vt 0.124902 0.542871
vt 0.121191 0.542871
vt 0.121191 0.539160
vt 0.124902 0.539160
vt 0.124902 0.542871
vt 0.121191 0.542871
vt 0.089941 0.539160
vt 0.109277 0.539160
vt 0.109277 0.542871
vt 0.089941 0.542871
vt 0.062598 0.543066
vt 0.128809 0.543066
vt 0.128809 0.562402
vt 0.062598 0.562402
vn 0.0000 1.0000 0.0000
vn 0.0000 0.0000 1.0000
vn -1.0000 0.0000 0.0000
vn 0.0000 0.0000 -1.0000
vn 1.0000 0.0000 0.0000
vn 0.0000 0.9922 -0.1243
vn 0.0000 -0.1243 -0.9922
vn 0.0000 -0.9922 0.1243
vn -0.0000 0.1243 0.9922
usemtl Grassland_Tileatlas_01
s off
f 9/1/1 5/2/1 8/3/1 1/4/1
f 4/5/2 2/6/2 5/7/2 9/8/2
f 3/9/3 4/10/3 9/11/3 1/12/3
f 7/13/4 3/14/4 1/15/4 8/16/4
f 2/17/5 7/18/5 8/19/5 5/20/5
f 24/21/6 11/22/6 14/23/6 12/24/6
f 16/25/7 15/26/7 14/27/7 11/28/7
f 27/29/6 26/30/6 15/31/6 16/32/6
f 29/33/7 25/34/7 26/35/7 27/36/7
f 28/37/8 21/38/8 19/39/8 10/40/8
f 17/41/7 6/42/7 19/39/7 21/43/7
f 20/44/5 22/45/5 23/46/5 24/47/5
f 18/48/6 13/49/6 25/50/6 29/51/6
f 32/52/7 31/53/7 13/54/7 18/55/7
f 30/56/8 33/57/8 31/58/8 32/59/8
f 28/60/7 10/61/7 33/62/7 30/63/7
f 12/64/9 36/65/9 20/66/9 24/67/9
f 12/68/3 34/69/3 35/70/3 36/71/3
