# Blender v2.79 (sub 0) OBJ File: 'Rubble_02_Mid.blend'
# www.blender.org
mtllib Rubble_02_Mid.mtl
o Cube
v -0.125000 0.437500 -0.031250
v 0.000000 0.437500 0.000000
v 0.000000 0.468750 -0.031250
v -0.125000 0.437500 0.000000
v -0.125000 0.468750 -0.031250
v -0.125000 0.468750 -0.125000
v -0.125000 0.468750 -0.500000
v 0.000000 0.437500 -0.031250
v -0.125000 0.000000 0.000000
v -0.125000 0.000000 -0.500000
v 0.000000 0.468750 -0.500000
v 0.000000 0.000000 -0.500000
v 0.000000 0.437500 -0.500000
v -0.125000 0.437500 -0.500000
v 0.000000 0.437500 -0.468750
v -0.125000 0.437500 -0.468750
v 0.000000 0.468750 -0.468750
v -0.125000 0.468750 -0.468750
v -0.125000 0.468750 -0.343750
v -0.125000 0.437500 -0.343750
v -0.125000 0.468750 0.000000
v 0.000000 0.468750 -0.343750
v 0.000000 0.437500 -0.343750
v -0.125000 0.468750 -0.156250
v 0.000000 0.437500 -0.125000
v -0.125000 0.437500 -0.312500
v 0.000000 0.437500 -0.312500
v 0.000000 0.468750 -0.125000
v -0.125000 0.437500 -0.156250
v -0.125000 0.437500 -0.125000
v 0.000000 0.437500 -0.156250
v 0.000000 0.468750 -0.312500
v -0.125000 0.468750 -0.312500
v 0.000000 0.468750 -0.156250
v 0.000000 0.000000 0.000000
v 0.000000 0.468750 0.000000
vt 0.078027 0.308691
vt 0.062598 0.308691
vt 0.062598 0.312402
vt 0.078027 0.312402
vt 0.078027 0.308691
vt 0.062598 0.308691
vt 0.062598 0.312402
vt 0.078027 0.312402
vt 0.124902 0.375098
vt 0.062598 0.375098
vt 0.062598 0.433496
vt 0.124902 0.433496
vt 0.062598 0.375098
vt 0.124902 0.375098
vt 0.124902 0.433496
vt 0.062598 0.433496
vt 0.062598 0.296973
vt 0.078027 0.296973
vt 0.078027 0.300684
vt 0.062598 0.300684
vt 0.062598 0.296973
vt 0.078027 0.296973
vt 0.078027 0.300684
vt 0.062598 0.300684
vt 0.082129 0.296973
vt 0.097559 0.296973
vt 0.097559 0.312402
vt 0.082129 0.312402
vt 0.097559 0.296973
vt 0.082129 0.296973
vt 0.082129 0.308496
vt 0.097559 0.308496
vt 0.062598 0.308691
vt 0.078027 0.308691
vt 0.078027 0.312402
vt 0.062598 0.312402
vt 0.062598 0.308691
vt 0.078027 0.308691
vt 0.078027 0.312402
vt 0.062598 0.312402
vt 0.062598 0.308691
vt 0.078027 0.308691
vt 0.078027 0.312402
vt 0.062598 0.312402
vt 0.062598 0.308691
vt 0.078027 0.308691
vt 0.078027 0.312402
vt 0.062598 0.312402
vt 0.062598 0.308691
vt 0.078027 0.308691
vt 0.078027 0.312402
vt 0.062598 0.312402
vt 0.062598 0.308691
vt 0.078027 0.308691
vt 0.078027 0.312402
vt 0.062598 0.312402
vt 0.082129 0.296973
vt 0.097559 0.296973
vt 0.097559 0.316309
vt 0.082129 0.316309
vn 0.0000 1.0000 0.0000
vn 0.0000 0.0000 1.0000
vn -1.0000 0.0000 0.0000
vn 1.0000 0.0000 0.0000
vn 0.0000 0.0000 -1.0000
usemtl Grassland_Tileatlas_01
s off
f 4/1/1 2/2/1 8/3/1 1/4/1
f 1/5/2 8/6/2 3/7/2 5/8/2
f 10/9/3 9/10/3 21/11/3 7/12/3
f 35/13/4 12/14/4 11/15/4 36/16/4
f 13/17/1 14/18/1 16/19/1 15/20/1
f 15/21/5 16/22/5 18/23/5 17/24/5
f 17/25/1 18/26/1 19/27/1 22/28/1
f 28/29/1 6/30/1 5/31/1 3/32/1
f 22/33/2 19/34/2 20/35/2 23/36/2
f 23/37/1 20/38/1 26/39/1 27/40/1
f 27/41/5 26/42/5 33/43/5 32/44/5
f 25/45/5 30/46/5 6/47/5 28/48/5
f 31/49/1 29/50/1 30/51/1 25/52/1
f 34/53/2 24/54/2 29/55/2 31/56/2
f 32/57/1 33/58/1 24/59/1 34/60/1
