# Blender v2.79 (sub 0) OBJ File: 'Rubble_01.blend'
# www.blender.org
mtllib Rubble_01.mtl
o Cube
v -0.125000 0.062500 0.468750
v 0.000000 0.093750 0.437500
v 0.000000 0.375000 0.468750
v 0.000000 0.375000 -0.437500
v -0.125000 0.375000 0.468750
v 0.000000 0.000000 0.468750
v 0.000000 0.125000 0.312500
v 0.000000 0.062500 0.468750
v 0.000000 0.062500 0.437500
v -0.125000 0.062500 0.437500
v 0.000000 0.093750 0.312500
v -0.125000 0.125000 0.312500
v -0.125000 0.093750 0.312500
v -0.125000 0.093750 0.437500
v 0.000000 0.125000 0.281250
v 0.000000 0.156250 0.281250
v -0.125000 0.156250 0.281250
v -0.125000 0.125000 0.281250
v 0.000000 0.156250 0.250000
v -0.125000 0.156250 0.250000
v 0.000000 0.187500 0.250000
v 0.000000 0.187500 0.125000
v 0.000000 0.250000 0.125000
v -0.125000 0.187500 0.250000
v 0.000000 0.281250 0.093750
v -0.125000 0.187500 0.125000
v -0.125000 0.250000 0.093750
v -0.125000 0.250000 0.125000
v 0.000000 0.250000 0.093750
v -0.125000 0.281250 0.093750
v 0.000000 0.281250 0.125000
v 0.000000 0.343750 0.125000
v 0.000000 0.343750 0.093750
v -0.125000 0.281250 0.125000
v 0.000000 0.375000 0.093750
v -0.125000 0.343750 0.125000
v -0.125000 0.343750 -0.187500
v -0.125000 0.343750 0.093750
v -0.125000 0.375000 -0.062500
v -0.125000 0.375000 0.093750
v 0.000000 0.343750 -0.031250
v -0.125000 0.375000 -0.031250
v 0.000000 0.375000 -0.187500
v -0.125000 0.375000 -0.187500
v 0.000000 0.343750 -0.187500
v 0.000000 0.375000 -0.031250
v -0.125000 0.343750 -0.062500
v -0.125000 0.343750 -0.031250
v 0.000000 0.343750 -0.062500
v 0.000000 0.375000 -0.062500
v 0.000000 0.343750 -0.218750
v -0.125000 0.343750 -0.218750
v -0.125000 0.281250 -0.312500
v 0.000000 0.281250 -0.312500
v -0.125000 0.281250 -0.218750
v 0.000000 0.281250 -0.218750
v -0.125000 0.250000 -0.343750
v -0.125000 0.062500 -0.375000
v -0.125000 0.250000 -0.312500
v 0.000000 0.250000 -0.312500
v 0.000000 0.187500 -0.343750
v -0.125000 0.187500 -0.343750
v 0.000000 0.093750 -0.343750
v 0.000000 0.250000 -0.343750
v -0.125000 0.000000 -0.437500
v 0.000000 0.156250 -0.343750
v -0.125000 0.156250 -0.343750
v -0.125000 0.187500 -0.312500
v -0.125000 0.156250 -0.312500
v -0.125000 0.093750 -0.343750
v -0.125000 0.093750 -0.375000
v 0.000000 0.187500 -0.312500
v 0.000000 0.093750 -0.375000
v 0.000000 0.156250 -0.312500
v -0.125000 0.062500 -0.406250
v -0.125000 0.031250 -0.437500
v 0.000000 0.031250 -0.406250
v 0.000000 0.062500 -0.375000
v -0.125000 0.000000 0.468750
v 0.000000 0.062500 -0.406250
v -0.125000 0.031250 -0.406250
v 0.000000 0.000000 -0.437500
v 0.000000 0.031250 -0.437500
v -0.125000 0.375000 -0.437500
vt 0.062598 0.296973
vt 0.078027 0.296973
vt 0.078027 0.304590
vt 0.062598 0.304590
vt 0.011816 0.312598
vt 0.124902 0.312598
vt 0.124902 0.359277
vt 0.011816 0.359277
vt 0.062598 0.308691
vt 0.078027 0.308691
vt 0.078027 0.312402
vt 0.062598 0.312402
vt 0.062598 0.308691
vt 0.078027 0.308691
vt 0.078027 0.312402
vt 0.062598 0.312402
vt 0.082129 0.296973
vt 0.097559 0.296973
vt 0.097559 0.312402
vt 0.082129 0.312402
vt 0.062598 0.308691
vt 0.078027 0.308691
vt 0.078027 0.312402
vt 0.062598 0.312402
vt 0.082129 0.300879
vt 0.097559 0.300879
vt 0.097559 0.304590
vt 0.082129 0.304590
vt 0.101660 0.304785
vt 0.117090 0.304785
vt 0.117090 0.308496
vt 0.101660 0.308496
vt 0.082129 0.300879
vt 0.097559 0.300879
vt 0.097559 0.304590
vt 0.082129 0.304590
vt 0.062598 0.308691
vt 0.078027 0.308691
vt 0.078027 0.312402
vt 0.062598 0.312402
vt 0.101660 0.296973
vt 0.117090 0.296973
vt 0.117090 0.312402
vt 0.101660 0.312402
vt 0.062598 0.296973
vt 0.078027 0.296973
vt 0.078027 0.304590
vt 0.062598 0.304590
vt 0.062598 0.308691
vt 0.078027 0.308691
vt 0.078027 0.312402
vt 0.062598 0.312402
vt 0.097559 0.300879
vt 0.082129 0.300879
vt 0.082129 0.304590
vt 0.097559 0.304590
vt 0.062598 0.308691
vt 0.078027 0.308691
vt 0.078027 0.312402
vt 0.062598 0.312402
vt 0.062598 0.296973
vt 0.078027 0.296973
vt 0.078027 0.304590
vt 0.062598 0.304590
vt 0.062598 0.308691
vt 0.078027 0.308691
vt 0.078027 0.312402
vt 0.062598 0.312402
vt 0.062598 0.308691
vt 0.078027 0.308691
vt 0.078027 0.312402
vt 0.062598 0.312402
vt 0.082129 0.296973
vt 0.097559 0.296973
vt 0.097559 0.312402
vt 0.082129 0.312402
vt 0.082129 0.296973
vt 0.097559 0.296973
vt 0.097559 0.312402
vt 0.082129 0.312402
vt 0.062598 0.308691
vt 0.078027 0.308691
vt 0.078027 0.312402
vt 0.062598 0.312402
vt 0.082129 0.304590
vt 0.097559 0.304590
vt 0.097559 0.300879
vt 0.082129 0.300879
vt 0.062598 0.308691
vt 0.078027 0.308691
vt 0.078027 0.312402
vt 0.062598 0.312402
vt 0.062598 0.308691
vt 0.078027 0.308691
vt 0.078027 0.312402
vt 0.062598 0.312402
vt 0.062598 0.308691
vt 0.078027 0.308691
vt 0.078027 0.312402
vt 0.062598 0.312402
vt 0.062598 0.296973
vt 0.078027 0.296973
vt 0.078027 0.304590
vt 0.062598 0.304590
vt 0.101660 0.300879
vt 0.117090 0.300879
vt 0.117090 0.312402
vt 0.101660 0.312402
vt 0.062598 0.308691
vt 0.078027 0.308691
vt 0.078027 0.312402
vt 0.062598 0.312402
vt 0.062598 0.308691
vt 0.078027 0.308691
vt 0.078027 0.312402
vt 0.062598 0.312402
vt 0.082129 0.296973
vt 0.097559 0.296973
vt 0.097559 0.304590
vt 0.082129 0.304590
vt 0.082129 0.296973
vt 0.097559 0.296973
vt 0.097559 0.304590
vt 0.082129 0.304590
vt 0.062598 0.308691
vt 0.078027 0.308691
vt 0.078027 0.312402
vt 0.062598 0.312402
vt 0.097559 0.300879
vt 0.082129 0.300879
vt 0.082129 0.304590
vt 0.097559 0.304590
vt 0.062598 0.308691
vt 0.078027 0.308691
vt 0.078027 0.312402
vt 0.062598 0.312402
vt 0.062598 0.308691
vt 0.078027 0.308691
vt 0.078027 0.312402
vt 0.062598 0.312402
vt 0.082129 0.300879
vt 0.097559 0.300879
vt 0.097559 0.304590
vt 0.082129 0.304590
vt 0.101660 0.304785
vt 0.117090 0.304785
vt 0.117090 0.308496
vt 0.101660 0.308496
vt 0.117090 0.304785
vt 0.101660 0.304785
vt 0.101660 0.308496
vt 0.117090 0.308496
vt 0.082129 0.304590
vt 0.097559 0.304590
vt 0.097559 0.304590
vt 0.082129 0.304590
vt 0.062598 0.308691
vt 0.078027 0.308691
vt 0.078027 0.312402
vt 0.062598 0.312402
vt 0.124902 0.312598
vt 0.011816 0.312598
vt 0.011816 0.359277
vt 0.124902 0.359277
vn 0.0000 0.0000 1.0000
vn 1.0000 0.0000 0.0000
vn 0.0000 1.0000 0.0000
vn 0.0000 -1.0000 0.0000
vn 0.0000 0.0000 -1.0000
vn -1.0000 0.0000 0.0000
usemtl Grassland_Tileatlas_01
s off
f 79/1/1 6/2/1 8/3/1 1/4/1
f 6/5/2 82/6/2 4/7/2 3/8/2
f 1/9/3 8/10/3 9/11/3 10/12/3
f 10/13/1 9/14/1 2/15/1 14/16/1
f 14/17/3 2/18/3 11/19/3 13/20/3
f 13/21/1 11/22/1 7/23/1 12/24/1
f 12/25/3 7/26/3 15/27/3 18/28/3
f 18/29/1 15/30/1 16/31/1 17/32/1
f 17/33/3 16/34/3 19/35/3 20/36/3
f 20/37/1 19/38/1 21/39/1 24/40/1
f 24/41/3 21/42/3 22/43/3 26/44/3
f 26/45/1 22/46/1 23/47/1 28/48/1
f 28/49/3 23/50/3 29/51/3 27/52/3
f 27/53/1 29/54/1 25/55/1 30/56/1
f 30/57/4 25/58/4 31/59/4 34/60/4
f 34/61/1 31/62/1 32/63/1 36/64/1
f 36/65/3 32/66/3 33/67/3 38/68/3
f 38/69/1 33/70/1 35/71/1 40/72/1
f 40/73/3 35/74/3 46/75/3 42/76/3
f 39/77/3 50/78/3 43/79/3 44/80/3
f 42/81/5 46/82/5 41/83/5 48/84/5
f 48/85/3 41/86/3 49/87/3 47/88/3
f 47/89/1 49/90/1 50/91/1 39/92/1
f 44/93/5 43/94/5 45/95/5 37/96/5
f 37/97/3 45/98/3 51/99/3 52/100/3
f 56/101/5 55/102/5 52/103/5 51/104/5
f 54/105/3 53/106/3 55/107/3 56/108/3
f 60/109/5 59/110/5 53/111/5 54/112/5
f 64/113/3 57/114/3 59/115/3 60/116/3
f 61/117/5 62/118/5 57/119/5 64/120/5
f 63/121/5 70/122/5 67/123/5 66/124/5
f 72/125/4 68/126/4 62/127/4 61/128/4
f 74/129/5 69/130/5 68/131/5 72/132/5
f 66/133/3 67/134/3 69/135/3 74/136/3
f 73/137/3 71/138/3 70/139/3 63/140/3
f 78/141/5 58/142/5 71/143/5 73/144/5
f 80/145/3 75/146/3 58/147/3 78/148/3
f 77/149/5 81/150/5 75/151/5 80/152/5
f 83/153/3 76/154/3 81/155/3 77/156/3
f 82/157/5 65/158/5 76/159/5 83/160/5
f 65/161/6 79/162/6 5/163/6 84/164/6
