# Blender v2.79 (sub 0) OBJ File: 'House_Stone_03.blend'
# www.blender.org
mtllib House_Stone_03.mtl
o Cube
v 0.250000 2.000000 1.000000
v 0.000000 3.000000 -1.000000
v -1.000000 2.000000 1.000000
v 0.000000 2.000000 1.000000
v -2.000000 3.000000 1.000000
v 0.000000 0.000000 1.000000
v -2.000000 3.000000 -1.000000
v -2.000000 1.000000 1.000000
v 0.000000 1.000000 1.000000
v -1.000000 0.000000 1.000000
v -2.000000 0.000000 1.000000
v -1.000000 2.000000 -1.000000
v 0.000000 3.000000 1.000000
v -1.000000 1.000000 -1.000000
v -1.000000 0.000000 -1.000000
v -2.000000 1.000000 -1.000000
v -2.000000 2.000000 1.000000
v 0.000000 1.000000 -1.000000
v 0.000000 0.000000 -1.000000
v 0.000000 1.000000 0.000000
v -0.750000 3.250000 -1.000000
v 0.000000 0.000000 0.000000
v -1.000000 1.000000 1.000000
v -2.000000 0.000000 -1.000000
v -2.000000 0.000000 0.000000
v -1.000000 3.000000 -1.000000
v -0.750000 3.000000 -1.000000
v -2.000000 1.000000 0.000000
v -1.250000 3.000000 -1.000000
v -1.250000 3.250000 -1.000000
v -1.000000 3.250000 -1.000000
v -1.250000 3.000000 1.000000
v -1.000000 3.000000 1.000000
v -1.000000 3.250000 1.000000
v -1.250000 3.250000 1.000000
v -0.750000 3.000000 1.000000
v -0.750000 3.250000 1.000000
v 0.250000 2.000000 -1.000000
v 0.250000 2.250000 1.000000
v -2.250000 2.000000 -1.000000
v -2.250000 2.250000 -1.000000
v -2.250000 2.000000 1.000000
v 0.250000 2.250000 -1.000000
v -2.250000 2.250000 1.000000
v 0.000000 2.250000 1.000000
v 0.000000 2.000000 0.000000
v 0.000000 2.000000 -1.000000
v 0.000000 2.250000 -1.000000
v -2.000000 2.000000 -1.000000
v -2.000000 2.000000 0.000000
v -2.000000 2.250000 1.000000
v -1.127975 3.106687 1.000000
v -1.127975 3.106687 0.000000
v -0.877975 3.106687 0.000000
v -0.877975 3.106687 1.000000
v -0.877975 3.106687 -1.000000
v 0.000000 2.250000 0.000000
v -2.000000 2.250000 -1.000000
v -2.000000 2.250000 0.000000
v -1.127975 3.106687 -1.000000
v -1.500000 0.000000 1.002000
v -1.000000 0.000000 1.002000
v -1.000000 0.500000 1.002000
v -1.500000 0.500000 1.002000
v -1.000000 0.000000 1.002000
v -0.500000 0.000000 1.002000
v -0.500000 0.500000 1.002000
v -1.000000 0.500000 1.002000
v -1.500000 0.500000 1.002000
v -1.000000 0.500000 1.002000
v -1.000000 1.000000 1.002000
v -1.500000 1.000000 1.002000
v -1.000000 0.500000 1.002000
v -0.500000 0.500000 1.002000
v -0.500000 1.000000 1.002000
v -1.000000 1.000000 1.002000
v -1.500000 1.000000 1.002000
v -1.000000 1.000000 1.002000
v -1.000000 1.500000 1.002000
v -1.500000 1.500000 1.002000
v -1.000000 1.000000 1.002000
v -0.500000 1.000000 1.002000
v -0.500000 1.500000 1.002000
v -1.000000 1.500000 1.002000
vt 0.187549 0.812549
vt 0.249951 0.812549
vt 0.249951 0.874951
vt 0.187549 0.874951
vt 0.125049 0.812549
vt 0.125049 0.874951
vt 0.187549 0.812549
vt 0.249951 0.812549
vt 0.249951 0.874951
vt 0.187549 0.874951
vt 0.125049 0.812549
vt 0.125049 0.874951
vt 0.375049 0.687549
vt 0.437451 0.687549
vt 0.437451 0.749951
vt 0.375049 0.749951
vt 0.250049 0.687549
vt 0.312451 0.687549
vt 0.312451 0.749951
vt 0.250049 0.749951
vt 0.062549 0.562549
vt 0.124951 0.562549
vt 0.124951 0.624951
vt 0.062549 0.624951
vt 0.000049 0.562549
vt 0.000049 0.624951
vt 0.375049 0.687549
vt 0.437451 0.687549
vt 0.437451 0.749951
vt 0.375049 0.749951
vt 0.250049 0.687549
vt 0.312451 0.687549
vt 0.312451 0.749951
vt 0.250049 0.749951
vt 0.062549 0.562549
vt 0.124951 0.562549
vt 0.124951 0.624951
vt 0.062549 0.624951
vt 0.000049 0.562549
vt 0.000049 0.624951
vt 0.375049 0.687549
vt 0.437451 0.687549
vt 0.437451 0.749951
vt 0.375049 0.749951
vt 0.250049 0.687549
vt 0.312451 0.687549
vt 0.312451 0.749951
vt 0.250049 0.749951
vt 0.062549 0.562549
vt 0.124951 0.562549
vt 0.124951 0.624951
vt 0.062549 0.624951
vt 0.000049 0.562549
vt 0.000049 0.624951
vt 0.000049 0.562549
vt 0.062451 0.562549
vt 0.062451 0.624951
vt 0.000049 0.624951
vt 0.250049 0.687549
vt 0.312451 0.687549
vt 0.312451 0.749951
vt 0.250049 0.749951
vt 0.124951 0.562549
vt 0.124951 0.624951
vt 0.375049 0.687549
vt 0.437451 0.687549
vt 0.437451 0.749951
vt 0.375049 0.749951
vt 0.046924 0.812549
vt 0.062451 0.812549
vt 0.062451 0.828076
vt 0.046924 0.828076
vt 0.078076 0.812549
vt 0.078076 0.828076
vt 0.046924 0.812549
vt 0.062451 0.812549
vt 0.062451 0.828076
vt 0.046924 0.828076
vt 0.078076 0.812549
vt 0.078076 0.828076
vt 0.453076 0.750049
vt 0.453076 0.765576
vt 0.437549 0.765576
vt 0.453076 0.750049
vt 0.453076 0.765576
vt 0.437549 0.765576
vt 0.234424 0.750049
vt 0.249951 0.765576
vt 0.234424 0.765576
vt 0.234424 0.750049
vt 0.249951 0.765576
vt 0.234424 0.765576
vt 0.187549 0.875049
vt 0.249951 0.875049
vt 0.249951 0.890576
vt 0.187549 0.890576
vt 0.187549 0.875049
vt 0.249951 0.875049
vt 0.249951 0.890576
vt 0.187549 0.890576
vt 0.187549 0.875049
vt 0.249951 0.875049
vt 0.249951 0.890576
vt 0.187549 0.890576
vt 0.187549 0.875049
vt 0.249951 0.875049
vt 0.249951 0.890576
vt 0.187549 0.890576
vt 0.187549 0.937549
vt 0.249951 0.937549
vt 0.249951 0.999951
vt 0.187549 0.999951
vt 0.187549 0.937549
vt 0.249951 0.937549
vt 0.249951 0.999951
vt 0.187549 0.999951
vt 0.249951 0.999951
vt 0.187549 0.999951
vt 0.187549 0.937549
vt 0.249951 0.937549
vt 0.249951 0.999951
vt 0.187549 0.999951
vt 0.187549 0.937549
vt 0.249951 0.937549
vt 0.000049 0.875049
vt 0.015576 0.875049
vt 0.015576 0.937451
vt 0.000049 0.937451
vt 0.000049 0.875049
vt 0.015576 0.875049
vt 0.015576 0.937451
vt 0.000049 0.937451
vt 0.468799 0.375049
vt 0.499951 0.375049
vt 0.499951 0.406201
vt 0.468799 0.406201
vt 0.500049 0.375049
vt 0.531201 0.375049
vt 0.531201 0.406201
vt 0.500049 0.406201
vt 0.468799 0.406299
vt 0.499951 0.406299
vt 0.499951 0.437451
vt 0.468799 0.437451
vt 0.500049 0.406299
vt 0.531201 0.406299
vt 0.531201 0.437451
vt 0.500049 0.437451
vt 0.468799 0.437549
vt 0.499951 0.437549
vt 0.499951 0.468701
vt 0.468799 0.468701
vt 0.500049 0.437549
vt 0.531201 0.437549
vt 0.531201 0.468701
vt 0.500049 0.468701
vn 0.0000 0.0000 -1.0000
vn 0.0000 0.0000 1.0000
vn 1.0000 0.0000 0.0000
vn -1.0000 0.0000 0.0000
vn -0.7008 0.7134 0.0000
vn 0.6984 0.7157 0.0000
vn 0.0000 1.0000 0.0000
usemtl Sprytile_Set_Town_01
s off
f 12/1/1 49/2/1 7/3/1 26/4/1
f 47/5/1 12/1/1 26/4/1 2/6/1
f 3/7/2 4/8/2 13/9/2 33/10/2
f 17/11/2 3/7/2 33/10/2 5/12/2
f 23/13/2 9/14/2 4/15/2 3/16/2
f 8/17/2 23/18/2 3/19/2 17/20/2
f 10/21/2 6/22/2 9/23/2 23/24/2
f 11/25/2 10/21/2 23/24/2 8/26/2
f 14/27/1 16/28/1 49/29/1 12/30/1
f 18/31/1 14/32/1 12/33/1 47/34/1
f 15/35/1 24/36/1 16/37/1 14/38/1
f 19/39/1 15/35/1 14/38/1 18/40/1
f 20/41/3 18/42/3 47/43/3 46/44/3
f 9/45/3 20/46/3 46/47/3 4/48/3
f 22/49/3 19/50/3 18/51/3 20/52/3
f 6/53/3 22/49/3 20/52/3 9/54/3
f 24/55/4 25/56/4 28/57/4 16/58/4
f 16/59/4 28/60/4 50/61/4 49/62/4
f 25/56/4 11/63/4 8/64/4 28/57/4
f 28/65/4 8/66/4 17/67/4 50/68/4
f 27/69/1 26/70/1 31/71/1 21/72/1
f 26/70/1 29/73/1 30/74/1 31/71/1
f 32/75/2 33/76/2 34/77/2 35/78/2
f 33/76/2 36/79/2 37/80/2 34/77/2
f 4/15/2 1/81/2 39/82/2 45/83/2
f 49/29/1 40/84/1 41/85/1 58/86/1
f 38/87/1 47/34/1 48/88/1 43/89/1
f 42/90/2 17/20/2 51/91/2 44/92/2
f 4/93/3 46/94/3 57/95/3 45/96/3
f 46/97/3 47/98/3 48/99/3 57/100/3
f 49/101/4 50/102/4 59/103/4 58/104/4
f 50/105/4 17/106/4 51/107/4 59/108/4
f 59/109/5 51/110/5 52/111/5 53/112/5
f 45/113/6 57/114/6 54/115/6 55/116/6
f 56/117/6 54/118/6 57/119/6 48/120/6
f 53/121/5 60/122/5 58/123/5 59/124/5
f 53/125/7 54/126/7 56/127/7 60/128/7
f 52/129/7 55/130/7 54/131/7 53/132/7
f 61/133/2 62/134/2 63/135/2 64/136/2
f 65/137/2 66/138/2 67/139/2 68/140/2
f 69/141/2 70/142/2 71/143/2 72/144/2
f 73/145/2 74/146/2 75/147/2 76/148/2
f 77/149/2 78/150/2 79/151/2 80/152/2
f 81/153/2 82/154/2 83/155/2 84/156/2
