# Blender v2.79 (sub 0) OBJ File: 'House_Side_Extension_01.blend'
# www.blender.org
mtllib House_Side_Extension_01.mtl
o Cube
v -2.000000 0.000000 -1.125000
v -2.125000 1.000000 -2.999628
v -2.125000 0.000000 -1.125000
v -5.000768 2.077904 -2.000000
v -3.000000 2.250000 -1.000000
v -5.000000 1.669117 -2.999628
v -5.000000 1.919117 -2.999628
v -5.000000 2.000000 -1.000000
v -2.000000 2.000000 -1.000000
v -2.000000 1.827904 -2.000000
v -2.125000 0.000000 -2.999628
v -2.000000 2.078192 -2.000000
v -2.000000 1.919117 -2.999628
v -2.000000 1.000000 -1.000000
v -2.000000 2.000000 -1.125000
v -2.000000 0.000000 -1.000000
v -2.125000 1.000000 -1.125000
v -2.000000 0.000000 -2.874628
v -2.000000 0.000000 -2.999628
v -2.000000 1.000000 -2.874628
v -2.000000 1.000000 -2.999628
v -2.000000 1.669117 -2.999628
v -2.000000 1.691375 -2.874628
v -2.125000 1.668232 -2.999628
v -2.000000 1.668232 -2.999628
v -2.000000 1.000000 -1.125000
v -2.125000 2.000000 -1.125000
v -3.000000 1.669117 -2.999628
v -3.000000 1.919117 -2.999628
v -4.874340 2.000000 -1.000000
v -4.000000 1.669117 -2.999628
v -5.000768 1.827904 -2.000000
v -4.000000 1.919117 -2.999628
v -4.999340 0.000000 -2.999628
v -2.000000 2.250000 -1.000000
v -3.000000 2.078192 -2.000000
v -4.000000 2.078838 -1.999488
v -5.000000 2.250000 -1.000000
v -4.000000 2.250000 -1.000000
v -4.999340 0.000000 -1.125000
v -4.999340 1.000000 -2.999628
v -4.874340 2.000000 -1.125000
v -4.874340 0.000000 -1.125000
v -4.874340 1.000000 -1.000000
v -4.874340 0.000000 -1.000000
v -4.999340 1.000000 -1.125000
v -4.874340 0.000000 -2.874628
v -4.874340 0.000000 -2.999628
v -4.874340 1.000000 -2.874628
v -4.874340 1.000000 -2.999628
v -4.874340 1.669117 -2.999628
v -4.874340 1.691375 -2.874628
v -4.999340 1.668232 -2.999628
v -4.874340 1.668232 -2.999628
v -4.874340 1.000000 -1.125000
v -4.999340 2.000000 -1.125000
vt 0.500049 0.750049
vt 0.562451 0.750049
vt 0.562451 0.765576
vt 0.500049 0.765576
vt 0.625049 0.750049
vt 0.687451 0.750049
vt 0.687451 0.765576
vt 0.625049 0.765576
vt 0.500049 0.687549
vt 0.507764 0.687549
vt 0.507764 0.749951
vt 0.500049 0.625049
vt 0.507764 0.625049
vt 0.500049 0.625049
vt 0.507764 0.625049
vt 0.507764 0.687451
vt 0.500049 0.687451
vt 0.507764 0.749951
vt 0.500049 0.749951
vt 0.500049 0.625049
vt 0.507764 0.625049
vt 0.507764 0.687451
vt 0.500049 0.687451
vt 0.507764 0.749951
vt 0.500049 0.749951
vt 0.500049 0.625049
vt 0.507764 0.625049
vt 0.507764 0.687451
vt 0.500049 0.687451
vt 0.507764 0.749951
vt 0.500049 0.749951
vt 0.500049 0.750049
vt 0.562451 0.750049
vt 0.562451 0.765576
vt 0.500049 0.765576
vt 0.624951 0.750049
vt 0.624951 0.765576
vt 0.687451 0.750049
vt 0.687451 0.765576
vt 0.625049 0.750049
vt 0.625049 0.765576
vt 0.500049 0.750049
vt 0.562451 0.750049
vt 0.562451 0.765576
vt 0.500049 0.765576
vt 0.187549 0.937549
vt 0.249951 0.937549
vt 0.249951 0.999951
vt 0.187549 0.999951
vt 0.187549 0.937549
vt 0.249951 0.937549
vt 0.249951 0.999951
vt 0.187549 0.999951
vt 0.187549 0.937549
vt 0.249951 0.937549
vt 0.249951 0.999951
vt 0.187549 0.999951
vt 0.187549 0.937549
vt 0.249951 0.937549
vt 0.249951 0.999951
vt 0.187549 0.999951
vt 0.187549 0.937549
vt 0.249951 0.937549
vt 0.249951 0.999951
vt 0.187549 0.999951
vt 0.187549 0.937549
vt 0.249951 0.937549
vt 0.249951 0.999951
vt 0.187549 0.999951
vt 0.500049 0.687549
vt 0.507764 0.687549
vt 0.507764 0.749951
vt 0.500049 0.749951
vt 0.500049 0.625049
vt 0.507764 0.625049
vt 0.500049 0.625049
vt 0.507764 0.625049
vt 0.507764 0.687451
vt 0.500049 0.687451
vt 0.507764 0.749951
vt 0.500049 0.749951
vt 0.500049 0.625049
vt 0.507764 0.625049
vt 0.507764 0.687451
vt 0.500049 0.687451
vt 0.507764 0.749951
vt 0.500049 0.749951
vt 0.500049 0.625049
vt 0.507764 0.625049
vt 0.507764 0.687451
vt 0.500049 0.687451
vt 0.507764 0.749951
vt 0.500049 0.749951
vn 1.0000 0.0000 0.0000
vn 0.0000 0.0000 -1.0000
vn 1.0000 0.0000 0.0008
vn 1.0000 0.0000 -0.0008
vn 0.0000 0.9856 -0.1693
vn 0.0000 0.9876 -0.1572
vn -0.0004 0.9856 -0.1692
vn 0.0003 0.9856 -0.1691
vn 0.0003 0.9875 -0.1574
vn -0.0004 0.9876 -0.1573
usemtl Sprytile_Set_Town_01
s off
f 9/1/1 10/2/1 12/3/1 35/4/1
f 10/5/1 22/6/1 13/7/1 12/8/1
f 14/9/1 26/10/1 15/11/1 9/1/1
f 16/12/1 1/13/1 26/10/1 14/9/1
f 18/14/1 19/15/1 21/16/1 20/17/1
f 20/17/1 21/16/1 22/18/1 23/19/1
f 19/20/2 11/21/2 2/22/2 21/23/2
f 21/23/2 2/22/2 24/24/2 25/25/2
f 1/26/2 3/27/2 17/28/2 26/29/2
f 26/29/2 17/28/2 27/30/2 15/31/2
f 22/32/2 28/33/2 29/34/2 13/35/2
f 28/33/2 31/36/2 33/37/2 29/34/2
f 31/36/2 6/38/2 7/39/2 33/37/2
f 32/40/3 6/38/3 7/39/3 4/41/3
f 8/42/4 32/43/4 4/44/4 38/45/4
f 12/46/5 36/47/5 5/48/5 35/49/5
f 13/50/6 29/51/6 36/52/6 12/53/6
f 37/54/7 4/55/7 38/56/7 39/57/7
f 36/58/8 37/59/8 39/60/8 5/61/8
f 29/62/9 33/63/9 37/64/9 36/65/9
f 33/66/10 7/67/10 4/68/10 37/69/10
f 44/70/1 55/71/1 42/72/1 30/73/1
f 45/74/1 43/75/1 55/71/1 44/70/1
f 47/76/1 48/77/1 50/78/1 49/79/1
f 49/79/1 50/78/1 51/80/1 52/81/1
f 48/82/2 34/83/2 41/84/2 50/85/2
f 50/85/2 41/84/2 53/86/2 54/87/2
f 43/88/2 40/89/2 46/90/2 55/91/2
f 55/91/2 46/90/2 56/92/2 42/93/2
