# Blender v2.79 (sub 0) OBJ File: 'House_Stone_02.blend'
# www.blender.org
mtllib House_Stone_02.mtl
o Cube
v 0.000000 1.000000 2.000000
v 0.000000 0.000000 1.000000
v 0.000000 1.000000 -1.000000
v -1.000000 1.000000 2.000000
v 0.000000 4.000000 2.000000
v 0.000000 0.000000 -1.000000
v 0.000000 0.000000 0.000000
v -3.000000 1.000000 2.000000
v 0.000000 1.000000 0.000000
v 0.000000 1.000000 1.000000
v 0.000000 0.000000 2.000000
v -1.000000 0.000000 2.000000
v -2.000000 0.000000 2.000000
v -2.000000 1.000000 2.000000
v -3.000000 0.000000 2.000000
v -4.000000 1.000000 2.000000
v -4.000000 0.000000 2.000000
v -4.000000 1.750000 -1.250000
v 0.000000 2.000000 2.000000
v -5.000000 0.000000 2.000000
v -5.000000 0.000000 0.000000
v -4.000000 1.000000 -1.000000
v -5.000000 0.000000 1.000000
v -2.000000 1.000000 -1.000000
v -5.000000 1.000000 2.000000
v -3.000000 1.000000 -1.000000
v -5.000000 1.000000 -1.000000
v -3.000000 4.674540 0.403811
v -5.000000 1.000000 1.000000
v -5.000000 0.000000 -1.000000
v -4.000000 0.000000 -1.000000
v -5.000000 1.000000 0.000000
v -2.000000 0.000000 -1.000000
v -3.000000 0.000000 -1.000000
v 0.000000 5.000000 0.000000
v -1.000000 0.000000 -1.000000
v -3.000000 1.750000 2.000000
v -1.000000 1.000000 -1.000000
v 0.000000 4.000000 -1.000000
v -5.000000 4.000000 0.000000
v -1.000000 1.750000 2.000000
v -5.000000 2.000000 1.000000
v -3.000000 2.000000 2.250000
v -5.000000 2.000000 0.000000
v 0.002000 0.000000 1.000000
v 0.002000 0.000000 0.000000
v 0.002000 1.000000 1.000000
v 0.002000 1.000000 0.000000
v 0.000000 2.000000 -1.000000
v -3.000000 2.000000 -1.000000
v 0.000000 2.000000 1.000000
v 0.000000 3.000000 1.000000
v 0.000000 2.000000 0.000000
v 0.000000 3.000000 0.000000
v -4.000000 2.000000 -1.250000
v -2.000000 3.962270 -0.298094
v 0.000000 3.000000 -1.000000
v -2.000000 2.000000 -1.000000
v -5.000000 2.000000 2.000000
v -3.000000 3.961198 1.297009
v -1.000000 2.000000 -1.000000
v -2.000000 3.000000 2.000000
v -5.000000 2.000000 -1.000000
v 0.000000 4.000000 0.000000
v 0.000000 3.000000 2.250000
v -5.000000 4.000000 2.000000
v -5.000000 3.000000 0.000000
v -5.000000 4.000000 -0.250000
v 0.000000 4.000000 1.000000
v -5.000000 3.000000 2.000000
v -5.000000 4.000000 -1.000000
v -5.000000 4.000000 1.000000
v -5.000000 3.000000 1.000000
v 0.000000 4.000000 1.250000
v 0.000000 5.000000 1.000000
v -5.000000 5.000000 1.000000
v -5.000000 5.000000 0.000000
v 0.000000 4.250000 1.000000
v 0.000000 4.250000 1.250000
v 0.000000 4.000000 -0.250000
v 0.000000 4.250000 -0.250000
v 0.000000 4.250000 0.000000
v -5.000000 4.000000 1.250000
v -5.000000 4.250000 1.250000
v -5.000000 4.250000 1.000000
v -5.000000 3.000000 -1.250000
v -5.000000 4.250000 0.000000
v -5.000000 4.250000 -0.250000
v -5.000000 3.000000 -1.000000
v -5.000000 3.250000 -1.250000
v -1.000000 3.250000 -1.000000
v 0.000000 3.962270 -0.298094
v -5.000000 4.674540 0.403811
v 0.000000 3.000000 -1.250000
v 0.000000 3.250000 -1.250000
v -2.000000 3.000000 -1.000000
v 0.000000 3.250000 2.250000
v -4.000000 3.000000 -1.000000
v -4.000000 3.250000 2.000000
v -1.000000 3.000000 -1.000000
v 0.000000 3.250000 -1.000000
v -3.000000 3.250000 -1.000000
v -3.000000 3.000000 2.000000
v -3.000000 3.000000 -1.000000
v -2.000000 3.250000 -1.000000
v -5.000000 3.000000 2.250000
v -5.000000 3.250000 2.000000
v 0.000000 3.000000 2.000000
v -5.000000 3.250000 2.250000
v -4.000000 3.000000 2.000000
v -3.000000 3.962270 -0.298094
v -1.000000 3.000000 2.000000
v -2.000000 4.674540 0.403811
v -1.000000 3.962270 -0.298094
v -1.000000 4.674540 0.403811
v 0.000000 4.674540 0.403811
v -5.000000 3.250000 -1.000000
v -4.000000 3.250000 -1.000000
v -4.000000 4.674540 0.403811
v -5.000000 3.962270 -0.298094
v -4.000000 3.962270 -0.298094
v -1.000000 4.672397 0.594017
v 0.000000 3.250000 2.000000
v 0.000000 3.961198 1.297009
v -2.000000 4.672397 0.594017
v -1.000000 3.961198 1.297009
v -2.000000 3.961198 1.297009
v -3.000000 3.250000 2.000000
v -2.000000 3.250000 2.000000
v -5.000000 4.672397 0.594017
v -5.000000 3.961198 1.297009
v -4.000000 3.961198 1.297009
v 0.000000 4.672397 0.594017
v -1.000000 3.250000 2.000000
v -3.000000 4.672397 0.594017
v -4.000000 4.672397 0.594017
v 0.250000 1.750000 1.000000
v 0.250000 2.000000 0.000000
v -2.000000 2.000000 2.000000
v -3.000000 1.750000 2.250000
v -5.000000 3.250000 -1.250000
v 0.000000 1.750000 0.000000
v 0.250000 2.000000 1.000000
v 0.250000 1.750000 0.000000
v -1.000000 2.000000 -1.250000
v -4.000000 2.000000 2.250000
v -2.000000 2.000000 2.250000
v -4.000000 2.000000 2.000000
v -4.000000 2.000000 -1.000000
v -3.000000 2.000000 -1.250000
v -5.000000 3.250000 -1.000000
v -5.000000 3.000000 -1.000000
v -2.000000 2.000000 -1.250000
v -3.000000 1.750000 -1.250000
v -5.000000 3.000000 -1.250000
v -2.000000 1.750000 2.250000
v -3.000000 2.000000 2.000000
v -1.000000 1.750000 2.250000
v -1.000000 1.750000 -1.250000
v -2.000000 1.750000 2.000000
v -4.000000 1.750000 2.000000
v 0.000000 1.750000 1.000000
v -2.000000 1.750000 -1.250000
v -4.000000 1.750000 2.250000
v -1.000000 1.750000 -1.000000
v -2.000000 1.750000 -1.000000
v -3.000000 1.750000 -1.000000
v -4.000000 1.750000 -1.000000
v -1.000000 2.000000 2.000000
v -1.000000 2.000000 2.250000
v -5.000000 3.000000 2.000000
v -5.000000 3.000000 2.250000
v -5.000000 3.250000 2.250000
v -5.000000 3.250000 2.000000
v 0.000000 3.000000 -1.000000
v 0.000000 3.000000 -1.250000
v 0.000000 3.250000 -1.250000
v 0.000000 3.250000 -1.000000
v 0.000000 3.000000 2.250000
v 0.000000 3.000000 2.000000
v 0.000000 3.250000 2.000000
v 0.000000 3.250000 2.250000
v 0.000000 3.000000 -1.002000
v -1.000000 3.000000 -1.002000
v -1.000000 3.250000 -1.002000
v 0.000000 3.250000 -1.002000
v -3.000000 3.000000 -1.002000
v 0.000000 3.000000 2.002000
v -5.000000 3.000000 -1.002000
v -2.000000 3.000000 -1.002000
v -4.000000 3.000000 -1.002000
v -2.000000 3.250000 -1.002000
v -1.000000 3.000000 2.002000
v -3.000000 3.250000 -1.002000
v -5.000000 3.250000 -1.002000
v -4.000000 3.250000 -1.002000
v 0.000000 3.250000 2.002000
v -1.000000 3.250000 2.002000
v -2.000000 3.000000 2.002000
v -3.000000 3.000000 2.002000
v -2.000000 3.250000 2.002000
v -4.000000 3.000000 2.002000
v -3.000000 3.250000 2.002000
v -5.000000 3.000000 2.002000
v -4.000000 3.250000 2.002000
v -5.000000 3.250000 2.002000
v 0.002000 1.312500 0.000000
v 0.002000 1.312500 1.000000
vt 0.000049 0.562549
vt 0.062451 0.562549
vt 0.062451 0.624951
vt 0.000049 0.624951
vt 0.000049 0.687549
vt 0.062451 0.687549
vt 0.062451 0.749951
vt 0.000049 0.749951
vt 0.125049 0.562549
vt 0.187451 0.562549
vt 0.187451 0.624951
vt 0.125049 0.624951
vt 0.125049 0.687549
vt 0.187451 0.687549
vt 0.187451 0.749951
vt 0.125049 0.749951
vt 0.062549 0.562549
vt 0.124951 0.562549
vt 0.124951 0.624951
vt 0.062549 0.624951
vt 0.062549 0.687549
vt 0.124951 0.687549
vt 0.124951 0.749951
vt 0.062549 0.749951
vt 0.062549 0.562549
vt 0.124951 0.562549
vt 0.124951 0.624951
vt 0.062549 0.624951
vt 0.062549 0.687549
vt 0.124951 0.687549
vt 0.124951 0.749951
vt 0.062549 0.749951
vt 0.187549 0.562549
vt 0.249951 0.562549
vt 0.249951 0.624951
vt 0.187549 0.624951
vt 0.187549 0.687549
vt 0.249951 0.687549
vt 0.249951 0.749951
vt 0.187549 0.749951
vt 0.125049 0.562549
vt 0.125049 0.624951
vt 0.125049 0.687549
vt 0.125049 0.749951
vt 0.187549 0.562549
vt 0.249951 0.562549
vt 0.249951 0.624951
vt 0.187549 0.624951
vt 0.187549 0.687549
vt 0.249951 0.687549
vt 0.249951 0.749951
vt 0.187549 0.749951
vt 0.000049 0.562549
vt 0.062451 0.562549
vt 0.062451 0.624951
vt 0.000049 0.624951
vt 0.000049 0.687549
vt 0.062451 0.687549
vt 0.062451 0.749951
vt 0.000049 0.749951
vt 0.000049 0.562549
vt 0.062451 0.562549
vt 0.062451 0.624951
vt 0.000049 0.624951
vt 0.000049 0.687549
vt 0.062451 0.687549
vt 0.062451 0.749951
vt 0.000049 0.749951
vt 0.062549 0.562549
vt 0.124951 0.562549
vt 0.124951 0.624951
vt 0.062549 0.624951
vt 0.062549 0.687549
vt 0.124951 0.687549
vt 0.124951 0.749951
vt 0.062549 0.749951
vt 0.187549 0.562549
vt 0.249951 0.562549
vt 0.249951 0.624951
vt 0.187549 0.624951
vt 0.187549 0.687549
vt 0.249951 0.687549
vt 0.249951 0.749951
vt 0.187549 0.749951
vt 0.062549 0.562549
vt 0.124951 0.562549
vt 0.124951 0.624951
vt 0.062549 0.624951
vt 0.062549 0.687549
vt 0.124951 0.687549
vt 0.124951 0.749951
vt 0.062549 0.749951
vt 0.187549 0.562549
vt 0.249951 0.562549
vt 0.249951 0.624951
vt 0.187549 0.624951
vt 0.187549 0.687549
vt 0.249951 0.687549
vt 0.249951 0.749951
vt 0.187549 0.749951
vt 0.125049 0.562549
vt 0.125049 0.624951
vt 0.125049 0.687549
vt 0.125049 0.749951
vt 0.187549 0.562549
vt 0.249951 0.562549
vt 0.249951 0.624951
vt 0.187549 0.624951
vt 0.187549 0.687549
vt 0.249951 0.687549
vt 0.249951 0.749951
vt 0.187549 0.749951
vt 0.000049 0.562549
vt 0.062451 0.562549
vt 0.062451 0.624951
vt 0.000049 0.624951
vt 0.000049 0.687549
vt 0.062451 0.687549
vt 0.062451 0.749951
vt 0.000049 0.749951
vt 0.625049 0.500049
vt 0.687451 0.500049
vt 0.687451 0.562451
vt 0.625049 0.562451
vt 0.625049 0.564502
vt 0.687451 0.564502
vt 0.687451 0.583936
vt 0.625049 0.583936
vt 0.062451 0.812451
vt 0.000049 0.812451
vt 0.000049 0.000049
vt 0.062451 0.000049
vt 0.062451 0.062451
vt 0.000049 0.062451
vt 0.125049 0.750049
vt 0.187451 0.750049
vt 0.187451 0.812451
vt 0.125049 0.812451
vt 0.125049 0.750049
vt 0.187451 0.750049
vt 0.187451 0.812451
vt 0.125049 0.812451
vt 0.000049 0.000049
vt 0.062451 0.000049
vt 0.062451 0.062451
vt 0.000049 0.062451
vt 0.000049 0.000049
vt 0.062451 0.000049
vt 0.062451 0.062451
vt 0.000049 0.062451
vt 0.062451 0.812451
vt 0.000049 0.812451
vt 0.312549 0.625049
vt 0.374951 0.625049
vt 0.374951 0.687451
vt 0.312549 0.687451
vt 0.312549 0.625049
vt 0.374951 0.625049
vt 0.374951 0.687451
vt 0.312549 0.687451
vt 0.125049 0.750049
vt 0.187451 0.750049
vt 0.187451 0.812451
vt 0.125049 0.812451
vt 0.000049 0.000049
vt 0.062451 0.000049
vt 0.062451 0.062451
vt 0.000049 0.062451
vt 0.000049 0.000049
vt 0.062451 0.000049
vt 0.062451 0.062451
vt 0.000049 0.062451
vt 0.062451 0.812451
vt 0.000049 0.812451
vt 0.062451 0.812451
vt 0.000049 0.812451
vt 0.124951 0.750049
vt 0.124951 0.812451
vt 0.187451 0.750049
vt 0.187451 0.812451
vt 0.250049 0.750049
vt 0.312451 0.750049
vt 0.312451 0.812451
vt 0.250049 0.812451
vt 0.374951 0.750049
vt 0.374951 0.812451
vt 0.437451 0.750049
vt 0.437451 0.812451
vt 0.250049 0.750049
vt 0.312451 0.750049
vt 0.312451 0.812451
vt 0.250049 0.812451
vt 0.374951 0.750049
vt 0.374951 0.812451
vt 0.437451 0.750049
vt 0.437451 0.812451
vt 0.374951 0.874951
vt 0.312549 0.874951
vt 0.374951 0.874951
vt 0.312549 0.874951
vt 0.281299 0.796924
vt 0.296826 0.796924
vt 0.296826 0.812451
vt 0.281299 0.812451
vt 0.390674 0.796924
vt 0.406201 0.796924
vt 0.406201 0.812451
vt 0.390674 0.812451
vt 0.390674 0.796924
vt 0.406201 0.796924
vt 0.406201 0.812451
vt 0.390674 0.812451
vt 0.281299 0.796924
vt 0.296826 0.796924
vt 0.296826 0.812451
vt 0.281299 0.812451
vt 0.234424 0.750049
vt 0.234424 0.765576
vt 0.249951 0.765576
vt 0.437549 0.765576
vt 0.453076 0.765576
vt 0.453076 0.750049
vt 0.437549 0.765576
vt 0.453076 0.765576
vt 0.453076 0.750049
vt 0.234424 0.750049
vt 0.234424 0.765576
vt 0.249951 0.765576
vt 0.187549 0.937549
vt 0.249951 0.937549
vt 0.249951 0.999951
vt 0.187549 0.999951
vt 0.187549 0.937549
vt 0.249951 0.937549
vt 0.249951 0.999951
vt 0.187549 0.999951
vt 0.187549 0.937549
vt 0.249951 0.937549
vt 0.249951 0.999951
vt 0.187549 0.999951
vt 0.187549 0.937549
vt 0.249951 0.937549
vt 0.249951 0.999951
vt 0.187549 0.999951
vt 0.187549 0.937549
vt 0.249951 0.937549
vt 0.249951 0.999951
vt 0.187549 0.999951
vt 0.125049 0.734424
vt 0.187451 0.734424
vt 0.187451 0.749951
vt 0.125049 0.749951
vt 0.125049 0.734424
vt 0.187451 0.734424
vt 0.187451 0.749951
vt 0.125049 0.749951
vt 0.125049 0.734424
vt 0.187451 0.734424
vt 0.187451 0.749951
vt 0.125049 0.749951
vt 0.125049 0.734424
vt 0.187451 0.734424
vt 0.187451 0.749951
vt 0.125049 0.749951
vt 0.125049 0.734424
vt 0.187451 0.734424
vt 0.187451 0.749951
vt 0.125049 0.749951
vt 0.125049 0.734424
vt 0.187451 0.734424
vt 0.187451 0.749951
vt 0.125049 0.749951
vt 0.125049 0.734424
vt 0.187451 0.734424
vt 0.187451 0.749951
vt 0.125049 0.749951
vt 0.125049 0.734424
vt 0.187451 0.734424
vt 0.187451 0.749951
vt 0.125049 0.749951
vt 0.125049 0.734424
vt 0.187451 0.734424
vt 0.187451 0.749951
vt 0.125049 0.749951
vt 0.125049 0.734424
vt 0.187451 0.734424
vt 0.187451 0.749951
vt 0.125049 0.749951
vt 0.187549 0.937549
vt 0.249951 0.937549
vt 0.249951 0.999951
vt 0.187549 0.999951
vt 0.187549 0.937549
vt 0.249951 0.937549
vt 0.249951 0.999951
vt 0.187549 0.999951
vt 0.187549 0.937549
vt 0.249951 0.937549
vt 0.249951 0.999951
vt 0.187549 0.999951
vt 0.187549 0.937549
vt 0.249951 0.937549
vt 0.249951 0.999951
vt 0.187549 0.999951
vt 0.187549 0.937549
vt 0.249951 0.937549
vt 0.249951 0.999951
vt 0.187549 0.999951
vt 0.187549 0.937549
vt 0.249951 0.937549
vt 0.249951 0.999951
vt 0.187549 0.999951
vt 0.187549 0.937549
vt 0.249951 0.937549
vt 0.249951 0.999951
vt 0.187549 0.999951
vt 0.187549 0.937549
vt 0.249951 0.937549
vt 0.249951 0.999951
vt 0.187549 0.999951
vt 0.187549 0.937549
vt 0.249951 0.937549
vt 0.249951 0.999951
vt 0.187549 0.999951
vt 0.187549 0.937549
vt 0.249951 0.937549
vt 0.249951 0.999951
vt 0.187549 0.999951
vt 0.187549 0.937549
vt 0.249951 0.937549
vt 0.249951 0.999951
vt 0.187549 0.999951
vt 0.187549 0.937549
vt 0.249951 0.937549
vt 0.249951 0.999951
vt 0.187549 0.999951
vt 0.187549 0.937549
vt 0.249951 0.937549
vt 0.249951 0.999951
vt 0.187549 0.999951
vt 0.187549 0.937549
vt 0.249951 0.937549
vt 0.249951 0.999951
vt 0.187549 0.999951
vt 0.187549 0.937549
vt 0.249951 0.937549
vt 0.249951 0.999951
vt 0.187549 0.999951
vt 0.000049 0.875049
vt 0.015576 0.875049
vt 0.015576 0.937451
vt 0.000049 0.937451
vt 0.000049 0.875049
vt 0.015576 0.875049
vt 0.015576 0.937451
vt 0.000049 0.937451
vt 0.000049 0.875049
vt 0.015576 0.875049
vt 0.015576 0.937451
vt 0.000049 0.937451
vt 0.000049 0.875049
vt 0.015576 0.875049
vt 0.015576 0.937451
vt 0.000049 0.937451
vt 0.000049 0.875049
vt 0.015576 0.875049
vt 0.015576 0.937451
vt 0.000049 0.937451
vt 0.062549 0.062549
vt 0.124951 0.062549
vt 0.124951 0.078076
vt 0.062549 0.078076
vt 0.062549 0.000049
vt 0.124951 0.000049
vt 0.124951 0.015576
vt 0.062549 0.015576
vt 0.062549 0.125049
vt 0.078076 0.125049
vt 0.078076 0.140576
vt 0.062549 0.140576
vt 0.062549 0.125049
vt 0.078076 0.125049
vt 0.078076 0.140576
vt 0.062549 0.140576
vt 0.062549 0.062549
vt 0.124951 0.062549
vt 0.124951 0.078076
vt 0.062549 0.078076
vt 0.062549 0.062549
vt 0.124951 0.062549
vt 0.124951 0.078076
vt 0.062549 0.078076
vt 0.062549 0.062549
vt 0.124951 0.062549
vt 0.124951 0.078076
vt 0.062549 0.078076
vt 0.062549 0.062549
vt 0.124951 0.062549
vt 0.124951 0.078076
vt 0.062549 0.078076
vt 0.062549 0.000049
vt 0.124951 0.000049
vt 0.124951 0.015576
vt 0.062549 0.015576
vt 0.062549 0.000049
vt 0.124951 0.000049
vt 0.124951 0.015576
vt 0.062549 0.015576
vt 0.062549 0.000049
vt 0.124951 0.000049
vt 0.124951 0.015576
vt 0.062549 0.015576
vt 0.062549 0.000049
vt 0.124951 0.000049
vt 0.124951 0.015576
vt 0.062549 0.015576
vt 0.000049 0.125049
vt 0.062451 0.125049
vt 0.062451 0.140576
vt 0.000049 0.140576
vt 0.000049 0.125049
vt 0.062451 0.125049
vt 0.062451 0.140576
vt 0.000049 0.140576
vt 0.000049 0.125049
vt 0.062451 0.125049
vt 0.062451 0.140576
vt 0.000049 0.140576
vt 0.000049 0.125049
vt 0.062451 0.125049
vt 0.062451 0.140576
vt 0.000049 0.140576
vt 0.062549 0.125049
vt 0.078076 0.125049
vt 0.078076 0.140576
vt 0.062549 0.140576
vt 0.062549 0.125049
vt 0.078076 0.125049
vt 0.078076 0.140576
vt 0.062549 0.140576
vt 0.062549 0.125049
vt 0.078076 0.125049
vt 0.078076 0.140576
vt 0.062549 0.140576
vt 0.062549 0.125049
vt 0.078076 0.125049
vt 0.078076 0.140576
vt 0.062549 0.140576
vt 0.062549 0.125049
vt 0.078076 0.125049
vt 0.078076 0.140576
vt 0.062549 0.140576
vt 0.062549 0.125049
vt 0.078076 0.125049
vt 0.078076 0.140576
vt 0.062549 0.140576
vt 0.062549 0.125049
vt 0.078076 0.125049
vt 0.078076 0.140576
vt 0.062549 0.140576
vt 0.062549 0.125049
vt 0.078076 0.125049
vt 0.078076 0.140576
vt 0.062549 0.140576
vt 0.125049 0.046924
vt 0.187451 0.046924
vt 0.187451 0.062451
vt 0.125049 0.062451
vt 0.234424 0.750049
vt 0.249951 0.750049
vt 0.249951 0.765576
vt 0.234424 0.765576
vt 0.437549 0.750049
vt 0.453076 0.750049
vt 0.453076 0.765576
vt 0.437549 0.765576
vt 0.437549 0.750049
vt 0.453076 0.750049
vt 0.453076 0.765576
vt 0.437549 0.765576
vt 0.234424 0.750049
vt 0.249951 0.750049
vt 0.249951 0.765576
vt 0.234424 0.765576
vt 0.187549 0.875049
vt 0.249951 0.875049
vt 0.249951 0.890576
vt 0.187549 0.890576
vt 0.187549 0.875049
vt 0.249951 0.875049
vt 0.249951 0.890576
vt 0.187549 0.890576
vt 0.187549 0.875049
vt 0.249951 0.875049
vt 0.249951 0.890576
vt 0.187549 0.890576
vt 0.187549 0.875049
vt 0.249951 0.875049
vt 0.249951 0.890576
vt 0.187549 0.890576
vt 0.187549 0.875049
vt 0.249951 0.875049
vt 0.249951 0.890576
vt 0.187549 0.890576
vt 0.187549 0.875049
vt 0.249951 0.875049
vt 0.249951 0.890576
vt 0.187549 0.890576
vt 0.187549 0.875049
vt 0.249951 0.875049
vt 0.249951 0.890576
vt 0.187549 0.890576
vt 0.187549 0.875049
vt 0.249951 0.875049
vt 0.249951 0.890576
vt 0.187549 0.890576
vt 0.187549 0.875049
vt 0.249951 0.875049
vt 0.249951 0.890576
vt 0.187549 0.890576
vt 0.187549 0.875049
vt 0.249951 0.875049
vt 0.249951 0.890576
vt 0.187549 0.890576
vn 1.0000 0.0000 0.0000
vn 0.0000 0.0000 1.0000
vn -1.0000 0.0000 0.0000
vn 0.0000 0.0000 -1.0000
vn 0.0000 0.7019 -0.7123
vn 0.0000 0.7030 0.7112
vn 0.0000 0.9999 0.0113
vn 0.0000 1.0000 0.0000
vn 0.0000 -1.0000 0.0000
usemtl Sprytile_Set_Town_01
s off
f 11/1/1 2/2/1 10/3/1 1/4/1
f 1/5/1 10/6/1 51/7/1 19/8/1
f 2/9/1 7/10/1 9/11/1 10/12/1
f 10/13/1 9/14/1 53/15/1 51/16/1
f 7/17/1 6/18/1 3/19/1 9/20/1
f 9/21/1 3/22/1 49/23/1 53/24/1
f 12/25/2 11/26/2 1/27/2 4/28/2
f 4/29/2 1/30/2 19/31/2 169/32/2
f 13/33/2 12/34/2 4/35/2 14/36/2
f 14/37/2 4/38/2 169/39/2 139/40/2
f 15/41/2 13/33/2 14/36/2 8/42/2
f 8/43/2 14/37/2 139/40/2 157/44/2
f 17/45/2 15/46/2 8/47/2 16/48/2
f 16/49/2 8/50/2 157/51/2 148/52/2
f 20/53/2 17/54/2 16/55/2 25/56/2
f 25/57/2 16/58/2 148/59/2 59/60/2
f 30/61/3 21/62/3 32/63/3 27/64/3
f 27/65/3 32/66/3 44/67/3 63/68/3
f 23/69/3 20/70/3 25/71/3 29/72/3
f 29/73/3 25/74/3 59/75/3 42/76/3
f 21/77/3 23/78/3 29/79/3 32/80/3
f 32/81/3 29/82/3 42/83/3 44/84/3
f 31/85/4 30/86/4 27/87/4 22/88/4
f 22/89/4 27/90/4 63/91/4 149/92/4
f 34/93/4 31/94/4 22/95/4 26/96/4
f 26/97/4 22/98/4 149/99/4 50/100/4
f 33/101/4 34/93/4 26/96/4 24/102/4
f 24/103/4 26/97/4 50/100/4 58/104/4
f 36/105/4 33/106/4 24/107/4 38/108/4
f 38/109/4 24/110/4 58/111/4 61/112/4
f 6/113/4 36/114/4 38/115/4 3/116/4
f 3/117/4 38/118/4 61/119/4 49/120/4
f 45/121/1 46/122/1 48/123/1 47/124/1
f 47/125/1 48/126/1 207/127/1 208/128/1
f 19/8/1 51/7/1 52/129/1 108/130/1
f 51/131/1 53/132/1 54/133/1 52/134/1
f 53/135/1 49/136/1 57/137/1 54/138/1
f 149/139/4 63/140/4 89/141/4 98/142/4
f 50/143/4 149/144/4 98/145/4 104/146/4
f 61/147/4 58/148/4 96/149/4 100/150/4
f 49/120/4 61/119/4 100/151/4 57/152/4
f 58/153/4 50/154/4 104/155/4 96/156/4
f 157/157/2 139/158/2 62/159/2 103/160/2
f 169/161/2 19/162/2 108/163/2 112/164/2
f 139/165/2 169/166/2 112/167/2 62/168/2
f 148/169/2 157/170/2 103/171/2 110/172/2
f 59/60/2 148/59/2 110/173/2 70/174/2
f 63/68/3 44/67/3 67/175/3 89/176/3
f 44/67/3 42/177/3 73/178/3 67/175/3
f 42/177/3 59/179/3 70/180/3 73/178/3
f 108/181/1 52/182/1 69/183/1 5/184/1
f 52/182/1 54/185/1 64/186/1 69/183/1
f 54/185/1 57/187/1 39/188/1 64/186/1
f 89/189/3 67/190/3 40/191/3 71/192/3
f 67/190/3 73/193/3 72/194/3 40/191/3
f 73/193/3 70/195/3 66/196/3 72/194/3
f 69/183/1 64/186/1 35/197/1 75/198/1
f 40/191/3 72/194/3 76/199/3 77/200/3
f 74/201/1 69/202/1 78/203/1 79/204/1
f 64/205/1 80/206/1 81/207/1 82/208/1
f 72/209/3 83/210/3 84/211/3 85/212/3
f 68/213/3 40/214/3 87/215/3 88/216/3
f 86/217/1 90/218/1 117/219/1 89/189/1
f 70/195/1 107/220/1 109/221/1 106/222/1
f 57/187/3 101/223/3 95/224/3 94/225/3
f 65/226/3 97/227/3 123/228/3 108/181/3
f 114/229/5 56/230/5 113/231/5 115/232/5
f 56/233/5 111/234/5 28/235/5 113/236/5
f 105/237/5 102/238/5 111/239/5 56/240/5
f 91/241/5 105/242/5 56/243/5 114/244/5
f 101/245/5 91/246/5 114/247/5 92/248/5
f 98/249/4 89/250/4 117/251/4 118/252/4
f 104/253/4 98/254/4 118/255/4 102/256/4
f 96/257/4 104/258/4 102/259/4 105/260/4
f 100/261/4 96/262/4 105/263/4 91/264/4
f 57/265/4 100/266/4 91/267/4 101/268/4
f 112/269/2 108/270/2 123/271/2 134/272/2
f 62/273/2 112/274/2 134/275/2 129/276/2
f 103/277/2 62/278/2 129/279/2 128/280/2
f 110/281/2 103/282/2 128/283/2 99/284/2
f 70/285/2 110/286/2 99/287/2 107/288/2
f 92/289/5 114/290/5 115/291/5 116/292/5
f 111/293/5 121/294/5 119/295/5 28/296/5
f 121/297/5 120/298/5 93/299/5 119/300/5
f 118/301/5 117/302/5 120/303/5 121/304/5
f 102/305/5 118/306/5 121/307/5 111/308/5
f 124/309/6 126/310/6 134/311/6 123/312/6
f 126/313/6 127/314/6 129/315/6 134/316/6
f 122/317/6 125/318/6 127/319/6 126/320/6
f 133/321/6 122/322/6 126/323/6 124/324/6
f 127/325/6 60/326/6 128/327/6 129/328/6
f 125/329/6 135/330/6 60/331/6 127/332/6
f 135/333/6 136/334/6 132/335/6 60/336/6
f 136/337/6 130/338/6 131/339/6 132/340/6
f 132/341/6 131/342/6 107/343/6 99/344/6
f 60/345/6 132/346/6 99/347/6 128/348/6
f 133/349/7 116/350/7 115/351/7 122/352/7
f 122/353/7 115/354/7 113/355/7 125/356/7
f 125/357/7 113/358/7 28/359/7 135/360/7
f 135/361/7 28/362/7 119/363/7 136/364/7
f 136/365/7 119/366/7 93/367/7 130/368/7
f 143/369/8 138/370/8 53/371/8 51/372/8
f 137/373/1 144/374/1 138/375/1 143/376/1
f 162/377/2 137/378/2 143/379/2 51/380/2
f 144/381/4 142/382/4 53/383/4 138/384/4
f 147/385/8 170/386/8 169/387/8 139/388/8
f 146/389/8 43/390/8 157/391/8 148/392/8
f 145/393/8 153/394/8 58/395/8 61/396/8
f 150/397/8 55/398/8 149/399/8 50/400/8
f 159/401/4 163/402/4 153/403/4 145/404/4
f 154/405/4 18/406/4 55/407/4 150/408/4
f 156/409/2 158/410/2 170/411/2 147/412/2
f 164/413/2 140/414/2 43/415/2 146/416/2
f 160/417/9 41/418/9 158/419/9 156/420/9
f 161/421/9 37/422/9 140/423/9 164/424/9
f 163/425/9 159/426/9 165/427/9 166/428/9
f 18/429/9 154/430/9 167/431/9 168/432/9
f 158/433/1 41/434/1 169/435/1 170/436/1
f 140/437/1 37/438/1 157/439/1 43/440/1
f 160/441/3 156/442/3 147/443/3 139/444/3
f 161/445/3 164/446/3 146/447/3 148/448/3
f 165/449/1 159/450/1 145/451/1 61/452/1
f 167/453/1 154/454/1 150/455/1 50/456/1
f 163/457/3 166/458/3 58/459/3 153/460/3
f 18/461/3 168/462/3 149/463/3 55/464/3
f 162/465/9 142/466/9 144/467/9 137/468/9
f 155/469/3 152/470/3 151/471/3 141/472/3
f 171/473/3 172/474/3 173/475/3 174/476/3
f 175/477/1 176/478/1 177/479/1 178/480/1
f 179/481/1 180/482/1 181/483/1 182/484/1
f 183/485/4 184/486/4 185/487/4 186/488/4
f 184/489/4 190/490/4 192/491/4 185/492/4
f 190/493/4 187/494/4 194/495/4 192/496/4
f 187/497/4 191/498/4 196/499/4 194/500/4
f 191/501/4 189/502/4 195/503/4 196/504/4
f 193/505/2 188/506/2 197/507/2 198/508/2
f 199/509/2 193/510/2 198/511/2 201/512/2
f 200/513/2 199/514/2 201/515/2 203/516/2
f 202/517/2 200/518/2 203/519/2 205/520/2
f 204/521/2 202/522/2 205/523/2 206/524/2
