# Blender v2.79 (sub 0) OBJ File: 'House_Stone_01.blend'
# www.blender.org
mtllib House_Stone_01.mtl
o Cube
v 0.000000 1.000000 2.000000
v 0.000000 0.000000 1.000000
v 0.000000 1.000000 -1.000000
v -1.000000 1.000000 2.000000
v -5.000000 2.000000 1.000000
v 0.000000 0.000000 -1.000000
v 0.000000 0.000000 0.000000
v -3.000000 1.000000 2.000000
v 0.000000 1.000000 0.000000
v 0.000000 1.000000 1.000000
v 0.000000 3.000000 -1.000000
v 0.000000 0.000000 2.000000
v 0.000000 4.000000 1.000000
v -1.000000 0.000000 2.000000
v -2.000000 0.000000 2.000000
v 0.000000 4.000000 0.000000
v -1.000000 2.250000 -1.000000
v -2.000000 1.000000 2.000000
v -3.000000 0.000000 2.000000
v -1.000000 2.250000 2.000000
v -4.000000 1.000000 2.000000
v -4.000000 0.000000 2.000000
v -3.000000 2.000000 2.000000
v -5.000000 0.000000 2.000000
v -3.000000 2.957190 1.292977
v -5.000000 0.000000 0.000000
v -4.000000 1.000000 -1.000000
v -5.000000 0.000000 1.000000
v -2.000000 1.000000 -1.000000
v -5.000000 1.000000 2.000000
v -3.000000 1.000000 -1.000000
v -5.000000 1.000000 -1.000000
v -4.000000 2.000000 2.000000
v -5.000000 1.000000 1.000000
v -5.000000 0.000000 -1.000000
v -4.000000 0.000000 -1.000000
v -5.000000 1.000000 0.000000
v -2.000000 0.000000 -1.000000
v -3.000000 0.000000 -1.000000
v -1.000000 0.000000 -1.000000
v -2.000000 2.000000 -1.000000
v -1.000000 1.000000 -1.000000
v 0.000000 3.664381 0.585954
v -4.000000 3.664381 0.585954
v -5.000000 3.000000 2.000000
v -5.000000 4.000000 1.000000
v 0.000000 3.000000 0.000000
v 0.000000 3.000000 2.000000
v -4.000000 2.250000 2.000000
v -5.000000 2.000000 2.000000
v -5.000000 2.000000 0.000000
v -5.000000 3.000000 1.000000
v -5.000000 3.000000 -1.000000
v -5.000000 3.000000 0.000000
v -5.000000 3.000000 -0.250000
v 0.000000 3.000000 1.250000
v -5.000000 4.000000 0.000000
v -5.000000 3.250000 0.000000
v -5.000000 3.250000 -0.250000
v -5.000000 3.000000 1.250000
v -5.000000 3.250000 1.250000
v -5.000000 3.250000 1.000000
v 0.000000 3.000000 -0.250000
v 0.000000 3.250000 -0.250000
v 0.000000 3.250000 0.000000
v 0.000000 3.000000 1.000000
v 0.000000 3.250000 1.000000
v 0.000000 3.250000 1.250000
v -1.000000 2.000000 -1.000000
v -5.000000 2.957812 -0.293599
v 0.000000 2.250000 -1.000000
v -2.000000 2.250000 -1.000000
v -4.000000 2.000000 -1.000000
v -3.000000 2.000000 -1.000000
v -1.000000 2.957812 -0.293599
v -4.000000 2.250000 -1.000000
v -5.000000 2.250000 2.000000
v -2.000000 2.000000 2.000000
v -3.000000 2.250000 2.000000
v -1.000000 2.000000 2.000000
v -3.000000 2.957812 -0.293599
v 0.000000 2.957190 1.292977
v 0.000000 2.957812 -0.293599
v -3.000000 2.250000 -1.000000
v 0.000000 3.665624 0.412802
v -2.000000 2.957812 -0.293599
v -2.000000 3.664381 0.585954
v -2.000000 3.665624 0.412802
v -2.000000 2.250000 2.000000
v -4.000000 2.957812 -0.293599
v -1.000000 2.957190 1.292977
v -3.000000 3.664381 0.585954
v -4.000000 2.957190 1.292977
v -1.000000 3.665624 0.412802
v -5.000000 2.957190 1.292977
v -5.000000 3.664381 0.585954
v -2.000000 2.957190 1.292977
v -1.000000 3.664381 0.585954
v -3.000000 3.665624 0.412802
v -5.000000 3.665624 0.412802
v -4.000000 3.665624 0.412802
v 0.002000 2.000000 0.000000
v 0.002000 2.000000 1.000000
v 0.002000 3.000000 0.000000
v 0.002000 3.000000 1.000000
v 0.000000 2.000000 0.000000
v 0.250000 1.750000 1.000000
v 0.000000 1.750000 1.000000
v 0.250000 2.000000 1.000000
v 0.000000 2.000000 1.000000
v 0.250000 2.000000 0.000000
v 0.002000 0.000000 1.000000
v 0.002000 0.000000 0.000000
v 0.002000 1.000000 0.000000
v 0.000000 1.750000 0.000000
v 0.000000 2.000000 -1.250000
v 0.002000 1.000000 1.000000
v 0.250000 1.750000 0.000000
v 0.000000 2.000000 -1.000000
v -5.000000 2.000000 -1.250000
v -5.000000 2.250000 -1.250000
v 0.000000 2.250000 2.250000
v 0.000000 2.250000 -1.250000
v -5.000000 2.000000 2.250000
v -5.000000 2.250000 2.250000
v -5.000000 2.000000 -1.000000
v -5.000000 2.250000 -1.000000
v 0.000000 2.000000 2.250000
v 0.000000 2.000000 2.000000
v 0.000000 2.250000 2.000000
v 0.002000 1.312500 0.000000
v 0.002000 1.312500 1.000000
vt 0.000049 0.562549
vt 0.062451 0.562549
vt 0.062451 0.624951
vt 0.000049 0.624951
vt 0.250049 0.687549
vt 0.312451 0.687549
vt 0.312451 0.749951
vt 0.250049 0.749951
vt 0.125049 0.562549
vt 0.187451 0.562549
vt 0.187451 0.624951
vt 0.125049 0.624951
vt 0.374951 0.687549
vt 0.374951 0.749951
vt 0.062549 0.562549
vt 0.124951 0.562549
vt 0.124951 0.624951
vt 0.062549 0.624951
vt 0.437451 0.687549
vt 0.437451 0.749951
vt 0.062549 0.562549
vt 0.124951 0.562549
vt 0.124951 0.624951
vt 0.062549 0.624951
vt 0.375049 0.687549
vt 0.437451 0.687549
vt 0.437451 0.749951
vt 0.375049 0.749951
vt 0.187549 0.562549
vt 0.249951 0.562549
vt 0.249951 0.624951
vt 0.187549 0.624951
vt 0.250049 0.625049
vt 0.312451 0.625049
vt 0.312451 0.687451
vt 0.250049 0.687451
vt 0.125049 0.562549
vt 0.125049 0.624951
vt 0.312549 0.687549
vt 0.374951 0.687549
vt 0.374951 0.749951
vt 0.312549 0.749951
vt 0.187549 0.562549
vt 0.249951 0.562549
vt 0.249951 0.624951
vt 0.187549 0.624951
vt 0.250049 0.625049
vt 0.312451 0.625049
vt 0.312451 0.687451
vt 0.250049 0.687451
vt 0.000049 0.562549
vt 0.062451 0.562549
vt 0.062451 0.624951
vt 0.000049 0.624951
vt 0.250049 0.687549
vt 0.312451 0.687549
vt 0.312451 0.749951
vt 0.250049 0.749951
vt 0.000049 0.562549
vt 0.062451 0.562549
vt 0.062451 0.624951
vt 0.000049 0.624951
vt 0.250049 0.687549
vt 0.312451 0.687549
vt 0.312451 0.749951
vt 0.250049 0.749951
vt 0.062549 0.562549
vt 0.124951 0.562549
vt 0.124951 0.624951
vt 0.062549 0.624951
vt 0.375049 0.687549
vt 0.437451 0.687549
vt 0.437451 0.749951
vt 0.375049 0.749951
vt 0.187549 0.562549
vt 0.249951 0.562549
vt 0.249951 0.624951
vt 0.187549 0.624951
vt 0.250049 0.625049
vt 0.312451 0.625049
vt 0.312451 0.687451
vt 0.250049 0.687451
vt 0.062549 0.562549
vt 0.124951 0.562549
vt 0.124951 0.624951
vt 0.062549 0.624951
vt 0.375049 0.687549
vt 0.437451 0.687549
vt 0.437451 0.749951
vt 0.375049 0.749951
vt 0.187549 0.562549
vt 0.249951 0.562549
vt 0.249951 0.624951
vt 0.187549 0.624951
vt 0.250049 0.625049
vt 0.312451 0.625049
vt 0.312451 0.687451
vt 0.250049 0.687451
vt 0.125049 0.562549
vt 0.125049 0.624951
vt 0.312549 0.687549
vt 0.374951 0.687549
vt 0.374951 0.749951
vt 0.312549 0.749951
vt 0.187549 0.562549
vt 0.249951 0.562549
vt 0.249951 0.624951
vt 0.187549 0.624951
vt 0.250049 0.625049
vt 0.312451 0.625049
vt 0.312451 0.687451
vt 0.250049 0.687451
vt 0.000049 0.562549
vt 0.062451 0.562549
vt 0.062451 0.624951
vt 0.000049 0.624951
vt 0.250049 0.687549
vt 0.312451 0.687549
vt 0.312451 0.749951
vt 0.250049 0.749951
vt 0.312549 0.875049
vt 0.374951 0.875049
vt 0.374951 0.937451
vt 0.312549 0.937451
vt 0.250049 0.875049
vt 0.250049 0.937451
vt 0.312549 0.937549
vt 0.374951 0.937549
vt 0.374951 0.999951
vt 0.312549 0.999951
vt 0.375049 0.875049
vt 0.437451 0.875049
vt 0.437451 0.937451
vt 0.312549 0.875049
vt 0.250049 0.875049
vt 0.250049 0.937451
vt 0.437451 0.875049
vt 0.437451 0.937451
vt 0.374951 0.999951
vt 0.312549 0.999951
vt 0.296924 0.937549
vt 0.312451 0.953076
vt 0.296924 0.953076
vt 0.390576 0.937549
vt 0.390576 0.953076
vt 0.375049 0.953076
vt 0.390576 0.937549
vt 0.390576 0.953076
vt 0.375049 0.953076
vt 0.296924 0.937549
vt 0.312451 0.953076
vt 0.296924 0.953076
vt 0.187549 0.875049
vt 0.249951 0.875049
vt 0.249951 0.890576
vt 0.187549 0.890576
vt 0.187549 0.875049
vt 0.249951 0.875049
vt 0.249951 0.890576
vt 0.187549 0.890576
vt 0.187549 0.875049
vt 0.249951 0.875049
vt 0.249951 0.890576
vt 0.187549 0.890576
vt 0.187549 0.875049
vt 0.249951 0.875049
vt 0.249951 0.890576
vt 0.187549 0.890576
vt 0.187549 0.875049
vt 0.249951 0.890576
vt 0.187549 0.890576
vt 0.187549 0.875049
vt 0.249951 0.875049
vt 0.249951 0.890576
vt 0.187549 0.890576
vt 0.187549 0.875049
vt 0.249951 0.875049
vt 0.249951 0.890576
vt 0.187549 0.890576
vt 0.187549 0.875049
vt 0.249951 0.875049
vt 0.249951 0.890576
vt 0.187549 0.890576
vt 0.187549 0.875049
vt 0.249951 0.875049
vt 0.249951 0.890576
vt 0.187549 0.890576
vt 0.187549 0.875049
vt 0.249951 0.890576
vt 0.187549 0.890576
vt 0.187549 0.937549
vt 0.249951 0.937549
vt 0.249951 0.999951
vt 0.187549 0.999951
vt 0.187549 0.937549
vt 0.249951 0.937549
vt 0.249951 0.999951
vt 0.187549 0.999951
vt 0.187549 0.937549
vt 0.249951 0.937549
vt 0.249951 0.999951
vt 0.187549 0.999951
vt 0.187549 0.937549
vt 0.249951 0.937549
vt 0.249951 0.999951
vt 0.187549 0.999951
vt 0.187549 0.937549
vt 0.249951 0.937549
vt 0.249951 0.999951
vt 0.187549 0.999951
vt 0.187549 0.937549
vt 0.249951 0.937549
vt 0.249951 0.999951
vt 0.187549 0.999951
vt 0.187549 0.937549
vt 0.249951 0.937549
vt 0.249951 0.999951
vt 0.187549 0.999951
vt 0.187549 0.937549
vt 0.249951 0.937549
vt 0.249951 0.999951
vt 0.187549 0.999951
vt 0.187549 0.937549
vt 0.249951 0.937549
vt 0.249951 0.999951
vt 0.187549 0.999951
vt 0.187549 0.937549
vt 0.249951 0.937549
vt 0.249951 0.999951
vt 0.187549 0.999951
vt 0.187549 0.937549
vt 0.249951 0.937549
vt 0.249951 0.999951
vt 0.187549 0.999951
vt 0.187549 0.937549
vt 0.249951 0.937549
vt 0.249951 0.999951
vt 0.187549 0.999951
vt 0.187549 0.937549
vt 0.249951 0.937549
vt 0.249951 0.999951
vt 0.187549 0.999951
vt 0.187549 0.937549
vt 0.249951 0.937549
vt 0.249951 0.999951
vt 0.187549 0.999951
vt 0.187549 0.937549
vt 0.249951 0.937549
vt 0.249951 0.999951
vt 0.187549 0.999951
vt 0.187549 0.937549
vt 0.249951 0.937549
vt 0.249951 0.999951
vt 0.187549 0.999951
vt 0.187549 0.937549
vt 0.249951 0.937549
vt 0.249951 0.999951
vt 0.187549 0.999951
vt 0.187549 0.937549
vt 0.249951 0.937549
vt 0.249951 0.999951
vt 0.187549 0.999951
vt 0.187549 0.937549
vt 0.249951 0.937549
vt 0.249951 0.999951
vt 0.187549 0.999951
vt 0.187549 0.937549
vt 0.249951 0.937549
vt 0.249951 0.999951
vt 0.187549 0.999951
vt 0.000049 0.875049
vt 0.015576 0.875049
vt 0.015576 0.937451
vt 0.000049 0.937451
vt 0.000049 0.875049
vt 0.015576 0.875049
vt 0.015576 0.937451
vt 0.000049 0.937451
vt 0.000049 0.875049
vt 0.015576 0.875049
vt 0.015576 0.937451
vt 0.000049 0.937451
vt 0.000049 0.875049
vt 0.015576 0.875049
vt 0.015576 0.937451
vt 0.000049 0.937451
vt 0.000049 0.875049
vt 0.015576 0.875049
vt 0.015576 0.937451
vt 0.000049 0.937451
vt 0.187549 0.000049
vt 0.249951 0.000049
vt 0.249951 0.062451
vt 0.187549 0.062451
vt 0.062549 0.062549
vt 0.124951 0.062549
vt 0.124951 0.078076
vt 0.062549 0.078076
vt 0.062549 0.000049
vt 0.124951 0.000049
vt 0.124951 0.015576
vt 0.062549 0.015576
vt 0.062549 0.125049
vt 0.078076 0.125049
vt 0.078076 0.140576
vt 0.062549 0.140576
vt 0.062549 0.125049
vt 0.078076 0.125049
vt 0.078076 0.140576
vt 0.062549 0.140576
vt 0.625049 0.500049
vt 0.687451 0.500049
vt 0.687451 0.562451
vt 0.625049 0.562451
vt 0.625049 0.564502
vt 0.687451 0.564502
vt 0.687451 0.583936
vt 0.625049 0.583936
vt 0.000049 0.125049
vt 0.062451 0.125049
vt 0.062451 0.140576
vt 0.000049 0.140576
vt 0.437549 0.765576
vt 0.453076 0.765576
vt 0.453076 0.750049
vt 0.437549 0.765576
vt 0.453076 0.765576
vt 0.453076 0.750049
vt 0.234424 0.750049
vt 0.234424 0.765576
vt 0.249951 0.765576
vt 0.234424 0.750049
vt 0.234424 0.765576
vt 0.249951 0.765576
vn 1.0000 0.0000 0.0000
vn 0.0000 0.0000 1.0000
vn -1.0000 0.0000 0.0000
vn 0.0000 0.0000 -1.0000
vn 0.0000 0.7064 -0.7078
vn 0.0000 0.7070 0.7072
vn 0.0000 1.0000 0.0072
vn 0.0000 1.0000 0.0000
vn 0.0000 -1.0000 0.0000
usemtl Sprytile_Set_Town_01
s off
f 12/1/1 2/2/1 10/3/1 1/4/1
f 1/5/1 10/6/1 110/7/1 129/8/1
f 2/9/1 7/10/1 9/11/1 10/12/1
f 10/6/1 9/13/1 106/14/1 110/7/1
f 7/15/1 6/16/1 3/17/1 9/18/1
f 9/13/1 3/19/1 119/20/1 106/14/1
f 14/21/2 12/22/2 1/23/2 4/24/2
f 4/25/2 1/26/2 129/27/2 80/28/2
f 15/29/2 14/30/2 4/31/2 18/32/2
f 18/33/2 4/34/2 80/35/2 78/36/2
f 19/37/2 15/29/2 18/32/2 8/38/2
f 8/39/2 18/40/2 78/41/2 23/42/2
f 22/43/2 19/44/2 8/45/2 21/46/2
f 21/47/2 8/48/2 23/49/2 33/50/2
f 24/51/2 22/52/2 21/53/2 30/54/2
f 30/55/2 21/56/2 33/57/2 50/58/2
f 35/59/3 26/60/3 37/61/3 32/62/3
f 32/63/3 37/64/3 51/65/3 126/66/3
f 28/67/3 24/68/3 30/69/3 34/70/3
f 34/71/3 30/72/3 50/73/3 5/74/3
f 26/75/3 28/76/3 34/77/3 37/78/3
f 37/79/3 34/80/3 5/81/3 51/82/3
f 36/83/4 35/84/4 32/85/4 27/86/4
f 27/87/4 32/88/4 126/89/4 73/90/4
f 39/91/4 36/92/4 27/93/4 31/94/4
f 31/95/4 27/96/4 73/97/4 74/98/4
f 38/99/4 39/91/4 31/94/4 29/100/4
f 29/101/4 31/102/4 74/103/4 41/104/4
f 40/105/4 38/106/4 29/107/4 42/108/4
f 42/109/4 29/110/4 41/111/4 69/112/4
f 6/113/4 40/114/4 42/115/4 3/116/4
f 3/117/4 42/118/4 69/119/4 119/120/4
f 51/121/3 5/122/3 52/123/3 54/124/3
f 126/125/3 51/121/3 54/124/3 53/126/3
f 66/127/1 47/128/1 16/129/1 13/130/1
f 106/131/1 119/132/1 11/133/1 47/128/1
f 110/134/1 106/131/1 47/128/1 66/127/1
f 129/135/1 110/134/1 66/127/1 48/136/1
f 5/122/3 50/137/3 45/138/3 52/123/3
f 54/124/3 52/123/3 46/139/3 57/140/3
f 55/141/3 54/124/3 58/142/3 59/143/3
f 52/123/3 60/144/3 61/145/3 62/146/3
f 47/128/1 63/147/1 64/148/1 65/149/1
f 56/150/1 66/127/1 67/151/1 68/152/1
f 119/153/4 69/154/4 17/155/4 71/156/4
f 69/157/4 41/158/4 72/159/4 17/160/4
f 41/161/4 74/162/4 84/163/4 72/164/4
f 74/165/4 73/166/4 76/167/4 84/168/4
f 73/169/4 126/125/4 127/170/4 76/171/4
f 50/172/2 33/173/2 49/174/2 77/175/2
f 33/176/2 23/177/2 79/178/2 49/179/2
f 23/180/2 78/181/2 89/182/2 79/183/2
f 78/184/2 80/185/2 20/186/2 89/187/2
f 80/188/2 129/135/2 130/189/2 20/190/2
f 71/191/5 17/192/5 75/193/5 83/194/5
f 17/195/5 72/196/5 86/197/5 75/198/5
f 72/199/5 84/200/5 81/201/5 86/202/5
f 84/203/5 76/204/5 90/205/5 81/206/5
f 76/207/5 127/208/5 70/209/5 90/210/5
f 83/211/5 75/212/5 94/213/5 85/214/5
f 75/215/5 86/216/5 88/217/5 94/218/5
f 86/219/5 81/220/5 99/221/5 88/222/5
f 81/223/5 90/224/5 101/225/5 99/226/5
f 90/227/5 70/228/5 100/229/5 101/230/5
f 20/231/6 130/232/6 82/233/6 91/234/6
f 89/235/6 20/236/6 91/237/6 97/238/6
f 79/239/6 89/240/6 97/241/6 25/242/6
f 49/243/6 79/244/6 25/245/6 93/246/6
f 77/247/6 49/248/6 93/249/6 95/250/6
f 95/251/6 93/252/6 44/253/6 96/254/6
f 93/255/6 25/256/6 92/257/6 44/258/6
f 25/259/6 97/260/6 87/261/6 92/262/6
f 97/263/6 91/264/6 98/265/6 87/266/6
f 91/267/6 82/268/6 43/269/6 98/270/6
f 94/271/7 98/272/7 43/273/7 85/274/7
f 88/275/7 87/276/7 98/277/7 94/278/7
f 99/279/7 92/280/7 87/281/7 88/282/7
f 101/283/7 44/284/7 92/285/7 99/286/7
f 100/287/7 96/288/7 44/289/7 101/290/7
f 103/291/1 102/292/1 104/293/1 105/294/1
f 109/295/8 111/296/8 106/297/8 110/298/8
f 107/299/1 118/300/1 111/301/1 109/302/1
f 108/303/2 107/304/2 109/305/2 110/306/2
f 118/307/4 115/308/4 106/309/4 111/310/4
f 112/311/1 113/312/1 114/313/1 117/314/1
f 117/315/1 114/316/1 131/317/1 132/318/1
f 108/319/9 115/320/9 118/321/9 107/322/9
f 119/20/3 71/323/3 123/324/3 116/325/3
f 50/73/1 77/326/1 125/327/1 124/328/1
f 120/329/1 121/330/1 127/331/1 126/66/1
f 128/332/3 122/333/3 130/334/3 129/8/3
