# Blender v2.79 (sub 0) OBJ File: 'Garden_01.blend'
# www.blender.org
mtllib Garden_01.mtl
o Cube
v 0.000000 0.000000 -1.000000
v 0.000000 0.000000 -1.500000
v 0.000000 0.500000 -1.500000
v 0.000000 0.000000 -0.500000
v -0.500000 0.500000 0.000000
v 0.000000 0.500000 -1.000000
v 0.000000 0.500000 -0.500000
v -0.500000 0.000000 -0.500000
v -0.500000 0.000000 0.000000
v 0.000000 0.000000 0.000000
v 0.000000 0.500000 0.000000
v -0.500000 0.500000 -1.500000
v -0.500000 0.000000 -1.000000
v -0.500000 0.000000 -1.500000
v -0.500000 0.500000 -0.500000
v -0.500000 0.500000 -1.000000
vt 0.343799 0.250049
vt 0.374951 0.250049
vt 0.374951 0.281201
vt 0.343799 0.281201
vt 0.312549 0.250049
vt 0.343701 0.250049
vt 0.343701 0.281201
vt 0.312549 0.281201
vt 0.468799 0.250049
vt 0.499951 0.250049
vt 0.499951 0.281201
vt 0.468799 0.281201
vt 0.343799 0.281299
vt 0.374951 0.281299
vt 0.374951 0.312451
vt 0.343799 0.312451
vt 0.406299 0.187549
vt 0.437451 0.187549
vt 0.437451 0.218701
vt 0.406299 0.218701
vt 0.406299 0.187549
vt 0.437451 0.187549
vt 0.437451 0.218701
vt 0.406299 0.218701
vt 0.312549 0.250049
vt 0.343701 0.250049
vt 0.343701 0.281201
vt 0.312549 0.281201
vt 0.312549 0.281299
vt 0.343701 0.281299
vt 0.343701 0.312451
vt 0.312549 0.312451
vt 0.468799 0.250049
vt 0.499951 0.250049
vt 0.499951 0.281201
vt 0.468799 0.281201
vt 0.343799 0.250049
vt 0.374951 0.250049
vt 0.374951 0.281201
vt 0.343799 0.281201
vt 0.468799 0.281299
vt 0.499951 0.281299
vt 0.499951 0.312451
vt 0.468799 0.312451
vn 1.0000 0.0000 0.0000
vn 0.0000 1.0000 0.0000
vn 0.0000 0.0000 1.0000
vn 0.0000 0.0000 -1.0000
vn -1.0000 0.0000 0.0000
usemtl Sprytile_Set_Town_01
s off
f 4/1/1 1/2/1 6/3/1 7/4/1
f 10/5/1 4/6/1 7/7/1 11/8/1
f 1/9/1 2/10/1 3/11/1 6/12/1
f 16/13/2 15/14/2 7/15/2 6/16/2
f 9/17/3 10/18/3 11/19/3 5/20/3
f 2/21/4 14/22/4 12/23/4 3/24/4
f 14/25/5 13/26/5 16/27/5 12/28/5
f 12/29/2 16/30/2 6/31/2 3/32/2
f 8/33/5 9/34/5 5/35/5 15/36/5
f 13/37/5 8/38/5 15/39/5 16/40/5
f 15/41/2 5/42/2 11/43/2 7/44/2
