# Blender v2.79 (sub 0) OBJ File: 'Garden_03.blend'
# www.blender.org
mtllib Garden_03.mtl
o Cube
v 0.000000 0.000000 -1.000000
v 0.000000 0.000000 -0.500000
v -0.500000 0.500000 0.277874
v -1.000000 0.500000 -1.500000
v 0.000000 0.500000 -0.500000
v 0.000000 0.500000 -1.500000
v -1.000000 0.500000 -2.000000
v 0.000000 0.000000 0.000000
v 0.000000 0.500000 0.000000
v -0.500000 0.500000 -0.500000
v -0.500000 0.500000 -1.000000
v -1.000000 0.500000 -1.000000
v -1.000000 0.000000 -1.500000
v -0.500000 0.500000 -2.277874
v -0.500000 0.000000 0.277874
v 0.000000 0.500000 -2.000000
v -0.500000 0.500000 -1.500000
v 0.000000 0.500000 -1.000000
v -1.000000 0.500000 0.000000
v -1.000000 0.500000 -0.500000
v 0.000000 0.000000 -2.000000
v 0.000000 0.000000 -1.500000
v -1.000000 0.000000 -2.000000
v -0.500000 0.000000 -2.277874
v -1.000000 0.000000 0.000000
v -1.000000 0.000000 -1.000000
v -1.000000 0.000000 -0.500000
vt 0.343799 0.250049
vt 0.374951 0.250049
vt 0.374951 0.281201
vt 0.343799 0.281201
vt 0.312549 0.250049
vt 0.343701 0.250049
vt 0.343701 0.281201
vt 0.312549 0.281201
vt 0.468799 0.218799
vt 0.499951 0.218799
vt 0.499951 0.249951
vt 0.468799 0.249951
vt 0.406299 0.250049
vt 0.437451 0.250049
vt 0.437451 0.281201
vt 0.406299 0.281201
vt 0.437549 0.218799
vt 0.468701 0.218799
vt 0.468701 0.249951
vt 0.437549 0.249951
vt 0.312549 0.281299
vt 0.343701 0.281299
vt 0.343701 0.312451
vt 0.312549 0.312451
vt 0.343701 0.312451
vt 0.312549 0.312451
vt 0.312549 0.281299
vt 0.343701 0.281299
vt 0.312549 0.281299
vt 0.343701 0.281299
vt 0.343701 0.312451
vt 0.312549 0.312451
vt 0.437549 0.218799
vt 0.468701 0.249951
vt 0.437549 0.249951
vt 0.499951 0.218799
vt 0.499951 0.249951
vt 0.468799 0.249951
vt 0.468799 0.281299
vt 0.499951 0.281299
vt 0.499951 0.312451
vt 0.468799 0.312451
vt 0.437549 0.250049
vt 0.468701 0.250049
vt 0.468701 0.281201
vt 0.437549 0.281201
vt 0.468799 0.250049
vt 0.499951 0.250049
vt 0.499951 0.281201
vt 0.468799 0.281201
vt 0.375049 0.250049
vt 0.406201 0.250049
vt 0.406201 0.281201
vt 0.375049 0.281201
vt 0.375049 0.250049
vt 0.406201 0.250049
vt 0.406201 0.281201
vt 0.375049 0.281201
vt 0.406299 0.250049
vt 0.437451 0.250049
vt 0.437451 0.281201
vt 0.406299 0.281201
vt 0.312549 0.250049
vt 0.343701 0.250049
vt 0.343701 0.281201
vt 0.312549 0.281201
vt 0.343799 0.250049
vt 0.374951 0.250049
vt 0.374951 0.281201
vt 0.343799 0.281201
vt 0.406201 0.250049
vt 0.406201 0.281201
vt 0.468799 0.250049
vt 0.499951 0.250049
vt 0.499951 0.281201
vt 0.468799 0.281201
vn 1.0000 0.0000 0.0000
vn 0.0000 1.0000 0.0000
vn 0.4858 0.0000 0.8741
vn -0.4858 0.0000 0.8741
vn 0.4858 0.0000 -0.8741
vn -0.4858 0.0000 -0.8741
vn -1.0000 0.0000 0.0000
usemtl Sprytile_Set_Town_01
s off
f 2/1/1 1/2/1 18/3/1 5/4/1
f 8/5/1 2/6/1 5/7/1 9/8/1
f 11/9/2 10/10/2 5/11/2 18/12/2
f 15/13/3 8/14/3 9/15/3 3/16/3
f 10/17/2 11/18/2 12/19/2 20/20/2
f 3/21/2 10/22/2 20/23/2 19/24/2
f 10/25/2 3/26/2 9/27/2 5/28/2
f 14/29/2 17/30/2 6/31/2 16/32/2
f 17/33/2 11/18/2 18/34/2 6/35/2
f 11/9/2 17/36/2 4/37/2 12/38/2
f 17/39/2 14/40/2 7/41/2 4/42/2
f 1/43/1 22/44/1 6/45/1 18/46/1
f 22/47/1 21/48/1 16/49/1 6/50/1
f 25/51/4 15/52/4 3/53/4 19/54/4
f 21/55/5 24/56/5 14/57/5 16/58/5
f 24/59/6 23/60/6 7/61/6 14/62/6
f 23/63/7 13/64/7 4/65/7 7/66/7
f 13/67/7 26/68/7 12/69/7 4/70/7
f 26/68/7 27/71/7 20/72/7 12/69/7
f 27/73/7 25/74/7 19/75/7 20/76/7
