# Blender v2.79 (sub 0) OBJ File: 'Garden_Bush_02.blend'
# www.blender.org
mtllib Garden_Bush_02.mtl
o Cube
v 0.000000 0.500000 0.000000
v 0.000000 0.000000 0.000000
v 0.000000 0.000000 -0.500000
v 0.000000 0.000000 -1.000000
v 0.000000 0.500000 -1.000000
v 0.000000 0.500000 -0.500000
v 0.000000 0.750000 0.000000
v 0.000000 0.750000 -1.000000
v 0.000000 0.750000 -0.500000
vt 0.875049 0.062549
vt 0.906201 0.062549
vt 0.906201 0.093701
vt 0.875049 0.093701
vt 0.906299 0.062549
vt 0.937451 0.062549
vt 0.937451 0.093701
vt 0.906299 0.093701
vt 0.875049 0.093799
vt 0.906201 0.093799
vt 0.906201 0.109326
vt 0.875049 0.109326
vt 0.906299 0.093799
vt 0.937451 0.093799
vt 0.937451 0.109326
vt 0.906299 0.109326
vn 1.0000 0.0000 0.0000
usemtl Sprytile_Set_Town_01
s off
f 2/1/1 3/2/1 6/3/1 1/4/1
f 3/5/1 4/6/1 5/7/1 6/8/1
f 1/9/1 6/10/1 9/11/1 7/12/1
f 6/13/1 5/14/1 8/15/1 9/16/1
