# Blender v2.79 (sub 0) OBJ File: 'Hand_Rail_01.blend'
# www.blender.org
mtllib Hand_Rail_01.mtl
o Cube
v -0.125000 0.500000 -0.500000
v 0.000000 0.375000 -1.000000
v 0.000000 0.500000 0.000000
v -0.125000 0.375000 0.000000
v -0.125000 0.125000 0.000000
v 0.000000 0.125000 -1.000000
v -0.125000 0.125000 -1.000000
v 0.000000 0.000000 -1.000000
v -0.125000 0.125000 -0.500000
v 0.000000 0.125000 0.000000
v 0.000000 0.125000 -0.500000
v 0.000000 0.000000 -0.500000
v 0.000000 0.000000 0.000000
v -0.125000 0.375000 -1.000000
v -0.125000 0.375000 -0.500000
v -0.125000 0.500000 -1.000000
v -0.125000 0.500000 0.000000
v 0.000000 0.375000 0.000000
v 0.000000 0.375000 -0.500000
v 0.000000 0.500000 -0.500000
v 0.000000 0.500000 -1.000000
v -0.058401 0.000000 0.000000
v -0.058401 0.000000 -0.500000
v -0.058401 0.500000 -0.500000
v -0.058401 0.500000 0.000000
v -0.058401 0.000000 -0.500000
v -0.058401 0.000000 -1.000000
v -0.058401 0.500000 -1.000000
v -0.058401 0.500000 -0.500000
v -0.125000 0.000000 -1.000000
v -0.125000 0.000000 -0.500000
v -0.125000 0.125000 -0.500000
v -0.125000 0.125000 -1.000000
v -0.125000 0.000000 -0.500000
v -0.125000 0.000000 0.000000
v -0.125000 0.125000 0.000000
v -0.125000 0.125000 -0.500000
vt 0.375049 0.343799
vt 0.406201 0.343799
vt 0.406201 0.351514
vt 0.375049 0.351514
vt 0.375049 0.343799
vt 0.406201 0.343799
vt 0.406201 0.351514
vt 0.375049 0.351514
vt 0.375049 0.343799
vt 0.406201 0.343799
vt 0.406201 0.351514
vt 0.375049 0.351514
vt 0.375049 0.343799
vt 0.406201 0.343799
vt 0.406201 0.351514
vt 0.375049 0.351514
vt 0.375049 0.343799
vt 0.406201 0.343799
vt 0.406201 0.351514
vt 0.375049 0.351514
vt 0.375049 0.343799
vt 0.406201 0.343799
vt 0.406201 0.351514
vt 0.375049 0.351514
vt 0.375049 0.343799
vt 0.406201 0.343799
vt 0.375049 0.351514
vt 0.375049 0.343799
vt 0.406201 0.343799
vt 0.406201 0.351514
vt 0.375049 0.343799
vt 0.406201 0.343799
vt 0.406201 0.351514
vt 0.375049 0.351514
vt 0.375049 0.343799
vt 0.406201 0.343799
vt 0.406201 0.351514
vt 0.375049 0.351514
vt 0.375049 0.312549
vt 0.406201 0.312549
vt 0.406201 0.343701
vt 0.375049 0.343701
vt 0.406299 0.312549
vt 0.437451 0.312549
vt 0.437451 0.343701
vt 0.406299 0.343701
vt 0.375049 0.343799
vt 0.406201 0.343799
vt 0.406201 0.351514
vt 0.375049 0.351514
vt 0.375049 0.343799
vt 0.406201 0.343799
vt 0.406201 0.351514
vt 0.375049 0.351514
vn 0.0000 1.0000 0.0000
vn 1.0000 0.0000 0.0000
vn -1.0000 0.0000 0.0000
usemtl Sprytile_Set_Town_01
s off
f 20/1/1 21/2/1 16/3/1 1/4/1
f 3/5/1 20/6/1 1/7/1 17/8/1
f 11/9/1 6/10/1 7/11/1 9/12/1
f 10/13/1 11/14/1 9/15/1 5/16/1
f 12/17/2 8/18/2 6/19/2 11/20/2
f 13/21/2 12/22/2 11/23/2 10/24/2
f 14/25/3 15/26/3 1/7/3 16/27/3
f 15/28/3 4/29/3 17/30/3 1/4/3
f 18/31/2 19/32/2 20/33/2 3/34/2
f 19/35/2 2/36/2 21/37/2 20/38/2
f 22/39/2 23/40/2 24/41/2 25/42/2
f 26/43/2 27/44/2 28/45/2 29/46/2
f 30/47/3 31/48/3 32/49/3 33/50/3
f 34/51/3 35/52/3 36/53/3 37/54/3
