# Blender v2.79 (sub 0) OBJ File: 'Stairs_Rail_03.blend'
# www.blender.org
mtllib Stairs_Rail_03.mtl
o Cube
v -0.249941 0.250000 0.000000
v -0.249941 0.000000 0.000000
v -0.249941 0.754158 -1.000000
v -0.249941 1.250000 -2.000000
v -0.249941 1.000000 -2.000000
v -0.249941 0.504158 -1.000000
v 0.000000 0.754158 -1.000000
v 0.000000 1.250000 -2.000000
v 0.000000 0.504158 -1.000000
v 0.000000 1.000000 -2.000000
v 0.000000 1.250000 -2.250000
v 0.000000 0.000000 0.000000
v 0.000000 0.250000 0.000000
v -0.250000 0.250000 0.000000
v 0.000000 1.000000 -2.250000
v -0.249941 1.000000 -2.250000
v 0.000059 1.000000 -2.250000
v 0.000059 1.250000 -2.000000
v -0.249941 1.250000 -2.250000
v 0.000059 1.250000 -2.250000
vt 0.437451 0.421924
vt 0.375049 0.421924
vt 0.375049 0.437451
vt 0.437451 0.437451
vt 0.437451 0.421924
vt 0.375049 0.421924
vt 0.375049 0.437451
vt 0.437451 0.437451
vt 0.312451 0.359424
vt 0.250049 0.359424
vt 0.250049 0.374951
vt 0.312451 0.374951
vt 0.437451 0.421924
vt 0.375049 0.421924
vt 0.375049 0.437451
vt 0.437451 0.437451
vt 0.437451 0.421924
vt 0.375049 0.421924
vt 0.375049 0.437451
vt 0.437451 0.437451
vt 0.312451 0.359424
vt 0.250049 0.359424
vt 0.250049 0.374951
vt 0.312451 0.374951
vt 0.421924 0.421924
vt 0.437451 0.421924
vt 0.437451 0.437451
vt 0.421924 0.437451
vt 0.421924 0.421924
vt 0.437451 0.421924
vt 0.437451 0.437451
vt 0.421924 0.437451
vt 0.234424 0.390674
vt 0.249951 0.390674
vt 0.249951 0.406201
vt 0.234424 0.406201
vt 0.531299 0.359424
vt 0.546826 0.359424
vt 0.546826 0.374951
vt 0.531299 0.374951
vn 1.0000 0.0000 0.0000
vn 0.0000 0.8959 0.4442
vn 0.0000 0.8929 0.4502
vn -1.0000 0.0000 0.0000
vn 0.0000 1.0000 0.0000
vn 0.0000 0.0000 -1.0000
usemtl Sprytile_Set_Town_01
s off
f 2/1/1 6/2/1 3/3/1 1/4/1
f 6/5/1 5/6/1 4/7/1 3/8/1
f 7/9/2 8/10/2 4/11/2 3/12/2
f 9/13/1 10/14/1 8/15/1 7/16/1
f 12/17/1 9/18/1 7/19/1 13/20/1
f 13/21/3 7/22/3 3/23/3 14/24/3
f 10/25/1 15/26/1 11/27/1 8/28/1
f 16/29/4 5/30/4 4/31/4 19/32/4
f 19/33/5 4/34/5 18/35/5 20/36/5
f 17/37/6 16/38/6 19/39/6 20/40/6
