# Blender v2.79 (sub 0) OBJ File: 'Stairs_03.blend'
# www.blender.org
mtllib Stairs_03.mtl
o Cube
v 0.000000 0.000000 -1.000000
v 0.000000 1.000000 0.000000
v 0.000000 1.000000 -1.000000
v -2.000000 0.125000 -0.250000
v 0.000000 0.000000 -4.000000
v -2.000000 0.250000 -0.500000
v -2.000000 0.250000 -0.250000
v 0.000000 0.000000 0.000000
v 0.000000 0.125000 0.000000
v 0.000000 0.500000 -0.750000
v 0.000000 0.625000 -1.000000
v 0.000000 0.125000 -0.250000
v -1.000000 0.125000 -0.250000
v 0.000000 0.250000 -0.250000
v -2.000000 0.375000 -0.750000
v 0.000000 0.250000 -0.500000
v -1.000000 1.250000 -2.500000
v 0.000000 0.375000 -0.750000
v -2.000000 1.000000 -1.000000
v 0.000000 0.375000 -0.500000
v -1.000000 0.375000 -0.750000
v -1.000000 0.250000 -0.500000
v -1.000000 0.500000 -0.750000
v 0.000000 0.500000 -1.000000
v -1.000000 0.625000 -1.250000
v 0.000000 0.750000 -1.250000
v -2.000000 0.625000 -1.250000
v 0.000000 0.625000 -1.250000
v -1.000000 0.875000 -1.750000
v 0.000000 0.875000 -1.500000
v 0.000000 0.875000 -1.750000
v 0.000000 0.750000 -1.500000
v -1.000000 0.750000 -1.500000
v -2.000000 0.000000 -1.000000
v -1.000000 0.875000 -1.500000
v 0.000000 1.000000 -1.750000
v -1.000000 1.000000 -1.750000
v -1.000000 1.125000 -2.000000
v -1.000000 0.125000 0.000000
v 0.000000 1.125000 -2.000000
v -1.000000 1.000000 -2.000000
v -1.000000 0.250000 -0.250000
v -2.000000 0.000000 -2.000000
v -1.000000 0.000000 0.000000
v 0.000000 0.000000 -3.000000
v -2.000000 0.375000 -0.500000
v -2.000000 0.500000 -1.000000
v -1.000000 0.375000 -0.500000
v -1.000000 0.500000 -1.000000
v -2.000000 0.625000 -1.000000
v -2.000000 0.125000 0.000000
v -1.000000 0.625000 -1.000000
v -2.000000 0.500000 -0.750000
v -1.000000 0.750000 -1.250000
v -2.000000 0.875000 -1.500000
v -2.000000 1.000000 -1.750000
v -2.000000 0.750000 -1.250000
v -2.000000 0.875000 -1.750000
v -2.000000 0.750000 -1.500000
v -2.000000 0.000000 0.000000
v -2.000000 1.000000 0.000000
v 0.000000 0.000000 -2.000000
v 0.000000 1.000000 -3.000000
v 0.000000 1.000000 -4.000000
v 0.000000 1.000000 -2.000000
v 0.000000 2.000000 -3.000000
v 0.000000 2.000000 -2.000000
v 0.000000 2.000000 -4.000000
v -2.000000 1.000000 -2.000000
v 0.000000 1.375000 -2.500000
v -2.000000 1.125000 -2.000000
v -1.000000 1.125000 -2.250000
v 0.000000 1.125000 -2.250000
v -2.000000 1.125000 -2.250000
v -1.000000 1.250000 -2.250000
v -2.000000 1.250000 -2.250000
v 0.000000 1.250000 -2.250000
v 0.000000 1.250000 -2.500000
v -2.000000 1.250000 -2.500000
v -1.000000 1.375000 -2.500000
v -2.000000 1.375000 -2.500000
v 0.000000 1.750000 -3.250000
v 0.000000 1.625000 -3.250000
v -1.000000 1.375000 -2.750000
v -2.000000 1.375000 -2.750000
v 0.000000 1.375000 -2.750000
v 0.000000 1.500000 -2.750000
v -1.000000 1.500000 -3.000000
v -2.000000 1.500000 -2.750000
v -1.000000 1.500000 -2.750000
v -1.000000 1.625000 -3.250000
v 0.000000 1.500000 -3.000000
v -2.000000 1.500000 -3.000000
v 0.000000 1.625000 -3.000000
v -1.000000 1.625000 -3.000000
v -2.000000 1.625000 -3.000000
v -2.000000 1.625000 -3.250000
v 0.000000 1.750000 -3.500000
v 0.000000 2.000000 -3.750000
v -1.000000 1.750000 -3.250000
v -1.000000 2.000000 -4.000000
v -2.000000 1.750000 -3.250000
v 0.000000 1.875000 -3.500000
v -1.000000 1.750000 -3.500000
v -2.000000 1.750000 -3.500000
v -1.000000 1.875000 -3.500000
v -2.000000 2.000000 -4.000000
v -2.000000 1.875000 -3.500000
v -2.000000 1.875000 -3.750000
v 0.000000 1.875000 -3.750000
v -1.000000 1.875000 -3.750000
v -2.000000 1.000000 -3.000000
v -2.000000 2.000000 -3.750000
v -1.000000 2.000000 -3.750000
v -2.000000 0.000000 -3.000000
v -2.000000 2.000000 -2.000000
v -2.000000 2.000000 -3.000000
v -2.000000 0.000000 -4.000000
v -2.000000 1.000000 -4.000000
vt 0.625049 0.312549
vt 0.687451 0.312549
vt 0.687451 0.374951
vt 0.625049 0.374951
vt 0.562549 0.312549
vt 0.562549 0.374951
vt 0.187549 0.414111
vt 0.249951 0.414111
vt 0.249951 0.421826
vt 0.187549 0.421826
vt 0.187549 0.421924
vt 0.249951 0.421924
vt 0.249951 0.437451
vt 0.187549 0.437451
vt 0.187549 0.414111
vt 0.249951 0.414111
vt 0.249951 0.421826
vt 0.187549 0.421826
vt 0.187549 0.421924
vt 0.249951 0.421924
vt 0.249951 0.437451
vt 0.187549 0.437451
vt 0.187549 0.414111
vt 0.249951 0.414111
vt 0.249951 0.421826
vt 0.187549 0.421826
vt 0.187549 0.421924
vt 0.249951 0.421924
vt 0.249951 0.437451
vt 0.187549 0.437451
vt 0.187549 0.414111
vt 0.249951 0.414111
vt 0.249951 0.421826
vt 0.187549 0.421826
vt 0.187549 0.421924
vt 0.249951 0.421924
vt 0.249951 0.437451
vt 0.187549 0.437451
vt 0.187549 0.414111
vt 0.249951 0.414111
vt 0.249951 0.421826
vt 0.187549 0.421826
vt 0.187549 0.421924
vt 0.249951 0.421924
vt 0.249951 0.437451
vt 0.187549 0.437451
vt 0.187549 0.414111
vt 0.249951 0.414111
vt 0.249951 0.421826
vt 0.187549 0.421826
vt 0.187549 0.421924
vt 0.249951 0.421924
vt 0.249951 0.437451
vt 0.187549 0.437451
vt 0.187549 0.414111
vt 0.249951 0.414111
vt 0.249951 0.421826
vt 0.187549 0.421826
vt 0.187549 0.421924
vt 0.249951 0.421924
vt 0.249951 0.437451
vt 0.187549 0.437451
vt 0.187549 0.414111
vt 0.249951 0.414111
vt 0.249951 0.421826
vt 0.187549 0.421826
vt 0.187549 0.421924
vt 0.249951 0.421924
vt 0.249951 0.437451
vt 0.187549 0.437451
vt 0.249951 0.414111
vt 0.249951 0.421826
vt 0.249951 0.414111
vt 0.249951 0.421826
vt 0.249951 0.414111
vt 0.249951 0.421826
vt 0.249951 0.414111
vt 0.249951 0.421826
vt 0.249951 0.414111
vt 0.249951 0.421826
vt 0.249951 0.414111
vt 0.249951 0.421826
vt 0.249951 0.414111
vt 0.249951 0.421826
vt 0.249951 0.414111
vt 0.249951 0.421826
vt 0.249951 0.421924
vt 0.249951 0.437451
vt 0.249951 0.421924
vt 0.249951 0.437451
vt 0.249951 0.421924
vt 0.249951 0.437451
vt 0.249951 0.421924
vt 0.249951 0.437451
vt 0.249951 0.421924
vt 0.249951 0.437451
vt 0.249951 0.421924
vt 0.249951 0.437451
vt 0.249951 0.421924
vt 0.249951 0.437451
vt 0.249951 0.421924
vt 0.249951 0.437451
vt 0.687451 0.312549
vt 0.625049 0.312549
vt 0.625049 0.374951
vt 0.687451 0.374951
vt 0.562549 0.312549
vt 0.562549 0.374951
vt 0.000049 0.250049
vt 0.062451 0.250049
vt 0.062451 0.312451
vt 0.000049 0.312451
vt 0.000049 0.250049
vt 0.062451 0.250049
vt 0.062451 0.312451
vt 0.000049 0.312451
vt 0.562549 0.312549
vt 0.624951 0.312549
vt 0.624951 0.374951
vt 0.562549 0.374951
vt 0.687451 0.312549
vt 0.687451 0.374951
vt 0.187549 0.414111
vt 0.249951 0.414111
vt 0.249951 0.421826
vt 0.187549 0.421826
vt 0.187549 0.414111
vt 0.249951 0.414111
vt 0.249951 0.421826
vt 0.187549 0.421826
vt 0.187549 0.421924
vt 0.249951 0.421924
vt 0.249951 0.437451
vt 0.187549 0.437451
vt 0.187549 0.421924
vt 0.249951 0.421924
vt 0.249951 0.437451
vt 0.187549 0.437451
vt 0.187549 0.414111
vt 0.249951 0.414111
vt 0.249951 0.421826
vt 0.187549 0.421826
vt 0.187549 0.414111
vt 0.249951 0.414111
vt 0.249951 0.421826
vt 0.187549 0.421826
vt 0.187549 0.421924
vt 0.249951 0.421924
vt 0.249951 0.437451
vt 0.187549 0.437451
vt 0.187549 0.421924
vt 0.249951 0.421924
vt 0.249951 0.437451
vt 0.187549 0.437451
vt 0.187549 0.414111
vt 0.249951 0.414111
vt 0.249951 0.421826
vt 0.187549 0.421826
vt 0.187549 0.414111
vt 0.249951 0.414111
vt 0.249951 0.421826
vt 0.187549 0.421826
vt 0.187549 0.421924
vt 0.249951 0.421924
vt 0.249951 0.437451
vt 0.187549 0.437451
vt 0.187549 0.421924
vt 0.249951 0.421924
vt 0.249951 0.437451
vt 0.187549 0.437451
vt 0.187549 0.414111
vt 0.249951 0.414111
vt 0.249951 0.421826
vt 0.187549 0.421826
vt 0.187549 0.414111
vt 0.249951 0.414111
vt 0.249951 0.421826
vt 0.187549 0.421826
vt 0.187549 0.421924
vt 0.249951 0.421924
vt 0.249951 0.437451
vt 0.187549 0.437451
vt 0.187549 0.421924
vt 0.249951 0.421924
vt 0.249951 0.437451
vt 0.187549 0.437451
vt 0.187549 0.414111
vt 0.249951 0.414111
vt 0.249951 0.421826
vt 0.187549 0.421826
vt 0.187549 0.414111
vt 0.249951 0.414111
vt 0.249951 0.421826
vt 0.187549 0.421826
vt 0.187549 0.421924
vt 0.249951 0.421924
vt 0.249951 0.437451
vt 0.187549 0.437451
vt 0.187549 0.421924
vt 0.249951 0.421924
vt 0.249951 0.437451
vt 0.187549 0.437451
vt 0.187549 0.414111
vt 0.249951 0.414111
vt 0.249951 0.421826
vt 0.187549 0.421826
vt 0.187549 0.414111
vt 0.249951 0.414111
vt 0.249951 0.421826
vt 0.187549 0.421826
vt 0.187549 0.421924
vt 0.249951 0.421924
vt 0.249951 0.437451
vt 0.187549 0.437451
vt 0.187549 0.421924
vt 0.249951 0.421924
vt 0.249951 0.437451
vt 0.187549 0.437451
vt 0.187549 0.414111
vt 0.249951 0.414111
vt 0.249951 0.421826
vt 0.187549 0.421826
vt 0.187549 0.414111
vt 0.249951 0.414111
vt 0.249951 0.421826
vt 0.187549 0.421826
vt 0.187549 0.421924
vt 0.249951 0.421924
vt 0.249951 0.437451
vt 0.187549 0.437451
vt 0.187549 0.421924
vt 0.249951 0.421924
vt 0.249951 0.437451
vt 0.187549 0.437451
vt 0.187549 0.414111
vt 0.249951 0.414111
vt 0.249951 0.421826
vt 0.187549 0.421826
vt 0.187549 0.414111
vt 0.249951 0.414111
vt 0.249951 0.421826
vt 0.187549 0.421826
vt 0.187549 0.421924
vt 0.249951 0.421924
vt 0.249951 0.437451
vt 0.187549 0.437451
vt 0.187549 0.421924
vt 0.249951 0.421924
vt 0.249951 0.437451
vt 0.187549 0.437451
vt 0.687451 0.312549
vt 0.625049 0.312549
vt 0.625049 0.374951
vt 0.687451 0.374951
vt 0.562549 0.312549
vt 0.562549 0.374951
vt 0.062451 0.250049
vt 0.000049 0.250049
vt 0.000049 0.312451
vt 0.062451 0.312451
vt 0.062451 0.250049
vt 0.000049 0.250049
vt 0.000049 0.312451
vt 0.062451 0.312451
vn 1.0000 0.0000 0.0000
vn 0.0000 0.0000 1.0000
vn 0.0000 1.0000 0.0000
vn -1.0000 0.0000 0.0000
usemtl Sprytile_Set_Town_01
s off
f 1/1/1 62/2/1 65/3/1 3/4/1
f 8/5/1 1/1/1 3/4/1 2/6/1
f 44/7/2 8/8/2 9/9/2 39/10/2
f 39/11/3 9/12/3 12/13/3 13/14/3
f 13/15/2 12/16/2 14/17/2 42/18/2
f 42/19/3 14/20/3 16/21/3 22/22/3
f 22/23/2 16/24/2 20/25/2 48/26/2
f 48/27/3 20/28/3 18/29/3 21/30/3
f 21/31/2 18/32/2 10/33/2 23/34/2
f 23/35/3 10/36/3 24/37/3 49/38/3
f 49/39/2 24/40/2 11/41/2 52/42/2
f 52/43/3 11/44/3 28/45/3 25/46/3
f 25/47/2 28/48/2 26/49/2 54/50/2
f 54/51/3 26/52/3 32/53/3 33/54/3
f 33/55/2 32/56/2 30/57/2 35/58/2
f 35/59/3 30/60/3 31/61/3 29/62/3
f 29/63/2 31/64/2 36/65/2 37/66/2
f 37/67/3 36/68/3 65/69/3 41/70/3
f 4/71/2 13/15/2 42/18/2 7/72/2
f 60/73/2 44/7/2 39/10/2 51/74/2
f 6/75/2 22/23/2 48/26/2 46/76/2
f 15/77/2 21/31/2 23/34/2 53/78/2
f 47/79/2 49/39/2 52/42/2 50/80/2
f 27/81/2 25/47/2 54/50/2 57/82/2
f 59/83/2 33/55/2 35/58/2 55/84/2
f 58/85/2 29/63/2 37/66/2 56/86/2
f 55/87/3 35/59/3 29/62/3 58/88/3
f 56/89/3 37/67/3 41/70/3 69/90/3
f 57/91/3 54/51/3 33/54/3 59/92/3
f 50/93/3 52/43/3 25/46/3 27/94/3
f 53/95/3 23/35/3 49/38/3 47/96/3
f 7/97/3 42/19/3 22/22/3 6/98/3
f 46/99/3 48/27/3 21/30/3 15/100/3
f 51/101/3 39/11/3 13/14/3 4/102/3
f 43/103/4 34/104/4 19/105/4 69/106/4
f 34/104/4 60/107/4 61/108/4 19/105/4
f 62/109/1 45/110/1 63/111/1 65/112/1
f 45/113/1 5/114/1 64/115/1 63/116/1
f 65/117/1 63/118/1 66/119/1 67/120/1
f 63/118/1 64/121/1 68/122/1 66/119/1
f 41/123/2 65/124/2 40/125/2 38/126/2
f 69/127/2 41/128/2 38/129/2 71/130/2
f 38/131/3 40/132/3 73/133/3 72/134/3
f 71/135/3 38/136/3 72/137/3 74/138/3
f 74/139/2 72/140/2 75/141/2 76/142/2
f 72/143/2 73/144/2 77/145/2 75/146/2
f 75/147/3 77/148/3 78/149/3 17/150/3
f 76/151/3 75/152/3 17/153/3 79/154/3
f 17/155/2 78/156/2 70/157/2 80/158/2
f 79/159/2 17/160/2 80/161/2 81/162/2
f 81/163/3 80/164/3 84/165/3 85/166/3
f 80/167/3 70/168/3 86/169/3 84/170/3
f 84/171/2 86/172/2 87/173/2 90/174/2
f 85/175/2 84/176/2 90/177/2 89/178/2
f 89/179/3 90/180/3 88/181/3 93/182/3
f 90/183/3 87/184/3 92/185/3 88/186/3
f 88/187/2 92/188/2 94/189/2 95/190/2
f 93/191/2 88/192/2 95/193/2 96/194/2
f 96/195/3 95/196/3 91/197/3 97/198/3
f 95/199/3 94/200/3 83/201/3 91/202/3
f 91/203/2 83/204/2 82/205/2 100/206/2
f 97/207/2 91/208/2 100/209/2 102/210/2
f 100/211/3 82/212/3 98/213/3 104/214/3
f 102/215/3 100/216/3 104/217/3 105/218/3
f 105/219/2 104/220/2 106/221/2 108/222/2
f 104/223/2 98/224/2 103/225/2 106/226/2
f 108/227/3 106/228/3 111/229/3 109/230/3
f 106/231/3 103/232/3 110/233/3 111/234/3
f 111/235/2 110/236/2 99/237/2 114/238/2
f 109/239/2 111/240/2 114/241/2 113/242/2
f 113/243/3 114/244/3 101/245/3 107/246/3
f 114/247/3 99/248/3 68/249/3 101/250/3
f 119/251/4 112/252/4 117/253/4 107/254/4
f 112/252/4 69/255/4 116/256/4 117/253/4
f 115/257/4 43/258/4 69/259/4 112/260/4
f 118/261/4 115/262/4 112/263/4 119/264/4
