# Blender v2.93.5 OBJ File: 'Grasslands_Landmass_07.blend'
# www.blender.org
mtllib Grasslands_Landmass_07.mtl
o Cube
v -1.471323 -0.817671 0.502516
v -1.825335 -0.186143 0.013590
v -1.442029 -1.010426 0.013590
v -1.496957 0.598479 0.013590
v 1.087070 -0.625188 -0.765426
v 1.465962 0.677119 0.013590
v 1.440617 -0.925069 0.013590
v 1.266417 -0.732314 0.483300
v -0.452407 -1.155702 0.013590
v 0.562941 0.750368 -1.072089
v -0.481130 0.537839 0.811732
v -1.530976 -0.186143 -0.879695
v 1.526180 -0.186143 0.582168
v 0.607673 -0.929801 0.729518
v -1.275444 -0.710545 -0.773113
v -1.631153 0.468378 0.013590
v 1.600158 0.427119 0.013590
v 1.291762 0.575623 0.428373
v 1.700380 -0.186143 0.013590
v -1.464568 0.371137 -0.978840
v 0.607673 -0.809880 -0.844255
v -0.452407 -0.809880 -0.749216
v 0.607673 -1.155702 0.013590
v 0.607673 0.512968 0.830563
v 0.607673 0.517224 -1.161553
v -1.660446 0.366881 0.537054
v -0.452407 -0.929801 0.800152
v 0.571187 -0.225486 -1.062407
v 1.346833 -0.186143 -0.872007
v -0.480349 -0.110960 -0.968094
v 0.553794 -0.286298 0.894894
v -0.506315 -0.162886 0.965527
v -1.726854 -0.186143 0.601384
v -0.452407 0.334142 0.901196
v 0.667758 0.725587 0.689204
v 1.425959 0.325623 0.517837
v 0.559820 0.864465 0.022039
v 1.246612 0.329879 -0.971153
v 1.185772 0.767224 -0.881689
v -0.452407 0.396334 -1.066514
v -0.407675 0.722232 0.013590
v -1.526250 0.550018 0.447589
v -1.330371 0.528727 -0.889376
v -0.407675 0.572974 -0.919082
vt 0.750098 0.875098
vt 0.874902 0.875098
vt 0.874902 0.999902
vt 0.750098 0.999902
vt 0.750098 0.875098
vt 0.874902 0.875098
vt 0.874902 0.999902
vt 0.750098 0.999902
vt 0.750098 0.875098
vt 0.874902 0.875098
vt 0.874902 0.999902
vt 0.750098 0.999902
vt 0.750098 0.875098
vt 0.874902 0.875098
vt 0.874902 0.999902
vt 0.750098 0.999902
vt 0.750098 0.875098
vt 0.874902 0.875098
vt 0.874902 0.999902
vt 0.750098 0.999902
vt 0.750098 0.875098
vt 0.874902 0.875098
vt 0.874902 0.999902
vt 0.750098 0.999902
vt 0.750098 0.875098
vt 0.874902 0.875098
vt 0.874902 0.999902
vt 0.750098 0.999902
vt 0.750098 0.875098
vt 0.874902 0.875098
vt 0.874902 0.999902
vt 0.750098 0.999902
vt 0.750098 0.875098
vt 0.874902 0.875098
vt 0.874902 0.999902
vt 0.750098 0.999902
vt 0.750098 0.875098
vt 0.874902 0.875098
vt 0.874902 0.999902
vt 0.750098 0.999902
vt 0.874902 0.875098
vt 0.874902 0.999902
vt 0.750098 0.999902
vt 0.750098 0.875098
vt 0.874902 0.999902
vt 0.750098 0.999902
vt 0.750098 0.875098
vt 0.874902 0.875098
vt 0.874902 0.999902
vt 0.750098 0.999902
vt 0.750098 0.875098
vt 0.874902 0.875098
vt 0.874902 0.999902
vt 0.750098 0.999902
vt 0.874902 0.875098
vt 0.874902 0.999902
vt 0.750098 0.999902
vt 0.750098 0.875098
vt 0.874902 0.999902
vt 0.750098 0.999902
vt 0.750098 0.875098
vt 0.874902 0.999902
vt 0.750098 0.999902
vt 0.750098 0.875098
vt 0.874902 0.875098
vt 0.874902 0.999902
vt 0.750098 0.999902
vt 0.750098 0.875098
vt 0.874902 0.875098
vt 0.874902 0.999902
vt 0.750098 0.999902
vt 0.750098 0.875098
vt 0.874902 0.875098
vt 0.874902 0.999902
vt 0.750098 0.999902
vt 0.874902 0.875098
vt 0.874902 0.999902
vt 0.750098 0.999902
vt 0.874902 0.875098
vt 0.874902 0.999902
vt 0.750098 0.999902
vt 0.750098 0.875098
vt 0.874902 0.999902
vt 0.750098 0.999902
vt 0.750098 0.875098
vt 0.874902 0.875098
vt 0.874902 0.999902
vt 0.750098 0.999902
vt 0.750098 0.875098
vt 0.874902 0.875098
vt 0.874902 0.999902
vt 0.750098 0.999902
vt 0.750098 0.875098
vt 0.874902 0.875098
vt 0.874902 0.999902
vt 0.750098 0.999902
vt 0.746094 0.878906
vt 0.882812 0.878906
vt 0.874902 0.902344
vt 0.757812 0.906152
vt 0.746094 0.875098
vt 0.871094 0.875098
vt 0.882812 0.906152
vt 0.746094 0.906152
vt 0.753906 0.875098
vt 0.867188 0.875098
vt 0.855469 0.910156
vt 0.769531 0.902344
vt 0.765625 0.875098
vt 0.863281 0.875098
vt 0.859375 0.906152
vt 0.773438 0.910156
vt 0.750098 0.875098
vt 0.867188 0.871094
vt 0.863281 0.910156
vt 0.757812 0.910156
vt 0.769531 0.875098
vt 0.851562 0.875098
vt 0.855469 0.906152
vt 0.781250 0.910156
vt 0.750098 0.871094
vt 0.874902 0.875098
vt 0.871094 0.902344
vt 0.753906 0.902344
vt 0.761719 0.878906
vt 0.867188 0.878906
vt 0.851562 0.902344
vt 0.757812 0.906152
vt 0.757812 0.878906
vt 0.871094 0.878906
vt 0.867188 0.902344
vt 0.765625 0.906152
vt 0.765625 0.875098
vt 0.863281 0.875098
vt 0.851562 0.906152
vt 0.761719 0.898438
vt 0.867188 0.875098
vt 0.871094 0.960938
vt 0.765625 0.999902
vt 0.753906 0.871094
vt 0.777344 0.890625
vt 0.753906 0.988281
vt 0.867188 0.992188
vt 0.871094 0.886719
vt 0.761719 0.894531
vt 0.746094 0.999902
vt 0.859375 0.999902
vt 0.878906 0.875098
vt 0.871094 0.863281
vt 0.878906 0.996094
vt 0.742188 0.996094
vt 0.757812 0.878906
vt 0.757812 0.894531
vt 0.769531 1.003906
vt 0.847656 0.953125
vt 0.871094 0.867188
vt 0.757812 0.875098
vt 0.753906 0.999902
vt 0.867188 0.999902
vt 0.824219 0.898438
vn -0.9897 -0.1126 -0.0878
vn -0.7746 -0.0808 0.6273
vn -0.7136 0.3927 0.5801
vn -0.8766 0.4754 -0.0746
vn -0.5602 -0.8259 -0.0640
vn -0.5678 -0.6122 0.5502
vn -0.0767 -0.9958 -0.0504
vn -0.1041 -0.6637 0.7407
vn 0.1587 -0.9865 -0.0407
vn 0.1991 -0.6686 0.7165
vn 0.6767 -0.7356 -0.0306
vn 0.5533 -0.5647 0.6123
vn 0.9922 -0.1218 -0.0250
vn 0.7207 -0.0857 0.6879
vn 0.9535 0.3010 0.0163
vn 0.6782 0.2968 0.6722
vn 0.4789 -0.5763 -0.6622
vn 0.6914 -0.1827 -0.6990
vn 0.6424 0.1232 -0.7564
vn 0.1159 -0.6833 -0.7208
vn -0.0763 -0.6845 -0.7250
vn -0.4013 -0.6071 -0.6858
vn -0.6646 -0.1880 -0.7231
vn -0.5889 0.3363 -0.7349
vn -0.0755 -0.2261 -0.9712
vn 0.0718 -0.2463 -0.9665
vn 0.0927 0.1547 -0.9836
vn -0.1066 0.2015 -0.9737
vn 0.1964 -0.0840 0.9769
vn -0.1241 -0.0482 0.9911
vn -0.1108 0.2895 0.9507
vn 0.1908 0.3146 0.9298
vn -0.1415 0.7631 0.6306
vn -0.4359 0.7991 0.4139
vn 0.1671 0.7958 0.5820
vn 0.5041 0.7002 0.5055
vn 0.6613 0.7474 0.0636
vn 0.5148 0.7183 -0.4679
vn 0.0183 0.7945 -0.6070
vn -0.1432 0.8416 -0.5207
vn -0.3076 0.8410 -0.4450
vn -0.4358 0.8998 -0.0176
vn -0.1220 0.9919 0.0363
vn 0.0027 0.9973 0.0732
usemtl Grassland_Tileatlas_01
s 1
f 2/1/1 33/2/2 26/3/3 16/4/4
f 3/5/5 1/6/6 33/7/2 2/8/1
f 9/9/7 27/10/8 1/11/6 3/12/5
f 27/13/8 9/14/7 23/15/9 14/16/10
f 14/17/10 23/18/9 7/19/11 8/20/12
f 8/21/12 7/22/11 19/23/13 13/24/14
f 13/25/14 19/26/13 17/27/15 36/28/16
f 7/29/11 5/30/17 29/31/18 19/32/13
f 19/33/13 29/34/18 38/35/19 17/36/15
f 23/37/9 21/38/20 5/39/17 7/40/11
f 9/9/7 22/41/21 21/42/20 23/43/9
f 22/44/21 9/14/7 3/45/5 15/46/22
f 15/47/22 3/48/5 2/49/1 12/50/23
f 12/51/23 2/52/1 16/53/4 20/54/24
f 22/44/21 15/55/22 12/56/23 30/57/25
f 21/58/20 22/41/21 30/59/25 28/60/26
f 5/61/17 21/38/20 28/62/26 29/63/18
f 29/64/18 28/65/26 25/66/27 38/67/19
f 28/68/26 30/69/25 40/70/28 25/71/27
f 30/72/25 12/73/23 20/74/24 40/75/28
f 14/17/10 8/76/12 13/77/14 31/78/29
f 27/13/8 14/79/10 31/80/29 32/81/30
f 1/82/6 27/10/8 32/83/30 33/84/2
f 33/85/2 32/86/30 34/87/31 26/88/3
f 32/89/30 31/90/29 24/91/32 34/92/31
f 31/93/29 13/94/14 36/95/16 24/96/32
f 26/97/3 34/98/31 11/99/33 42/100/34
f 34/101/31 24/102/32 35/103/35 11/104/33
f 24/105/32 36/106/16 18/107/36 35/108/35
f 36/109/16 17/110/15 6/111/37 18/112/36
f 17/113/15 38/114/19 39/115/38 6/116/37
f 38/117/19 25/118/27 10/119/39 39/120/38
f 25/121/27 40/122/28 44/123/40 10/124/39
f 40/125/28 20/126/24 43/127/41 44/128/40
f 20/129/24 16/130/4 4/131/42 43/132/41
f 16/133/4 26/134/3 42/135/34 4/136/42
f 4/137/42 42/138/34 11/139/33 41/140/43
f 43/141/41 4/142/42 41/143/43 44/144/40
f 44/145/40 41/146/43 37/147/44 10/148/39
f 41/149/43 11/150/33 35/151/35 37/152/44
f 37/153/44 35/154/35 18/155/36 6/156/37
f 10/157/39 37/158/44 6/159/37 39/160/38
