# Blender v2.93.5 OBJ File: 'Grasslands_Landmass_05.blend'
# www.blender.org
mtllib Grasslands_Landmass_05.mtl
o Cube
v -1.335648 -0.947117 0.737322
v -1.580181 -0.186143 0.013590
v -1.306355 -1.103367 0.013590
v -1.318210 0.661378 0.013590
v 0.961149 -0.830510 -0.872007
v 1.413397 0.781277 0.013590
v 1.314695 -1.018010 0.013590
v 1.140496 -0.861760 0.718105
v -0.452407 -1.248643 0.013590
v 0.502861 0.764421 -0.972943
v -0.481130 0.734974 1.074501
v -1.285821 -0.186143 -0.879695
v 1.373394 -0.186143 0.780605
v 0.547593 -1.082397 0.843331
v -1.139769 -0.915867 -0.879695
v -1.452407 0.531277 0.013590
v 1.547593 0.531277 0.013590
v 1.239197 0.781277 0.691141
v 1.547593 -0.186143 0.013590
v -1.285821 0.531277 -0.879695
v 0.547593 -1.015202 -0.950837
v -0.452407 -1.015202 -0.855798
v 0.547593 -1.248643 0.013590
v 0.547593 0.531277 1.093331
v 0.547593 0.531277 -1.062407
v -1.481700 0.531277 0.799822
v -0.452407 -1.082397 0.913965
v 0.511107 -0.225486 -1.062407
v 1.194047 -0.186143 -0.872007
v -0.480349 -0.110960 -0.968094
v 0.493715 -0.286298 1.093331
v -0.506315 -0.162886 1.163965
v -1.481700 -0.186143 0.799822
v -0.452407 0.531277 1.163965
v 0.607679 0.743895 0.951973
v 1.373394 0.531277 0.780605
v 0.499740 0.781277 0.022039
v 1.194047 0.531277 -0.872007
v 1.059850 0.781277 -0.782543
v -0.452407 0.531277 -0.967368
v -0.407675 0.817870 0.013590
v -1.347504 0.714414 0.710358
v -1.151625 0.688867 -0.790231
v -0.407675 0.707916 -0.819937
vt 0.750098 0.875098
vt 0.874902 0.875098
vt 0.874902 0.999902
vt 0.750098 0.999902
vt 0.750098 0.875098
vt 0.874902 0.875098
vt 0.874902 0.999902
vt 0.750098 0.999902
vt 0.750098 0.875098
vt 0.874902 0.875098
vt 0.874902 0.999902
vt 0.750098 0.999902
vt 0.750098 0.875098
vt 0.874902 0.875098
vt 0.874902 0.999902
vt 0.750098 0.999902
vt 0.750098 0.875098
vt 0.874902 0.875098
vt 0.874902 0.999902
vt 0.750098 0.999902
vt 0.750098 0.875098
vt 0.874902 0.875098
vt 0.874902 0.999902
vt 0.750098 0.999902
vt 0.750098 0.875098
vt 0.874902 0.875098
vt 0.874902 0.999902
vt 0.750098 0.999902
vt 0.750098 0.875098
vt 0.874902 0.875098
vt 0.874902 0.999902
vt 0.750098 0.999902
vt 0.750098 0.875098
vt 0.874902 0.875098
vt 0.874902 0.999902
vt 0.750098 0.999902
vt 0.750098 0.875098
vt 0.874902 0.875098
vt 0.874902 0.999902
vt 0.750098 0.999902
vt 0.874902 0.875098
vt 0.874902 0.999902
vt 0.750098 0.999902
vt 0.750098 0.875098
vt 0.874902 0.999902
vt 0.750098 0.999902
vt 0.750098 0.875098
vt 0.874902 0.875098
vt 0.874902 0.999902
vt 0.750098 0.999902
vt 0.750098 0.875098
vt 0.874902 0.875098
vt 0.874902 0.999902
vt 0.750098 0.999902
vt 0.874902 0.875098
vt 0.874902 0.999902
vt 0.750098 0.999902
vt 0.750098 0.875098
vt 0.874902 0.999902
vt 0.750098 0.999902
vt 0.750098 0.875098
vt 0.874902 0.999902
vt 0.750098 0.999902
vt 0.750098 0.875098
vt 0.874902 0.875098
vt 0.874902 0.999902
vt 0.750098 0.999902
vt 0.750098 0.875098
vt 0.874902 0.875098
vt 0.874902 0.999902
vt 0.750098 0.999902
vt 0.750098 0.875098
vt 0.874902 0.875098
vt 0.874902 0.999902
vt 0.750098 0.999902
vt 0.874902 0.875098
vt 0.874902 0.999902
vt 0.750098 0.999902
vt 0.874902 0.875098
vt 0.874902 0.999902
vt 0.750098 0.999902
vt 0.750098 0.875098
vt 0.874902 0.999902
vt 0.750098 0.999902
vt 0.750098 0.875098
vt 0.874902 0.875098
vt 0.874902 0.999902
vt 0.750098 0.999902
vt 0.750098 0.875098
vt 0.874902 0.875098
vt 0.874902 0.999902
vt 0.750098 0.999902
vt 0.750098 0.875098
vt 0.874902 0.875098
vt 0.874902 0.999902
vt 0.750098 0.999902
vt 0.625098 0.843848
vt 0.749902 0.843848
vt 0.749902 0.874902
vt 0.625098 0.874902
vt 0.625098 0.843848
vt 0.749902 0.843848
vt 0.749902 0.874902
vt 0.625098 0.874902
vt 0.625098 0.843848
vt 0.749902 0.843848
vt 0.749902 0.874902
vt 0.625098 0.874902
vt 0.625098 0.843848
vt 0.749902 0.843848
vt 0.749902 0.874902
vt 0.625098 0.874902
vt 0.625098 0.843848
vt 0.749902 0.843848
vt 0.749902 0.874902
vt 0.625098 0.874902
vt 0.625098 0.843848
vt 0.749902 0.843848
vt 0.749902 0.874902
vt 0.625098 0.874902
vt 0.625098 0.843848
vt 0.749902 0.843848
vt 0.749902 0.874902
vt 0.625098 0.874902
vt 0.625098 0.843848
vt 0.749902 0.843848
vt 0.749902 0.874902
vt 0.625098 0.874902
vt 0.625098 0.843848
vt 0.749902 0.843848
vt 0.749902 0.874902
vt 0.625098 0.874902
vt 0.625098 0.843848
vt 0.749902 0.843848
vt 0.749902 0.874902
vt 0.625098 0.874902
vt 0.375098 0.875098
vt 0.499902 0.875098
vt 0.499902 0.999902
vt 0.375098 0.999902
vt 0.375098 0.875098
vt 0.499902 0.875098
vt 0.499902 0.999902
vt 0.375098 0.999902
vt 0.375098 0.875098
vt 0.499902 0.875098
vt 0.499902 0.999902
vt 0.375098 0.999902
vt 0.375098 0.875098
vt 0.499902 0.875098
vt 0.499902 0.999902
vt 0.375098 0.999902
vt 0.375098 0.875098
vt 0.499902 0.875098
vt 0.499902 0.999902
vt 0.375098 0.999902
vt 0.375098 0.875098
vt 0.499902 0.875098
vt 0.499902 0.999902
vt 0.375098 0.999902
vn -0.9919 -0.0778 -0.1007
vn -0.7953 -0.1025 0.5975
vn -0.7646 0.3303 0.5533
vn -0.9134 0.3940 -0.1023
vn -0.6534 -0.7540 -0.0668
vn -0.6215 -0.5845 0.5216
vn -0.0835 -0.9961 -0.0284
vn -0.1114 -0.7150 0.6902
vn 0.1678 -0.9855 -0.0251
vn 0.1978 -0.7271 0.6573
vn 0.7306 -0.6811 -0.0475
vn 0.5935 -0.5565 0.5813
vn 0.9862 -0.1485 -0.0726
vn 0.7485 -0.1443 0.6472
vn 0.9646 0.2533 -0.0732
vn 0.7327 0.2494 0.6332
vn 0.5400 -0.5003 -0.6768
vn 0.6821 -0.1128 -0.7224
vn 0.6620 0.2377 -0.7107
vn 0.1373 -0.6634 -0.7356
vn -0.0941 -0.6778 -0.7291
vn -0.4852 -0.5385 -0.6889
vn -0.6541 -0.0716 -0.7530
vn -0.6236 0.3825 -0.6817
vn -0.0876 -0.0462 -0.9951
vn 0.0797 -0.0659 -0.9946
vn 0.0975 0.2327 -0.9676
vn -0.1016 0.2905 -0.9514
vn 0.1919 -0.1426 0.9710
vn -0.1358 -0.1134 0.9842
vn -0.1181 0.2454 0.9622
vn 0.1998 0.2359 0.9510
vn -0.1111 0.8169 0.5660
vn -0.4662 0.8275 0.3128
vn 0.1392 0.8249 0.5479
vn 0.4186 0.8154 0.3999
vn 0.5581 0.8285 -0.0457
vn 0.3738 0.8083 -0.4548
vn 0.0309 0.8157 -0.5776
vn -0.0878 0.8675 -0.4895
vn -0.3158 0.8560 -0.4093
vn -0.4686 0.8811 -0.0632
vn -0.0504 0.9986 -0.0143
vn -0.0068 1.0000 0.0023
usemtl Grassland_Tileatlas_01
s 1
f 2/1/1 33/2/2 26/3/3 16/4/4
f 3/5/5 1/6/6 33/7/2 2/8/1
f 9/9/7 27/10/8 1/11/6 3/12/5
f 27/13/8 9/14/7 23/15/9 14/16/10
f 14/17/10 23/18/9 7/19/11 8/20/12
f 8/21/12 7/22/11 19/23/13 13/24/14
f 13/25/14 19/26/13 17/27/15 36/28/16
f 7/29/11 5/30/17 29/31/18 19/32/13
f 19/33/13 29/34/18 38/35/19 17/36/15
f 23/37/9 21/38/20 5/39/17 7/40/11
f 9/9/7 22/41/21 21/42/20 23/43/9
f 22/44/21 9/14/7 3/45/5 15/46/22
f 15/47/22 3/48/5 2/49/1 12/50/23
f 12/51/23 2/52/1 16/53/4 20/54/24
f 22/44/21 15/55/22 12/56/23 30/57/25
f 21/58/20 22/41/21 30/59/25 28/60/26
f 5/61/17 21/38/20 28/62/26 29/63/18
f 29/64/18 28/65/26 25/66/27 38/67/19
f 28/68/26 30/69/25 40/70/28 25/71/27
f 30/72/25 12/73/23 20/74/24 40/75/28
f 14/17/10 8/76/12 13/77/14 31/78/29
f 27/13/8 14/79/10 31/80/29 32/81/30
f 1/82/6 27/10/8 32/83/30 33/84/2
f 33/85/2 32/86/30 34/87/31 26/88/3
f 32/89/30 31/90/29 24/91/32 34/92/31
f 31/93/29 13/94/14 36/95/16 24/96/32
f 26/97/3 34/98/31 11/99/33 42/100/34
f 34/101/31 24/102/32 35/103/35 11/104/33
f 24/105/32 36/106/16 18/107/36 35/108/35
f 36/109/16 17/110/15 6/111/37 18/112/36
f 17/113/15 38/114/19 39/115/38 6/116/37
f 38/117/19 25/118/27 10/119/39 39/120/38
f 25/121/27 40/122/28 44/123/40 10/124/39
f 40/125/28 20/126/24 43/127/41 44/128/40
f 20/129/24 16/130/4 4/131/42 43/132/41
f 16/133/4 26/134/3 42/135/34 4/136/42
f 4/137/42 42/138/34 11/139/33 41/140/43
f 43/141/41 4/142/42 41/143/43 44/144/40
f 44/145/40 41/146/43 37/147/44 10/148/39
f 41/149/43 11/150/33 35/151/35 37/152/44
f 37/153/44 35/154/35 18/155/36 6/156/37
f 10/157/39 37/158/44 6/159/37 39/160/38
