# Blender v2.93.5 OBJ File: 'Grasslands_Landmass_02.blend'
# www.blender.org
mtllib Grasslands_Landmass_02.mtl
o Cube
v -1.000000 -0.687500 1.000000
v 0.843750 -0.687500 -0.937500
v 1.342274 -1.500000 1.436024
v 0.000000 -0.531250 0.000000
v -0.125000 -0.562500 1.187500
v 1.281250 -0.562500 0.000000
v -1.312869 -1.250000 -1.312869
v 1.594119 -1.250000 0.000000
v 1.447062 -0.812500 0.000000
v 0.000000 -0.562500 -1.312500
v -1.250000 -0.562500 0.000000
v -1.312869 -1.250000 1.312869
v 1.529774 -1.500000 -1.529774
v -1.000000 -0.562500 -1.000000
v -0.000000 -1.250000 1.437869
v -0.000000 -1.500000 1.654774
v 0.947062 -0.812500 1.072062
v 0.781250 -0.562500 0.906250
v 1.312869 -1.250000 -1.312869
v 1.009562 -0.937500 -1.103312
v 0.000000 -0.812500 -1.478312
v -1.165812 -0.812500 -1.165812
v -1.415812 -0.812500 0.000000
v -1.165812 -0.937500 1.165812
v -0.125000 -0.812500 1.353312
v -1.529774 -1.500000 -1.529774
v 1.811024 -1.500000 0.000000
v 1.125369 -1.250000 1.219119
v -1.529774 -1.500000 1.529774
v -0.000000 -1.500000 -1.842274
v -0.000000 -1.250000 -1.625369
v -1.779774 -1.500000 0.000000
v -1.562869 -1.250000 0.000000
vt 0.375098 0.875098
vt 0.499902 0.875098
vt 0.499902 0.999902
vt 0.375098 0.999902
vt 0.375098 0.875098
vt 0.499902 0.875098
vt 0.499902 0.999902
vt 0.375098 0.999902
vt 0.375098 0.875098
vt 0.499902 0.875098
vt 0.499902 0.999902
vt 0.375098 0.999902
vt 0.375098 0.875098
vt 0.499902 0.875098
vt 0.499902 0.999902
vt 0.375098 0.999902
vt 0.625098 0.843848
vt 0.749902 0.843848
vt 0.749902 0.874902
vt 0.625098 0.874902
vt 0.625098 0.843848
vt 0.749902 0.843848
vt 0.749902 0.874902
vt 0.625098 0.874902
vt 0.625098 0.843848
vt 0.749902 0.843848
vt 0.749902 0.874902
vt 0.625098 0.874902
vt 0.625098 0.843848
vt 0.749902 0.843848
vt 0.749902 0.874902
vt 0.625098 0.874902
vt 0.625098 0.843848
vt 0.749902 0.843848
vt 0.749902 0.874902
vt 0.625098 0.874902
vt 0.625098 0.843848
vt 0.749902 0.843848
vt 0.749902 0.874902
vt 0.625098 0.874902
vt 0.625098 0.843848
vt 0.749902 0.843848
vt 0.749902 0.874902
vt 0.625098 0.874902
vt 0.625098 0.843848
vt 0.749902 0.843848
vt 0.749902 0.874902
vt 0.625098 0.874902
vt 0.734375 0.941406
vt 0.898438 0.941406
vt 0.890625 0.996094
vt 0.742188 0.999902
vt 0.726562 0.937598
vt 0.890625 0.933594
vt 0.874902 0.992188
vt 0.726562 0.992188
vt 0.730469 0.937598
vt 0.898438 0.937598
vt 0.894531 0.996094
vt 0.761719 0.988281
vt 0.726562 0.933594
vt 0.894531 0.945312
vt 0.882812 1.003906
vt 0.730469 0.992188
vt 0.730469 0.937598
vt 0.898438 0.941406
vt 0.894531 0.999902
vt 0.746094 0.999902
vt 0.726562 0.941406
vt 0.894531 0.941406
vt 0.878906 0.984375
vt 0.730469 0.996094
vt 0.730469 0.941406
vt 0.894531 0.941406
vt 0.878906 0.996094
vt 0.746094 0.984375
vt 0.746094 0.941406
vt 0.890625 0.937598
vt 0.871094 0.996094
vt 0.734375 0.996094
vt 0.625098 0.812598
vt 0.749902 0.812598
vt 0.749902 0.843652
vt 0.625098 0.843652
vt 0.625098 0.812598
vt 0.749902 0.812598
vt 0.749902 0.843652
vt 0.625098 0.843652
vt 0.625098 0.812598
vt 0.749902 0.812598
vt 0.749902 0.843652
vt 0.625098 0.843652
vt 0.625098 0.812598
vt 0.749902 0.812598
vt 0.749902 0.843652
vt 0.625098 0.843652
vt 0.625098 0.812598
vt 0.749902 0.812598
vt 0.749902 0.843652
vt 0.625098 0.843652
vt 0.625098 0.812598
vt 0.749902 0.812598
vt 0.749902 0.843652
vt 0.625098 0.843652
vt 0.625098 0.812598
vt 0.749902 0.812598
vt 0.749902 0.843652
vt 0.625098 0.843652
vt 0.625098 0.812598
vt 0.749902 0.812598
vt 0.749902 0.843652
vt 0.625098 0.843652
vn 0.0039 1.0000 -0.0024
vn 0.0604 0.8558 -0.5137
vn -0.3861 0.8489 -0.3609
vn -0.5075 0.8611 0.0305
vn 0.5233 0.8521 -0.0103
vn 0.4009 0.8215 -0.4055
vn 0.3240 0.8544 0.4063
vn -0.0137 0.8610 0.5083
vn -0.4046 0.8146 0.4155
vn 0.5554 0.5850 -0.5910
vn 0.0463 0.5266 -0.8488
vn -0.6259 0.5038 -0.5953
vn -0.8726 0.4881 0.0197
vn -0.5904 0.4975 0.6355
vn -0.0010 0.4605 0.8877
vn 0.5498 0.4926 0.6746
vn 0.8282 0.5599 0.0230
vn 0.5093 0.6111 0.6059
vn 0.7885 0.6128 0.0515
vn 0.5273 0.6860 -0.5013
vn 0.0098 0.5835 -0.8120
vn -0.5651 0.6257 -0.5378
vn -0.8356 0.5492 0.0036
vn -0.5134 0.6436 0.5675
vn 0.0498 0.5158 0.8553
vn -0.4495 0.7559 0.4758
vn 0.0298 0.6785 0.7339
vn 0.4479 0.7387 0.5037
vn 0.7117 0.7011 0.0440
vn 0.4741 0.7462 -0.4673
vn 0.0000 0.6937 -0.7203
vn -0.4764 0.7476 -0.4628
vn -0.7272 0.6864 0.0000
usemtl Grassland_Tileatlas_01
s 1
f 4/1/1 10/2/2 14/3/3 11/4/4
f 6/5/5 2/6/6 10/7/2 4/8/1
f 18/9/7 6/10/5 4/11/1 5/12/8
f 5/13/8 4/14/1 11/15/4 1/16/9
f 20/17/10 21/18/11 10/19/2 2/20/6
f 21/21/11 22/22/12 14/23/3 10/24/2
f 22/25/12 23/26/13 11/27/4 14/28/3
f 23/29/13 24/30/14 1/31/9 11/32/4
f 24/33/14 25/34/15 5/35/8 1/36/9
f 25/37/15 17/38/16 18/39/7 5/40/8
f 17/41/16 9/42/17 6/43/5 18/44/7
f 9/45/17 20/46/10 2/47/6 6/48/5
f 28/49/18 8/50/19 9/51/17 17/52/16
f 8/53/19 19/54/20 20/55/10 9/56/17
f 19/57/20 31/58/21 21/59/11 20/60/10
f 31/61/21 7/62/22 22/63/12 21/64/11
f 7/65/22 33/66/23 23/67/13 22/68/12
f 33/69/23 12/70/24 24/71/14 23/72/13
f 12/73/24 15/74/25 25/75/15 24/76/14
f 15/77/25 28/78/18 17/79/16 25/80/15
f 29/81/26 16/82/27 15/83/25 12/84/24
f 16/85/27 3/86/28 28/87/18 15/88/25
f 3/89/28 27/90/29 8/91/19 28/92/18
f 27/93/29 13/94/30 19/95/20 8/96/19
f 13/97/30 30/98/31 31/99/21 19/100/20
f 30/101/31 26/102/32 7/103/22 31/104/21
f 26/105/32 32/106/33 33/107/23 7/108/22
f 32/109/33 29/110/26 12/111/24 33/112/23
