# Blender v2.93.5 OBJ File: 'Grasslands_Landmass_06.blend'
# www.blender.org
mtllib Grasslands_Landmass_06.mtl
o Cube
v -1.339317 -0.594217 0.924436
v -1.485369 0.231044 -0.013064
v -1.339317 -0.750467 -0.013064
v -1.351173 0.361145 -0.013064
v 1.196677 -0.477610 -0.928008
v 1.380435 0.481044 -0.013064
v 1.281733 -0.665110 -0.013064
v 1.272282 -0.508860 0.877182
v -0.485369 -0.895743 -0.013064
v 0.469899 0.464187 -0.999598
v -0.514093 0.434741 1.047846
v -1.485369 0.231044 -0.946852
v 1.505180 0.231044 0.939682
v 0.514631 -0.508777 0.816677
v -1.339317 -0.562967 -0.946852
v 1.514631 0.166757 -0.013064
v 1.370984 0.481044 0.850218
v 0.514631 -0.441582 -0.977491
v -0.485369 -0.662302 -0.882452
v 0.514631 -0.675023 -0.013064
v 0.532997 0.165293 1.066677
v 0.514631 0.231044 -1.089062
v -1.485369 0.231044 0.986936
v -0.485369 -0.729497 0.887310
v 1.429575 0.166757 -0.928008
v -0.485369 0.231044 -0.994023
v -0.485369 0.231044 1.137310
v 0.574716 0.443662 0.925318
v 0.466778 0.481044 -0.004615
v 1.295378 0.481044 -0.838544
v -0.440637 0.517637 -0.013064
v -1.351173 0.414181 0.897472
v -1.351173 0.388634 -0.857388
v -0.440637 0.407683 -0.846591
vt 0.750098 0.875098
vt 0.874902 0.875098
vt 0.874902 0.999902
vt 0.750098 0.999902
vt 0.750098 0.875098
vt 0.874902 0.875098
vt 0.874902 0.999902
vt 0.750098 0.999902
vt 0.750098 0.875098
vt 0.874902 0.875098
vt 0.874902 0.999902
vt 0.750098 0.999902
vt 0.750098 0.875098
vt 0.874902 0.875098
vt 0.874902 0.999902
vt 0.750098 0.999902
vt 0.750098 0.875098
vt 0.874902 0.875098
vt 0.874902 0.999902
vt 0.750098 0.999902
vt 0.750098 0.875098
vt 0.874902 0.875098
vt 0.874902 0.999902
vt 0.750098 0.999902
vt 0.750098 0.875098
vt 0.874902 0.875098
vt 0.874902 0.999902
vt 0.750098 0.999902
vt 0.874902 0.875098
vt 0.874902 0.999902
vt 0.750098 0.999902
vt 0.750098 0.875098
vt 0.874902 0.999902
vt 0.750098 0.999902
vt 0.750098 0.875098
vt 0.874902 0.875098
vt 0.874902 0.999902
vt 0.750098 0.999902
vt 0.874902 0.875098
vt 0.874902 0.999902
vt 0.750098 0.999902
vt 0.750098 0.875098
vt 0.874902 0.999902
vt 0.750098 0.999902
vt 0.750098 0.875098
vt 0.874902 0.999902
vt 0.750098 0.999902
vt 0.874902 0.875098
vt 0.874902 0.999902
vt 0.750098 0.999902
vt 0.874902 0.875098
vt 0.874902 0.999902
vt 0.750098 0.999902
vt 0.750098 0.875098
vt 0.874902 0.999902
vt 0.750098 0.999902
vt 0.625098 0.843848
vt 0.749902 0.843848
vt 0.749902 0.874902
vt 0.625098 0.874902
vt 0.625098 0.843848
vt 0.749902 0.843848
vt 0.749902 0.874902
vt 0.625098 0.874902
vt 0.625098 0.843848
vt 0.749902 0.843848
vt 0.749902 0.874902
vt 0.625098 0.874902
vt 0.625098 0.843848
vt 0.749902 0.843848
vt 0.749902 0.874902
vt 0.625098 0.874902
vt 0.625098 0.843848
vt 0.749902 0.843848
vt 0.749902 0.874902
vt 0.625098 0.874902
vt 0.625098 0.843848
vt 0.749902 0.843848
vt 0.749902 0.874902
vt 0.625098 0.874902
vt 0.625098 0.843848
vt 0.749902 0.843848
vt 0.749902 0.874902
vt 0.625098 0.874902
vt 0.625098 0.843848
vt 0.749902 0.843848
vt 0.749902 0.874902
vt 0.625098 0.874902
vt 0.625098 0.843848
vt 0.749902 0.843848
vt 0.749902 0.874902
vt 0.625098 0.874902
vt 0.625098 0.843848
vt 0.749902 0.843848
vt 0.749902 0.874902
vt 0.625098 0.874902
vt 0.375098 0.875098
vt 0.499902 0.875098
vt 0.499902 0.999902
vt 0.375098 0.999902
vt 0.375098 0.875098
vt 0.499902 0.875098
vt 0.499902 0.999902
vt 0.375098 0.999902
vt 0.375098 0.875098
vt 0.499902 0.875098
vt 0.499902 0.999902
vt 0.375098 0.999902
vt 0.375098 0.875098
vt 0.499902 0.875098
vt 0.499902 0.999902
vt 0.375098 0.999902
vt 0.375098 0.875098
vt 0.499902 0.875098
vt 0.499902 0.999902
vt 0.375098 0.999902
vt 0.375098 0.875098
vt 0.499902 0.875098
vt 0.499902 0.999902
vt 0.375098 0.999902
vn -0.6696 -0.7425 -0.0194
vn -0.5842 -0.5658 0.5819
vn -0.7360 0.2110 0.6432
vn -0.9604 0.2785 -0.0030
vn 0.0332 -0.9990 -0.0281
vn 0.0202 -0.7527 0.6580
vn 0.1058 -0.9941 -0.0239
vn 0.1038 -0.7248 0.6810
vn 0.5725 -0.8193 -0.0301
vn 0.4879 -0.6469 0.5860
vn 0.9973 0.0575 -0.0443
vn 0.7541 0.1077 0.6478
vn 0.4755 -0.6207 -0.6234
vn 0.7578 0.0841 -0.6470
vn 0.0633 -0.6221 -0.7804
vn 0.0052 -0.7037 -0.7104
vn -0.5549 -0.5289 -0.6421
vn -0.7097 0.2957 -0.6394
vn -0.0561 0.2364 -0.9700
vn 0.0346 0.1588 -0.9867
vn 0.0822 0.0721 0.9940
vn -0.0040 0.1137 0.9935
vn -0.0470 0.8186 0.5724
vn -0.4096 0.8264 0.3862
vn 0.0494 0.8304 0.5550
vn 0.4353 0.7886 0.4342
vn 0.5473 0.8365 -0.0253
vn 0.4589 0.7674 -0.4477
vn 0.0020 0.8151 -0.5792
vn -0.0746 0.8707 -0.4860
vn -0.3347 0.8608 -0.3833
vn -0.4587 0.8885 -0.0121
vn -0.0478 0.9988 -0.0113
vn -0.0065 1.0000 0.0019
usemtl Grassland_Tileatlas_01
s 1
f 3/1/1 1/2/2 23/3/3 2/4/4
f 9/5/5 24/6/6 1/7/2 3/8/1
f 24/9/6 9/10/5 20/11/7 14/12/8
f 14/13/8 20/14/7 7/15/9 8/16/10
f 8/17/10 7/18/9 16/19/11 13/20/12
f 7/21/9 5/22/13 25/23/14 16/24/11
f 20/25/7 18/26/15 5/27/13 7/28/9
f 9/5/5 19/29/16 18/30/15 20/31/7
f 19/32/16 9/10/5 3/33/1 15/34/17
f 15/35/17 3/36/1 2/37/4 12/38/18
f 19/32/16 15/39/17 12/40/18 26/41/19
f 18/42/15 19/29/16 26/43/19 22/44/20
f 5/45/13 18/26/15 22/46/20 25/47/14
f 14/13/8 8/48/10 13/49/12 21/50/21
f 24/9/6 14/51/8 21/52/21 27/53/22
f 1/54/2 24/6/6 27/55/22 23/56/3
f 23/57/3 27/58/22 11/59/23 32/60/24
f 27/61/22 21/62/21 28/63/25 11/64/23
f 21/65/21 13/66/12 17/67/26 28/68/25
f 13/69/12 16/70/11 6/71/27 17/72/26
f 16/73/11 25/74/14 30/75/28 6/76/27
f 25/77/14 22/78/20 10/79/29 30/80/28
f 22/81/20 26/82/19 34/83/30 10/84/29
f 26/85/19 12/86/18 33/87/31 34/88/30
f 12/89/18 2/90/4 4/91/32 33/92/31
f 2/93/4 23/94/3 32/95/24 4/96/32
f 4/97/32 32/98/24 11/99/23 31/100/33
f 33/101/31 4/102/32 31/103/33 34/104/30
f 34/105/30 31/106/33 29/107/34 10/108/29
f 31/109/33 11/110/23 28/111/25 29/112/34
f 29/113/34 28/114/25 17/115/26 6/116/27
f 10/117/29 29/118/34 6/119/27 30/120/28
