# Blender v2.79 (sub 0) OBJ File: 'Cliff_Face_Dirt_Corner_High_02.blend'
# www.blender.org
mtllib Cliff_Face_Dirt_Corner_High_02.mtl
o Cube
v 0.000000 0.000000 0.000000
v -0.271526 0.967056 0.000000
v -0.271526 0.131823 0.000000
v -0.169208 0.049753 0.000000
v -0.338445 0.966944 -0.161555
v -0.146447 -0.000112 -0.353553
v -0.338445 0.131711 -0.161555
v -0.838593 1.851070 -0.661407
v -0.766243 0.049642 -0.733757
v -0.269371 0.049642 -0.230629
v -0.838593 0.131711 -0.661407
v -0.838593 0.966944 -0.661407
v -0.646595 -0.000112 -0.853405
v -1.338742 0.966944 -1.161259
v -0.338445 1.851070 -0.161555
v -1.266392 0.049642 -1.233608
v -1.338742 0.131711 -1.161259
v -1.146744 -0.000112 -1.353256
v -1.500000 0.049753 -1.325862
v -1.500000 0.131823 -1.228177
v -1.500000 0.000000 -1.499703
v -0.271526 1.851182 0.000000
v -0.361449 1.939647 0.000000
v -0.402030 1.939535 -0.097970
v -0.500000 1.999888 0.000000
v -1.402327 1.939535 -1.097673
v -0.902178 1.939535 -0.597822
v -1.000149 1.999888 -0.499852
v -1.500297 1.999888 -0.999703
v -1.500000 1.851182 -1.228177
v -1.500000 1.939647 -1.138254
v -1.338742 1.851070 -1.161259
v -1.500000 0.967056 -1.228177
vt 0.875000 0.812500
vt 0.750098 0.812598
vt 0.750098 0.828027
vt 0.874902 0.828027
vt 0.750098 0.875098
vt 0.874902 0.875098
vt 0.874902 0.999902
vt 0.750098 0.999902
vt 0.750098 0.828223
vt 0.874902 0.828223
vt 0.874902 0.843652
vt 0.750098 0.843652
vt 0.874902 0.812598
vt 0.750098 0.812598
vt 0.750098 0.828027
vt 0.874902 0.828027
vt 0.750098 0.875098
vt 0.874902 0.875098
vt 0.874902 0.999902
vt 0.750098 0.999902
vt 0.750098 0.828223
vt 0.874902 0.828223
vt 0.874902 0.843652
vt 0.750098 0.843652
vt 0.750098 0.875098
vt 0.781152 0.875098
vt 0.781152 0.999902
vt 0.750098 0.999902
vt 0.750098 0.875098
vt 0.781152 0.875098
vt 0.781152 0.999902
vt 0.750098 0.999902
vt 0.750098 0.875098
vt 0.781152 0.875098
vt 0.781152 0.999902
vt 0.750098 0.999902
vt 0.753906 0.824219
vt 0.785156 0.824219
vt 0.781250 0.839844
vt 0.757812 0.839844
vt 0.750000 0.812500
vt 0.785156 0.812500
vt 0.781250 0.828125
vt 0.753906 0.828125
vt 0.750098 0.875098
vt 0.781152 0.875098
vt 0.781152 0.999902
vt 0.750098 0.999902
vt 0.750000 0.828223
vt 0.781250 0.828223
vt 0.777344 0.843652
vt 0.754004 0.843652
vt 0.754004 0.812598
vt 0.785156 0.812500
vt 0.781250 0.828125
vt 0.757812 0.828125
vt 0.750098 0.859473
vt 0.874902 0.859473
vt 0.874902 0.874902
vt 0.750098 0.874902
vt 0.874902 0.843848
vt 0.750098 0.843848
vt 0.750098 0.859277
vt 0.874902 0.859277
vt 0.750098 0.859473
vt 0.874902 0.859473
vt 0.874902 0.874902
vt 0.750098 0.874902
vt 0.874902 0.843848
vt 0.750098 0.843848
vt 0.750098 0.859277
vt 0.874902 0.859277
vt 0.757812 0.875000
vt 0.750098 0.859473
vt 0.761719 0.859473
vt 0.757812 0.851562
vt 0.781250 0.851562
vt 0.773438 0.867188
vt 0.757812 0.867188
vt 0.765625 0.875000
vt 0.753906 0.859473
vt 0.773438 0.859375
vt 0.777344 0.882812
vt 0.757812 0.882812
vt 0.757812 0.898438
vt 0.777344 0.898438
vt 0.750098 0.875098
vt 0.874902 0.875098
vt 0.874902 0.999902
vt 0.750098 0.999902
vt 0.750098 0.875098
vt 0.874902 0.875098
vt 0.874902 0.999902
vt 0.750098 0.999902
vn 0.2317 0.9591 -0.1623
vn 0.1985 0.9599 -0.1979
vn 0.3285 0.8858 -0.3276
vn 0.3767 0.8909 -0.2536
vn 0.7487 0.4434 -0.4927
vn 0.6386 0.4301 -0.6381
vn 0.7069 0.0000 -0.7073
vn 0.8314 0.0000 -0.5557
vn 0.1624 0.9587 -0.2335
vn 0.2485 0.8932 -0.3748
vn 0.4884 0.4464 -0.7498
vn 0.5557 0.0000 -0.8314
vn 0.3833 0.0000 -0.9236
vn 0.3618 0.3325 -0.8709
vn 0.5217 0.3667 -0.7702
vn 0.9239 0.0000 -0.3827
vn 0.7702 0.3667 -0.5217
vn 0.8712 0.3325 -0.3611
vn 0.8256 0.4454 -0.3465
vn 0.4153 0.8924 -0.1766
vn 0.2758 0.9541 -0.1168
vn 0.3398 0.4448 -0.8287
vn 0.1710 0.8905 -0.4216
vn 0.1132 0.9541 -0.2773
vn 0.4862 0.8130 -0.3202
vn 0.3956 0.8287 -0.3959
vn 0.2823 0.9168 -0.2824
vn 0.3180 0.9156 -0.2460
vn 0.6520 0.3865 -0.6523
vn 0.3203 0.8131 -0.4861
vn 0.2461 0.9156 -0.3179
vn 0.5719 0.7851 -0.2377
vn 0.2382 0.7851 -0.5717
usemtl Grassland_Tileatlas_01
s 1
f 6/1/1 13/2/2 9/3/3 10/4/4
f 7/5/5 11/6/6 12/7/7 5/8/8
f 10/9/4 9/10/3 11/11/6 7/12/5
f 13/13/2 18/14/9 16/15/10 9/16/3
f 11/17/6 17/18/11 14/19/12 12/20/7
f 9/21/3 16/22/10 17/23/11 11/24/6
f 14/25/12 33/26/13 30/27/14 32/28/15
f 2/29/16 5/30/8 15/31/17 22/32/18
f 3/33/19 7/34/5 5/35/8 2/36/16
f 4/37/20 10/38/4 7/39/5 3/40/19
f 1/41/21 6/42/1 10/43/4 4/44/20
f 17/45/11 20/46/22 33/47/13 14/48/12
f 16/49/10 19/50/23 20/51/22 17/52/11
f 18/53/9 21/54/24 19/55/23 16/56/10
f 24/57/25 27/58/26 28/59/27 25/60/28
f 15/61/17 8/62/29 27/63/26 24/64/25
f 27/65/26 26/66/30 29/67/31 28/68/27
f 8/69/29 32/70/15 26/71/30 27/72/26
f 25/73/28 23/74/32 24/75/25
f 22/76/18 15/77/17 24/78/25 23/79/32
f 29/80/31 26/81/30 31/82/33
f 32/83/15 30/84/14 31/85/33 26/86/30
usemtl Grassland_Tileatlas_01_NONE
f 12/87/7 14/88/12 32/89/15 8/90/29
f 5/91/8 12/92/7 8/93/29 15/94/17
