# Blender v2.79 (sub 0) OBJ File: 'Cliff_Face_Dirt_Corner_03.blend'
# www.blender.org
mtllib Cliff_Face_Dirt_Corner_03.mtl
o Cube
v 0.000000 0.000000 0.000000
v -0.500000 1.000000 1.000000
v -0.271526 0.851182 0.000000
v -0.271526 0.131823 0.000000
v -0.271526 0.851182 1.000000
v -0.173841 0.049753 1.000000
v -0.169208 0.049753 0.000000
v -0.271526 0.131823 1.000000
v -0.361449 0.939647 1.000000
v -0.361449 0.939647 0.000000
v 0.000000 0.000000 1.000000
v -0.146447 -0.000112 -0.353553
v -0.402327 0.939535 -0.097970
v -0.338742 0.131711 -0.161555
v -0.338742 0.851070 -0.161555
v -0.266392 0.049642 -0.233905
v -0.146744 -0.000112 -0.353553
v -0.500000 1.000000 0.000000
v -1.500000 0.000000 -0.500000
v -1.500000 0.851182 -0.228474
v -1.500000 0.131823 -0.228474
v -0.500000 0.851182 -0.228474
v -0.500000 0.049753 -0.326159
v -1.500000 0.049753 -0.330792
v -0.500000 0.131823 -0.228474
v -0.500000 0.939647 -0.138550
v -1.500000 0.939647 -0.138550
v -0.500000 0.000000 -0.500000
v -1.500000 1.000000 0.000000
vt 0.750098 0.828223
vt 0.874902 0.828223
vt 0.874902 0.843652
vt 0.750098 0.843652
vt 0.750098 0.875098
vt 0.874902 0.875098
vt 0.874902 0.999902
vt 0.750098 0.999902
vt 0.874902 0.812598
vt 0.750098 0.812598
vt 0.750098 0.828027
vt 0.874902 0.828027
vt 0.874902 0.843848
vt 0.750098 0.843848
vt 0.750098 0.859277
vt 0.874902 0.859277
vt 0.750098 0.859473
vt 0.874902 0.859473
vt 0.874902 0.874902
vt 0.750098 0.874902
vt 0.750098 0.828223
vt 0.874902 0.828223
vt 0.874902 0.843652
vt 0.750098 0.843652
vt 0.750098 0.875098
vt 0.874902 0.875098
vt 0.874902 0.999902
vt 0.750098 0.999902
vt 0.874902 0.812598
vt 0.750098 0.812598
vt 0.750098 0.828027
vt 0.874902 0.828027
vt 0.874902 0.843848
vt 0.750098 0.843848
vt 0.750098 0.859277
vt 0.874902 0.859277
vt 0.750098 0.859473
vt 0.874902 0.859473
vt 0.874902 0.874902
vt 0.750098 0.874902
vt 0.757812 0.875000
vt 0.750098 0.859473
vt 0.761719 0.859473
vt 0.757812 0.851562
vt 0.781250 0.851562
vt 0.773438 0.867188
vt 0.757812 0.867188
vt 0.875098 0.875098
vt 0.906152 0.875098
vt 0.906152 0.999902
vt 0.875098 0.999902
vt 0.753906 0.824219
vt 0.785156 0.824219
vt 0.781250 0.839844
vt 0.757812 0.839844
vt 0.750000 0.812500
vt 0.785156 0.812500
vt 0.781250 0.828125
vt 0.753906 0.828125
vt 0.765625 0.875000
vt 0.753906 0.859473
vt 0.773438 0.859375
vt 0.777344 0.882812
vt 0.757812 0.882812
vt 0.757812 0.898438
vt 0.777344 0.898438
vt 0.906348 0.875098
vt 0.937402 0.875098
vt 0.937402 0.999902
vt 0.906348 0.999902
vt 0.750000 0.828223
vt 0.781250 0.828223
vt 0.777344 0.843652
vt 0.754004 0.843652
vt 0.754004 0.812598
vt 0.785156 0.812500
vt 0.781250 0.828125
vt 0.757812 0.828125
vn 0.4664 0.8845 0.0011
vn 0.4424 0.8925 -0.0875
vn 0.8757 0.4469 -0.1825
vn 0.9040 0.4275 0.0008
vn 0.9133 0.3669 -0.1768
vn 0.9223 0.3864 0.0000
vn 0.2786 0.9604 0.0006
vn 0.2795 0.9588 -0.0500
vn 0.5700 0.8130 -0.1188
vn 0.5597 0.8287 0.0000
vn 0.2324 0.9444 -0.2324
vn 0.3993 0.9168 0.0000
vn 0.0873 0.8910 -0.4455
vn 0.0011 0.8850 -0.4655
vn 0.0008 0.4275 -0.9040
vn 0.1816 0.4433 -0.8777
vn 0.0000 0.3864 -0.9223
vn 0.1764 0.3669 -0.9134
vn 0.0493 0.9592 -0.2785
vn 0.0006 0.9604 -0.2786
vn 0.0000 0.8287 -0.5597
vn 0.1184 0.8130 -0.5700
vn 0.0000 0.9168 -0.3993
vn 0.4167 0.8076 -0.4173
vn 0.6604 0.3562 -0.6610
vn 0.6189 0.4772 -0.6238
vn 0.2975 0.9062 -0.3003
vn 0.2798 0.9530 -0.1164
vn 0.1132 0.9541 -0.2773
usemtl Grassland_Tileatlas_01
s 1
f 6/1/1 7/2/2 4/3/3 8/4/4
f 8/5/4 4/6/3 3/7/5 5/8/6
f 11/9/7 1/10/8 7/11/2 6/12/1
f 5/13/6 3/14/5 10/15/9 9/16/10
f 9/17/10 10/18/9 18/19/11 2/20/12
f 23/21/13 24/22/14 21/23/15 25/24/16
f 25/25/16 21/26/15 20/27/17 22/28/18
f 28/29/19 19/30/20 24/31/14 23/32/13
f 22/33/18 20/34/17 27/35/21 26/36/22
f 26/37/22 27/38/21 29/39/23 18/40/11
f 18/41/11 10/42/9 13/43/24
f 3/44/5 15/45/25 13/46/24 10/47/9
f 4/48/3 14/49/26 15/50/25 3/51/5
f 7/52/2 16/53/27 14/54/26 4/55/3
f 1/56/8 12/57/28 16/58/27 7/59/2
f 18/60/11 13/61/24 26/62/22
f 15/63/25 22/64/18 26/65/22 13/66/24
f 14/67/26 25/68/16 22/69/18 15/70/25
f 16/71/27 23/72/13 25/73/16 14/74/26
f 17/75/29 28/76/19 23/77/13 16/78/27
