# Blender v2.79 (sub 0) OBJ File: 'Cliff_Face_Grass_Corner_High_01.blend'
# www.blender.org
mtllib Cliff_Face_Grass_Corner_High_01.mtl
o Cube
v 0.000000 0.000000 0.000000
v -1.338742 1.851070 -1.161259
v -0.271526 0.996781 0.000000
v -0.271526 0.131823 0.000000
v -0.173841 0.049753 1.000000
v -0.169208 0.049753 0.000000
v -0.271526 0.131823 1.000000
v -0.838593 1.851070 -0.661407
v 0.000000 0.000000 1.000000
v -0.146447 -0.000112 -0.353553
v -0.838593 0.996669 -0.661407
v -0.338445 0.131711 -0.161555
v -0.766243 0.049642 -0.733757
v -0.269371 0.049642 -0.230629
v -0.838593 0.131711 -0.661407
v -0.338445 0.996669 -0.161555
v -0.646595 -0.000112 -0.853405
v -1.266392 0.049642 -1.233608
v -1.338742 0.131711 -1.161259
v -1.338742 0.996669 -1.161259
v -0.271526 1.851182 0.000000
v -1.146744 -0.000112 -1.353256
v -0.271526 1.851182 1.000000
v -2.500000 0.000000 -1.499703
v -2.500000 0.996781 -1.228177
v -2.500000 0.131823 -1.228177
v -1.500000 0.996781 -1.228177
v -1.500000 0.049753 -1.325862
v -2.500000 0.049753 -1.330495
v -1.500000 0.131823 -1.228177
v -1.500000 0.000000 -1.499703
v -0.271526 0.996781 1.000000
v -0.500000 2.000000 1.000000
v -0.361449 1.939647 1.000000
v -0.361449 1.939647 0.000000
v -0.902179 1.939535 -0.597822
v -0.402030 1.939535 -0.097970
v -0.338445 1.851070 -0.161555
v -0.500000 1.999888 0.000000
v -1.402327 1.939535 -1.097673
v -1.000149 1.999888 -0.499852
v -1.500297 1.999888 -0.999703
v -1.500000 1.939647 -1.138254
v -2.500000 1.939647 -1.138254
v -2.500000 2.000000 -0.999703
v -2.500000 1.851182 -1.228177
v -1.500000 1.851182 -1.228177
vt 0.625098 0.828223
vt 0.749902 0.828223
vt 0.749902 0.843652
vt 0.625098 0.843652
vt 0.750098 0.875098
vt 0.874902 0.875098
vt 0.874902 0.999902
vt 0.750098 0.999902
vt 0.625098 0.812598
vt 0.749902 0.812598
vt 0.749902 0.828027
vt 0.625098 0.828027
vt 0.644531 0.812598
vt 0.730469 0.812598
vt 0.730469 0.828027
vt 0.644531 0.828027
vt 0.750098 0.875098
vt 0.874902 0.875098
vt 0.874902 0.999902
vt 0.750098 0.999902
vt 0.644531 0.828223
vt 0.730469 0.828223
vt 0.730469 0.843652
vt 0.644531 0.843652
vt 0.644531 0.812598
vt 0.730469 0.812598
vt 0.730469 0.828027
vt 0.644531 0.828027
vt 0.750098 0.875098
vt 0.874902 0.875098
vt 0.874902 0.999902
vt 0.750098 0.999902
vt 0.644531 0.828223
vt 0.730469 0.828223
vt 0.730469 0.843652
vt 0.644531 0.843652
vt 0.625098 0.828223
vt 0.749902 0.828223
vt 0.749902 0.843652
vt 0.625098 0.843652
vt 0.750098 0.875098
vt 0.874902 0.875098
vt 0.874902 0.999902
vt 0.750098 0.999902
vt 0.625098 0.812598
vt 0.749902 0.812598
vt 0.749902 0.828027
vt 0.625098 0.828027
vt 0.820312 0.902344
vt 0.843750 0.902344
vt 0.843750 0.988281
vt 0.820312 0.988281
vt 0.820312 0.902344
vt 0.843750 0.902344
vt 0.843750 0.988281
vt 0.820312 0.988281
vt 0.750098 0.875098
vt 0.874902 0.875098
vt 0.874902 0.999902
vt 0.750098 0.999902
vt 0.750098 0.875098
vt 0.874902 0.875098
vt 0.874902 0.999902
vt 0.750098 0.999902
vt 0.820312 0.902344
vt 0.843750 0.902344
vt 0.843750 0.988281
vt 0.820312 0.988281
vt 0.640625 0.835938
vt 0.671875 0.835938
vt 0.667969 0.851562
vt 0.644531 0.851562
vt 0.660156 0.812598
vt 0.707031 0.812598
vt 0.699219 0.832031
vt 0.667969 0.832031
vt 0.750098 0.875098
vt 0.874902 0.875098
vt 0.874902 0.999902
vt 0.750098 0.999902
vt 0.820312 0.902344
vt 0.843750 0.902344
vt 0.843750 0.988281
vt 0.820312 0.988281
vt 0.636719 0.835938
vt 0.667969 0.835938
vt 0.664062 0.851562
vt 0.640625 0.851562
vt 0.648438 0.812500
vt 0.695312 0.812500
vt 0.687500 0.832031
vt 0.656250 0.832031
vt 0.749902 0.843848
vt 0.625098 0.843848
vt 0.625098 0.859277
vt 0.749902 0.859277
vt 0.625098 0.859473
vt 0.749902 0.859473
vt 0.749902 0.874902
vt 0.625098 0.874902
vt 0.644531 0.859473
vt 0.730469 0.859473
vt 0.730469 0.874902
vt 0.644531 0.874902
vt 0.730469 0.843848
vt 0.644531 0.843848
vt 0.644531 0.859277
vt 0.730469 0.859277
vt 0.644531 0.859473
vt 0.730469 0.859473
vt 0.730469 0.874902
vt 0.644531 0.874902
vt 0.730469 0.843848
vt 0.644531 0.843848
vt 0.644531 0.859277
vt 0.730469 0.859277
vt 0.749902 0.843848
vt 0.625098 0.843848
vt 0.625098 0.859277
vt 0.749902 0.859277
vt 0.625098 0.859473
vt 0.749902 0.859473
vt 0.749902 0.874902
vt 0.625098 0.874902
vt 0.734375 0.875000
vt 0.726562 0.859375
vt 0.742188 0.859375
vt 0.773438 0.839844
vt 0.792969 0.839844
vt 0.789062 0.859375
vt 0.777344 0.859375
vt 0.683594 0.874902
vt 0.691406 0.859473
vt 0.679688 0.859473
vt 0.777344 0.882812
vt 0.757812 0.882812
vt 0.757812 0.898438
vt 0.777344 0.898438
vt 0.750098 0.875098
vt 0.874902 0.875098
vt 0.874902 0.999902
vt 0.750098 0.999902
vn 0.4664 0.8845 0.0011
vn 0.4420 0.8925 -0.0892
vn 0.8768 0.4440 -0.1846
vn 0.9040 0.4275 0.0008
vn 0.9808 0.0000 -0.1951
vn 1.0000 0.0000 0.0000
vn 0.2786 0.9604 0.0006
vn 0.2778 0.9593 -0.0502
vn 0.2317 0.9591 -0.1623
vn 0.1985 0.9599 -0.1979
vn 0.3285 0.8858 -0.3276
vn 0.3767 0.8909 -0.2536
vn 0.7487 0.4434 -0.4927
vn 0.6386 0.4301 -0.6381
vn 0.7069 0.0000 -0.7073
vn 0.8314 0.0000 -0.5557
vn 0.1624 0.9587 -0.2335
vn 0.2485 0.8932 -0.3748
vn 0.4884 0.4464 -0.7498
vn 0.5557 0.0000 -0.8314
vn 0.0873 0.8910 -0.4455
vn 0.0011 0.8850 -0.4655
vn 0.0008 0.4275 -0.9040
vn 0.1816 0.4433 -0.8777
vn 0.0000 0.0000 -1.0000
vn 0.1954 0.0000 -0.9807
vn 0.0493 0.9592 -0.2785
vn 0.0006 0.9604 -0.2786
vn 0.1764 0.3669 -0.9134
vn 0.5217 0.3667 -0.7702
vn 0.7702 0.3667 -0.5217
vn 0.9134 0.3669 -0.1761
vn 0.0000 0.3864 -0.9223
vn 0.6520 0.3865 -0.6524
vn 0.9223 0.3864 0.0000
vn 0.5698 0.8132 -0.1181
vn 0.5595 0.8288 0.0000
vn 0.3539 0.9236 -0.1469
vn 0.3990 0.9169 -0.0000
vn 0.4862 0.8130 -0.3202
vn 0.3956 0.8287 -0.3959
vn 0.2823 0.9168 -0.2824
vn 0.3203 0.8131 -0.4861
vn 0.1468 0.9236 -0.3539
vn 0.0000 0.8288 -0.5595
vn 0.1184 0.8132 -0.5698
vn 0.0000 0.9169 -0.3990
usemtl Grassland_Tileatlas_01
s 1
f 5/1/1 6/2/2 4/3/3 7/4/4
f 7/5/4 4/6/3 3/7/5 32/8/6
f 9/9/7 1/10/8 6/11/2 5/12/1
f 10/13/9 17/14/10 13/15/11 14/16/12
f 12/17/13 15/18/14 11/19/15 16/20/16
f 14/21/12 13/22/11 15/23/14 12/24/13
f 17/25/10 22/26/17 18/27/18 13/28/11
f 15/29/14 19/30/19 20/31/20 11/32/15
f 13/33/11 18/34/18 19/35/19 15/36/14
f 28/37/21 29/38/22 26/39/23 30/40/24
f 30/41/24 26/42/23 25/43/25 27/44/26
f 31/45/27 24/46/28 29/47/22 28/48/21
f 20/49/20 27/50/26 47/51/29 2/52/30
f 3/53/5 16/54/16 38/55/31 21/56/32
f 27/57/26 25/58/25 46/59/33 47/60/29
f 11/61/15 20/62/20 2/63/30 8/64/34
f 4/65/3 12/66/13 16/67/16 3/68/5
f 6/69/2 14/70/12 12/71/13 4/72/3
f 1/73/8 10/74/9 14/75/12 6/76/2
f 16/77/16 11/78/15 8/79/34 38/80/31
f 19/81/19 30/82/24 27/83/26 20/84/20
f 18/85/18 28/86/21 30/87/24 19/88/19
f 22/89/17 31/90/27 28/91/21 18/92/18
f 23/93/35 21/94/32 35/95/36 34/96/37
f 34/97/37 35/98/36 39/99/38 33/100/39
f 37/101/40 36/102/41 41/103/42 39/104/38
f 38/105/31 8/106/34 36/107/41 37/108/40
f 36/109/41 40/110/43 42/111/44 41/112/42
f 8/113/34 2/114/30 40/115/43 36/116/41
f 47/117/29 46/118/33 44/119/45 43/120/46
f 43/121/46 44/122/45 45/123/47 42/124/44
f 39/125/38 35/126/36 37/127/40
f 21/128/32 38/129/31 37/130/40 35/131/36
f 42/132/44 40/133/43 43/134/46
f 2/135/30 47/136/29 43/137/46 40/138/43
usemtl Grassland_Tileatlas_01_NONE
f 32/139/6 3/140/5 21/141/32 23/142/35
