# Blender v2.79 (sub 0) OBJ File: 'Cliff_Face_Dirt_Corner_01.blend'
# www.blender.org
mtllib Cliff_Face_Dirt_Corner_01.mtl
o Cube
v 0.000000 0.000000 0.000000
v -0.271526 0.131823 0.000000
v -0.361449 0.939647 0.000000
v -0.173841 0.049753 1.000000
v -0.169208 0.049753 0.000000
v -0.271526 0.131823 1.000000
v -2.500000 0.851182 -1.228177
v 0.000000 0.000000 1.000000
v -0.146447 -0.000112 -0.353553
v -0.338445 0.131711 -0.161555
v -0.769519 0.049642 -0.730481
v -0.269371 0.049642 -0.230629
v -0.338445 0.851070 -0.161555
v -0.838593 0.131711 -0.661407
v -0.646595 -0.000112 -0.853405
v -0.361449 0.939647 1.000000
v -1.266392 0.049642 -1.233608
v -0.500000 1.000000 1.000000
v -1.338742 0.131711 -1.161259
v -1.146744 -0.000112 -1.353256
v -2.500000 0.000000 -1.499703
v -2.500000 0.131823 -1.228177
v -1.500000 0.049753 -1.325862
v -2.500000 0.049753 -1.330495
v -1.500000 0.131823 -1.228177
v -0.271526 0.851182 0.000000
v -1.500000 0.000000 -1.499703
v -0.271526 0.851182 1.000000
v -0.902179 0.939759 -0.597822
v -0.402030 0.939647 -0.097970
v -0.500000 1.000000 0.000000
v -0.838593 0.851070 -0.661407
v -1.500297 1.000000 -0.999703
v -1.402327 0.939647 -1.097673
v -1.000149 1.000112 -0.499852
v -1.500000 0.939647 -1.138254
v -2.500000 0.939647 -1.138254
v -2.500000 1.000000 -0.999703
v -1.500000 0.851182 -1.228177
v -1.338742 0.851070 -1.161259
vt 0.750098 0.828223
vt 0.874902 0.828223
vt 0.874902 0.843652
vt 0.750098 0.843652
vt 0.750098 0.875098
vt 0.874902 0.875098
vt 0.874902 0.999902
vt 0.750098 0.999902
vt 0.874902 0.812598
vt 0.750098 0.812598
vt 0.750098 0.828027
vt 0.874902 0.828027
vt 0.875000 0.812500
vt 0.750098 0.812598
vt 0.750098 0.828027
vt 0.874902 0.828027
vt 0.750098 0.875098
vt 0.874902 0.875098
vt 0.874902 0.999902
vt 0.750098 0.999902
vt 0.750098 0.828223
vt 0.874902 0.828223
vt 0.874902 0.843652
vt 0.750098 0.843652
vt 0.874902 0.812598
vt 0.750098 0.812598
vt 0.750098 0.828027
vt 0.874902 0.828027
vt 0.750098 0.875098
vt 0.874902 0.875098
vt 0.874902 0.999902
vt 0.750098 0.999902
vt 0.750098 0.828223
vt 0.874902 0.828223
vt 0.874902 0.843652
vt 0.750098 0.843652
vt 0.750098 0.828223
vt 0.874902 0.828223
vt 0.874902 0.843652
vt 0.750098 0.843652
vt 0.750098 0.875098
vt 0.874902 0.875098
vt 0.874902 0.999902
vt 0.750098 0.999902
vt 0.874902 0.812598
vt 0.750098 0.812598
vt 0.750098 0.828027
vt 0.874902 0.828027
vt 0.750098 0.875098
vt 0.781152 0.875098
vt 0.781152 0.999902
vt 0.750098 0.999902
vt 0.753906 0.824219
vt 0.785156 0.824219
vt 0.781250 0.839844
vt 0.757812 0.839844
vt 0.750000 0.812500
vt 0.785156 0.812500
vt 0.781250 0.828125
vt 0.753906 0.828125
vt 0.750098 0.875098
vt 0.781152 0.875098
vt 0.781152 0.999902
vt 0.750098 0.999902
vt 0.750000 0.828223
vt 0.781250 0.828223
vt 0.777344 0.843652
vt 0.754004 0.843652
vt 0.754004 0.812598
vt 0.785156 0.812500
vt 0.781250 0.828125
vt 0.757812 0.828125
vt 0.874902 0.843848
vt 0.750098 0.843848
vt 0.750098 0.859277
vt 0.874902 0.859277
vt 0.750098 0.859473
vt 0.874902 0.859473
vt 0.874902 0.874902
vt 0.750098 0.874902
vt 0.750098 0.859473
vt 0.874902 0.859473
vt 0.874902 0.874902
vt 0.750098 0.874902
vt 0.874902 0.843848
vt 0.750098 0.843848
vt 0.750098 0.859277
vt 0.874902 0.859277
vt 0.750098 0.859473
vt 0.874902 0.859473
vt 0.874902 0.874902
vt 0.750098 0.874902
vt 0.874902 0.843848
vt 0.750098 0.843848
vt 0.750098 0.859277
vt 0.874902 0.859277
vt 0.874902 0.843848
vt 0.750098 0.843848
vt 0.750098 0.859277
vt 0.874902 0.859277
vt 0.750098 0.859473
vt 0.874902 0.859473
vt 0.874902 0.874902
vt 0.750098 0.874902
vt 0.757812 0.875000
vt 0.750098 0.859473
vt 0.761719 0.859473
vt 0.757812 0.851562
vt 0.781250 0.851562
vt 0.773438 0.867188
vt 0.757812 0.867188
vt 0.765625 0.875000
vt 0.753906 0.859473
vt 0.773438 0.859375
vt 0.777344 0.882812
vt 0.757812 0.882812
vt 0.757812 0.898438
vt 0.777344 0.898438
vn 0.4664 0.8845 0.0011
vn 0.4420 0.8925 -0.0892
vn 0.8768 0.4440 -0.1846
vn 0.9040 0.4275 0.0008
vn 0.9135 0.3668 -0.1760
vn 0.9223 0.3864 0.0000
vn 0.2786 0.9604 0.0006
vn 0.2778 0.9593 -0.0502
vn 0.2300 0.9597 -0.1613
vn 0.1960 0.9609 -0.1955
vn 0.3314 0.8837 -0.3305
vn 0.3773 0.8903 -0.2551
vn 0.7492 0.4410 -0.4942
vn 0.6403 0.4249 -0.6399
vn 0.6521 0.3860 -0.6525
vn 0.7703 0.3664 -0.5217
vn 0.1614 0.9593 -0.2318
vn 0.2499 0.8926 -0.3752
vn 0.4899 0.4440 -0.7502
vn 0.5218 0.3665 -0.7703
vn 0.0873 0.8910 -0.4455
vn 0.0011 0.8850 -0.4655
vn 0.0008 0.4275 -0.9040
vn 0.1816 0.4433 -0.8777
vn 0.0000 0.3865 -0.9223
vn 0.1763 0.3668 -0.9134
vn 0.0493 0.9592 -0.2785
vn 0.0006 0.9604 -0.2786
vn 0.5701 0.8130 -0.1179
vn 0.5597 0.8287 0.0000
vn 0.3542 0.9236 -0.1467
vn 0.3993 0.9168 0.0000
vn 0.4866 0.8128 -0.3201
vn 0.3959 0.8284 -0.3961
vn 0.2823 0.9168 -0.2824
vn 0.3202 0.8129 -0.4865
vn 0.1466 0.9236 -0.3542
vn 0.0000 0.8287 -0.5597
vn 0.1182 0.8130 -0.5701
vn 0.0000 0.9168 -0.3993
usemtl Grassland_Tileatlas_01
s 1
f 4/1/1 5/2/2 2/3/3 6/4/4
f 6/5/4 2/6/3 26/7/5 28/8/6
f 8/9/7 1/10/8 5/11/2 4/12/1
f 9/13/9 15/14/10 11/15/11 12/16/12
f 10/17/13 14/18/14 32/19/15 13/20/16
f 12/21/12 11/22/11 14/23/14 10/24/13
f 15/25/10 20/26/17 17/27/18 11/28/11
f 14/29/14 19/30/19 40/31/20 32/32/15
f 11/33/11 17/34/18 19/35/19 14/36/14
f 23/37/21 24/38/22 22/39/23 25/40/24
f 25/41/24 22/42/23 7/43/25 39/44/26
f 27/45/27 21/46/28 24/47/22 23/48/21
f 2/49/3 10/50/13 13/51/16 26/52/5
f 5/53/2 12/54/12 10/55/13 2/56/3
f 1/57/8 9/58/9 12/59/12 5/60/2
f 19/61/19 25/62/24 39/63/26 40/64/20
f 17/65/18 23/66/21 25/67/24 19/68/19
f 20/69/17 27/70/27 23/71/21 17/72/18
f 28/73/6 26/74/5 3/75/29 16/76/30
f 16/77/30 3/78/29 31/79/31 18/80/32
f 30/81/33 29/82/34 35/83/35 31/84/31
f 13/85/16 32/86/15 29/87/34 30/88/33
f 29/89/34 34/90/36 33/91/37 35/92/35
f 32/93/15 40/94/20 34/95/36 29/96/34
f 39/97/26 7/98/25 37/99/38 36/100/39
f 36/101/39 37/102/38 38/103/40 33/104/37
f 31/105/31 3/106/29 30/107/33
f 26/108/5 13/109/16 30/110/33 3/111/29
f 33/112/37 34/113/36 36/114/39
f 40/115/20 39/116/26 36/117/39 34/118/36
