# Blender v2.79 (sub 0) OBJ File: 'Cliff_Face_Dirt_High_01.blend'
# www.blender.org
mtllib Cliff_Face_Dirt_High_01.mtl
o Cube
v 0.000000 0.000000 0.000000
v -0.271526 1.851182 1.000000
v -0.271526 0.986469 0.000000
v -0.271526 0.131823 0.000000
v -0.173841 0.049753 1.000000
v -0.169208 0.049753 0.000000
v -0.271526 0.131823 1.000000
v -0.271526 0.986469 1.000000
v 0.000000 0.000000 1.000000
v -0.500000 2.000000 1.000000
v -0.271526 1.851182 0.000000
v -0.500000 2.000000 0.000000
v -0.361449 1.939647 1.000000
v -0.361449 1.939647 0.000000
vt 0.750098 0.828223
vt 0.874902 0.828223
vt 0.874902 0.843652
vt 0.750098 0.843652
vt 0.750098 0.875098
vt 0.874902 0.875098
vt 0.874902 0.999902
vt 0.750098 0.999902
vt 0.874902 0.812598
vt 0.750098 0.812598
vt 0.750098 0.828027
vt 0.874902 0.828027
vt 0.750098 0.875098
vt 0.874902 0.875098
vt 0.874902 0.999902
vt 0.750098 0.999902
vt 0.874902 0.843848
vt 0.750098 0.843848
vt 0.750098 0.859277
vt 0.874902 0.859277
vt 0.750098 0.859473
vt 0.874902 0.859473
vt 0.874902 0.874902
vt 0.750098 0.874902
vn 0.4664 0.8845 0.0011
vn 0.4655 0.8850 0.0011
vn 0.9040 0.4275 0.0008
vn 1.0000 0.0000 0.0000
vn 0.2786 0.9604 0.0006
vn 0.9223 0.3865 0.0000
vn 0.5597 0.8287 0.0000
vn 0.3993 0.9168 0.0000
usemtl Grassland_Tileatlas_01
s 1
f 5/1/1 6/2/2 4/3/3 7/4/3
f 7/5/3 4/6/3 3/7/4 8/8/4
f 9/9/5 1/10/5 6/11/2 5/12/1
f 8/13/4 3/14/4 11/15/6 2/16/6
f 2/17/6 11/18/6 14/19/7 13/20/7
f 13/21/7 14/22/7 12/23/8 10/24/8
